SplineFontDB: 3.0
FontName: Gandom
FullName: Gandom
FamilyName: Gandom
Weight: Regular
Copyright: Copyright (c) 2003 by Bitstream, Inc. All Rights Reserved.\nDejaVu changes are in public domain\nCopyright (c) 2015 by Saber Rastikerdar. All Rights Reserved.
Version: 0.3
ItalicAngle: 0
UnderlinePosition: -100
UnderlineWidth: 100
Ascent: 1536
Descent: 512
InvalidEm: 0
LayerCount: 2
Layer: 0 1 "Back" 1
Layer: 1 1 "Fore" 0
XUID: [1021 502 1027637223 7335572]
UniqueID: 4193122
UseUniqueID: 1
FSType: 0
OS2Version: 1
OS2_WeightWidthSlopeOnly: 0
OS2_UseTypoMetrics: 1
CreationTime: 1431850356
ModificationTime: 1453953286
PfmFamily: 17
TTFWeight: 400
TTFWidth: 5
LineGap: 0
VLineGap: 0
Panose: 2 11 6 3 3 8 4 2 2 4
OS2TypoAscent: 2000
OS2TypoAOffset: 0
OS2TypoDescent: -1000
OS2TypoDOffset: 0
OS2TypoLinegap: 0
OS2WinAscent: 2000
OS2WinAOffset: 0
OS2WinDescent: 1000
OS2WinDOffset: 0
HheadAscent: 2000
HheadAOffset: 0
HheadDescent: -1000
HheadDOffset: 0
OS2SubXSize: 1331
OS2SubYSize: 1433
OS2SubXOff: 0
OS2SubYOff: 286
OS2SupXSize: 1331
OS2SupYSize: 1433
OS2SupXOff: 0
OS2SupYOff: 983
OS2StrikeYSize: 102
OS2StrikeYPos: 530
OS2Vendor: 'PfEd'
OS2CodePages: 600001ff.dfff0000
Lookup: 1 0 0 "'case' Case-Sensitive Forms in Latin lookup 0" { "'case' Case-Sensitive Forms in Latin lookup 0 subtable"  } ['case' ('DFLT' <'dflt' > 'latn' <'CAT ' 'ESP ' 'GAL ' 'dflt' > ) ]
Lookup: 6 1 0 "'ccmp' Glyph Composition/Decomposition lookup 2" { "'ccmp' Glyph Composition/Decomposition lookup 2 subtable"  } ['ccmp' ('arab' <'KUR ' 'SND ' 'URD ' 'dflt' > 'hebr' <'dflt' > 'nko ' <'dflt' > ) ]
Lookup: 6 0 0 "'ccmp' Glyph Composition/Decomposition lookup 3" { "'ccmp' Glyph Composition/Decomposition lookup 3 subtable"  } ['ccmp' ('cyrl' <'MKD ' 'SRB ' 'dflt' > 'grek' <'dflt' > 'latn' <'ISM ' 'KSM ' 'LSM ' 'MOL ' 'NSM ' 'ROM ' 'SKS ' 'SSM ' 'dflt' > ) ]

StartChar: afii57388
Encoding: 1548 1548 2
Width: 762
VWidth: 2425
GlyphClass: 2
Flags: W
LayerCount: 2
Fore
SplineSet
415.860495525 263.875 m 1,0,-1
 434.737304688 263.875 l 2,1,2
 536.54296875 263.875 536.54296875 263.875 536.54296875 148.568359375 c 2,3,-1
 536.542969617 111.171547954 l 2,4,5
 536.622718962 6.24609375 536.622718962 6.24609375 428.491210938 6.24609375 c 2,6,-1
 387.679534561 6.24609301075 l 2,7,8
 349.907680278 6.21957635757 349.907680278 6.21957635757 324.973419624 19.1970351076 c 128,-1,9
 300.03915897 32.1744938576 300.03915897 32.1744938576 287.63090761 58.3979073004 c 128,-1,10
 275.22265625 84.6213207433 275.22265625 84.6213207433 275.22265625 124.400390625 c 2,11,-1
 275.22265625 193.248046875 l 1,12,13
 296.120012785 454.43947529 296.120012785 454.43947529 483.895463436 614.645414942 c 1,14,15
 493.909328922 609.643445736 493.909328922 609.643445736 516.101516798 598.934151577 c 128,-1,16
 538.293704674 588.224857418 538.293704674 588.224857418 548.098006881 583.327565978 c 1,17,18
 547.45538188 582.615981081 547.45538188 582.615981081 547.120266032 582.244905107 c 0,19,20
 418.577331457 439.63607917 418.577331457 439.63607917 415.907584902 266.921367115 c 2,21,-1
 415.860495525 263.875 l 1,0,-1
EndSplineSet
EndChar

StartChar: uni0615
Encoding: 1557 1557 3
Width: 0
VWidth: 2186
GlyphClass: 4
Flags: W
AnchorPoint: "Anchor-10" 547.84 1279.5 mark 0
AnchorPoint: "Anchor-9" 547.84 1279.5 mark 0
AnchorPoint: "Anchor-1" 547.84 1975 basemark 0
AnchorPoint: "Anchor-1" 547.84 1279.5 mark 0
LayerCount: 2
Fore
SplineSet
466.096 1456.96 m 1,0,-1
 552.12 1456.96 l 2,1,2
 639.138 1456.96 639.138 1456.96 665.862 1472.75 c 0,3,4
 697.288 1492.32 697.288 1492.32 713.059 1508.3 c 128,-1,5
 728.83 1524.27 728.83 1524.27 728.83 1541.65 c 0,6,7
 728.83 1583.09 728.83 1583.09 689.03 1604.94 c 1,8,9
 681.399 1607.6 681.399 1607.6 672.751 1605.46 c 128,-1,10
 664.102 1603.31 664.102 1603.31 640.309 1592.64 c 128,-1,11
 616.515 1581.97 616.515 1581.97 601.865 1576.19 c 0,12,13
 543.049 1552.44 543.049 1552.44 483.147 1478.12 c 2,14,-1
 466.096 1456.96 l 1,0,-1
576.73 1374.89 m 2,15,-1
 282.64 1374.89 l 1,16,-1
 282.64 1456.96 l 1,17,-1
 369.31 1456.96 l 1,18,-1
 369.31 1883.89 l 1,19,-1
 452.45 1883.89 l 1,20,-1
 452.45 1497.67 l 1,21,-1
 477.109 1547.67 l 2,22,23
 513.381 1621.22 513.381 1621.22 619.878 1662.18 c 0,24,25
 682.718 1686.12 682.718 1686.12 752.956 1660.03 c 0,26,27
 814.11 1636.51 814.11 1636.51 814.11 1557.7 c 0,28,29
 814.11 1466.67 814.11 1466.67 750.648 1417.09 c 0,30,31
 696.384 1374.89 696.384 1374.89 576.73 1374.89 c 2,15,-1
EndSplineSet
EndChar

StartChar: uni061B
Encoding: 1563 1563 4
Width: 747
VWidth: 2425
GlyphClass: 2
Flags: W
LayerCount: 2
Fore
SplineSet
255.3828125 132.622070312 m 128,-1,1
 255.3828125 185.448569632 255.3828125 185.448569632 291.659131776 222.825211476 c 0,2,3
 330.160606724 260.2265625 330.160606724 260.2265625 382.986328125 260.2265625 c 0,4,5
 409.449979042 260.2265625 409.449979042 260.2265625 431.946538968 250.898829429 c 128,-1,6
 454.443098893 241.571096357 454.443098893 241.571096357 473.189226531 222.824968718 c 0,7,8
 510.591796875 185.422398375 510.591796875 185.422398375 510.591796875 132.622070312 c 0,9,10
 510.591796875 114.984114614 510.591796875 114.984114614 506.441008573 98.9753288535 c 128,-1,11
 502.29022027 82.9665430933 502.29022027 82.9665430933 493.981880945 68.555695439 c 128,-1,12
 485.67354162 54.1448477848 485.67354162 54.1448477848 473.189469687 41.2938970031 c 0,13,14
 454.486755181 23.1413044341 454.486755181 23.1413044341 431.966493868 14.0794412795 c 128,-1,15
 409.446232555 5.017578125 409.446232555 5.017578125 382.986328125 5.017578125 c 0,16,17
 330.134633095 5.017578125 330.134633095 5.017578125 291.595143072 41.3546478471 c 0,18,0
 255.3828125 79.7693987203 255.3828125 79.7693987203 255.3828125 132.622070312 c 128,-1,1
390.536277043 713.5 m 1,19,-1
 409.413085938 713.5 l 2,20,21
 511.21875 713.5 511.21875 713.5 511.21875 598.193359375 c 2,22,-1
 511.218750867 560.796547954 l 2,23,24
 511.298500212 455.87109375 511.298500212 455.87109375 403.166992188 455.87109375 c 2,25,-1
 362.356292392 455.871093011 l 2,26,27
 249.8984375 455.792145848 249.8984375 455.792145848 249.8984375 574.025390625 c 2,28,-1
 249.8984375 642.873046875 l 1,29,30
 270.795794035 904.06447529 270.795794035 904.06447529 458.571244687 1064.27041494 c 1,31,32
 464.061057825 1061.52822949 464.061057825 1061.52822949 470.894390161 1058.19236514 c 128,-1,33
 477.727722496 1054.8565008 477.727722496 1054.8565008 484.253558088 1051.7073028 c 128,-1,34
 490.77939368 1048.5581048 490.77939368 1048.5581048 497.292655476 1045.41518746 c 128,-1,35
 503.805917271 1042.27227013 503.805917271 1042.27227013 510.584763155 1038.963622 c 128,-1,36
 517.363609039 1035.65497388 517.363609039 1035.65497388 522.773788132 1032.95256598 c 1,37,-1
 522.284921147 1032.41123936 l 2,38,39
 393.253112696 889.262061481 393.253112696 889.262061481 390.583366148 716.546366852 c 2,40,-1
 390.536277043 713.5 l 1,19,-1
EndSplineSet
EndChar

StartChar: uni061F
Encoding: 1567 1567 5
Width: 1095
VWidth: 2419
GlyphClass: 2
Flags: W
LayerCount: 2
Fore
SplineSet
500.54296875 132.622070312 m 128,-1,1
 500.54296875 185.448569632 500.54296875 185.448569632 536.819288026 222.825211476 c 0,2,3
 575.320762974 260.2265625 575.320762974 260.2265625 628.146484375 260.2265625 c 0,4,5
 654.609630584 260.2265625 654.609630584 260.2265625 677.10621148 250.898821697 c 128,-1,6
 699.602792377 241.571080894 699.602792377 241.571080894 718.349382781 222.824968718 c 128,-1,7
 737.09604695 204.07830455 737.09604695 204.07830455 746.424000037 181.581732254 c 128,-1,8
 755.751953125 159.085159958 755.751953125 159.085159958 755.751953125 132.622070312 c 128,-1,9
 755.751953125 106.158432264 755.751953125 106.158432264 746.423985456 83.6618804733 c 128,-1,10
 737.096017788 61.1653286824 737.096017788 61.1653286824 718.34940984 42.4191989639 c 128,-1,11
 699.602747741 23.6730150965 699.602747741 23.6730150965 677.106167326 14.3452966108 c 128,-1,12
 654.609586911 5.017578125 654.609586911 5.017578125 628.146484375 5.017578125 c 0,13,14
 575.294789345 5.017578125 575.294789345 5.017578125 536.755299322 41.3546478471 c 0,15,0
 500.54296875 79.7693987203 500.54296875 79.7693987203 500.54296875 132.622070312 c 128,-1,1
796.512723545 1167.92042461 m 0,16,17
 693.80465026 1382.17547763 693.80465026 1382.17547763 517.049260597 1366.18792536 c 0,18,19
 505.427443481 1365.13357454 505.427443481 1365.13357454 494.223397335 1362.90635285 c 128,-1,20
 483.01935119 1360.67913117 483.01935119 1360.67913117 472.236821641 1357.27970269 c 128,-1,21
 461.454292092 1353.88027422 461.454292092 1353.88027422 451.095630149 1349.31001731 c 128,-1,22
 440.736968207 1344.7397604 440.736968207 1344.7397604 430.803082703 1338.99804423 c 128,-1,23
 420.8691972 1333.25632806 420.8691972 1333.25632806 411.36527594 1326.34582588 c 0,24,25
 368.672947565 1294.92425635 368.672947565 1294.92425635 347.433081024 1245.630219 c 128,-1,26
 326.193214484 1196.33618165 326.193214484 1196.33618165 326.38966492 1129.55681945 c 0,27,28
 325.995665874 1010.69747835 325.995665874 1010.69747835 461.259038713 884.862029465 c 1,29,-1
 567.272303603 780.026299182 l 2,30,31
 710.75390625 641.960229936 710.75390625 641.960229936 710.75390625 510.497070312 c 2,32,-1
 710.75390625 457.916015625 l 1,33,-1
 532.53515625 457.916015625 l 1,34,-1
 532.535074115 517.160418029 l 2,35,36
 532.770652086 548.995613366 532.770652086 548.995613366 525.060235186 574.699459588 c 128,-1,37
 517.349818285 600.40330581 517.349818285 600.40330581 501.660724624 619.792996538 c 0,38,39
 490.707519939 633.811076237 490.707519939 633.811076237 478.199201271 648.246347331 c 128,-1,40
 465.690882602 662.681618425 465.690882602 662.681618425 451.648407166 677.510948107 c 128,-1,41
 437.60593173 692.340277789 437.60593173 692.340277789 422.041168783 707.551778378 c 2,42,-1
 318.153078069 809.081994955 l 2,43,44
 165.001280891 953.294582249 165.001280891 953.294582249 165.199216942 1152.55602821 c 0,45,46
 165.001507921 1332.62824156 165.001507921 1332.62824156 290.331944738 1440.85896254 c 0,47,48
 339.742721501 1483.94223875 339.742721501 1483.94223875 401.035867107 1505.62200784 c 128,-1,49
 462.329012713 1527.30177694 462.329012713 1527.30177694 535.699935952 1527.59967771 c 0,50,51
 594.483451144 1527.99644515 594.483451144 1527.99644515 669.674951972 1500.77280612 c 0,52,53
 738.749858421 1476.67715624 738.749858421 1476.67715624 793.92822659 1423.10648819 c 128,-1,54
 849.106594759 1369.53582013 849.106594759 1369.53582013 890.473416633 1286.26490708 c 1,55,-1
 929.253439062 1197.16618424 l 1,56,-1
 810.504974398 1135.21074771 l 1,57,58
 808.087197996 1141.36669221 808.087197996 1141.36669221 805.842306873 1146.76980534 c 128,-1,59
 803.59741575 1152.17291847 803.59741575 1152.17291847 801.359559465 1157.24055036 c 128,-1,60
 799.121703179 1162.30818225 799.121703179 1162.30818225 796.512723545 1167.92042461 c 0,16,17
EndSplineSet
EndChar

StartChar: uni0621
Encoding: 1569 1569 6
Width: 724
VWidth: 2289
GlyphClass: 2
Flags: W
AnchorPoint: "Anchor-7" 356.254 -233.511 basechar 0
AnchorPoint: "Anchor-10" 305.904 1029.48 basechar 0
LayerCount: 2
Fore
SplineSet
451.246236349 282.815604412 m 0,0,1
 546 283 546 283 628.001 328.119 c 1,2,-1
 628.001 192.897 l 1,3,4
 377 117 377 117 75.5352 -22.4277 c 1,5,-1
 75.5352 107.823 l 1,6,7
 203 179 203 179 309 213 c 1,8,9
 79 252 79 252 79.3477 465.469 c 0,10,11
 79 612 79 612 229.495117188 698.583007812 c 4,12,13
 291 734 291 734 365.495117188 733.583007812 c 4,14,15
 422 734 422 734 469.135742188 713.016601562 c 4,16,17
 551 677 551 677 551 587 c 5,18,19
 458 613 458 613 421.495117188 612.583007812 c 4,20,21
 358 613 358 613 320.495117188 593.583007812 c 4,22,23
 219 543 219 543 219.179 456.566 c 0,24,25
 219 329 219 329 388.868 289.509 c 0,26,27
 417 283 417 283 451.246236349 282.815604412 c 0,0,1
EndSplineSet
EndChar

StartChar: uni0627
Encoding: 1575 1575 12
Width: 415
VWidth: 2267
GlyphClass: 2
Flags: W
AnchorPoint: "Anchor-10" 201.033 1580.03 basechar 0
AnchorPoint: "Anchor-7" 208.453 -282.144 basechar 0
LayerCount: 2
Fore
SplineSet
266.716 1458 m 2,0,-1
 284.18 1467.04 l 1,1,-1
 284.18 191 l 2,2,3
 284.18 63.396 284.18 63.396 186.167 -0.583984 c 1,4,-1
 136.373 1104.39 l 2,5,6
 123.772 1384.01 123.772 1384.01 266.716 1458 c 2,0,-1
EndSplineSet
Substitution2: "'fina' Terminal Forms in Arabic lookup 9 subtable" uniFE8E
EndChar

StartChar: uni062D
Encoding: 1581 1581 18
Width: 1248
VWidth: 2291
GlyphClass: 2
Flags: W
AnchorPoint: "Anchor-10" 459.88 1272.22 basechar 0
AnchorPoint: "Anchor-7" 303.835 -795.086 basechar 0
LayerCount: 2
Fore
SplineSet
870 527.348632812 m 24,0,1
 694 485 694 485 556.974609375 405.180664062 c 0,2,3
 439 337 439 337 371 257.5 c 0,4,5
 252 119 252 119 233.734375 -28.30078125 c 0,6,7
 219 -144 219 -144 249 -217 c 0,8,9
 344 -449 344 -449 803.83984375 -449.075195312 c 0,10,11
 1011 -449 1011 -449 1157 -408 c 1,12,13
 1115 -520 1115 -520 995.87109375 -576.123046875 c 0,14,15
 901 -621 901 -621 719.553710938 -621.064453125 c 0,16,17
 353 -621 353 -621 195.377929688 -436.936523438 c 0,18,19
 92 -316 92 -316 91.755859375 -128.313476562 c 0,20,21
 92 139 92 139 254 313 c 4,22,23
 498 574 498 574 885 623 c 1,24,25
 747 664 747 664 668 699 c 0,26,27
 518 765 518 765 418.015625 751.081054688 c 0,28,29
 290 734 290 734 194.946289062 544.51953125 c 1,30,-1
 186.471679688 544.6328125 l 2,31,32
 171 545 171 545 206.6875 667.01953125 c 0,33,34
 279 917 279 917 450.946289062 911.51953125 c 0,35,36
 581 908 581 908 736.015625 821.081054688 c 0,37,38
 912 723 912 723 1049.84570312 699.9140625 c 0,39,40
 1096 692 1096 692 1156.67578125 692.319335938 c 1,41,-1
 1133.35546875 562.579101562 l 1,42,43
 989 556 989 556 870 527.348632812 c 24,0,1
EndSplineSet
Substitution2: "'fina' Terminal Forms in Arabic lookup 9 subtable" uniFEA2
Substitution2: "'medi' Medial Forms in Arabic lookup 11 subtable" uniFEA4
Substitution2: "'init' Initial Forms in Arabic lookup 13 subtable" uniFEA3
EndChar

StartChar: uni062F
Encoding: 1583 1583 20
Width: 949
VWidth: 2285
GlyphClass: 2
Flags: W
AnchorPoint: "Anchor-10" 266.131 1143.75 basechar 0
AnchorPoint: "Anchor-7" 318.202 -246.157 basechar 0
LayerCount: 2
Fore
SplineSet
813.680664062 143.543945312 m 1,0,1
 664.970703125 -37.01953125 664.970703125 -37.01953125 354.359375 -28.69921875 c 0,2,3
 335.345703125 -28.2470703125 335.345703125 -28.2470703125 316.728515625 -27.123046875 c 0,4,5
 91.2275390625 -13.5087890625 91.2275390625 -13.5087890625 91.2275390625 178.825195312 c 2,6,-1
 91.2275390625 206.530273438 l 1,7,8
 211.73046875 155.141601562 211.73046875 155.141601562 364.958007812 152.560546875 c 0,9,10
 542.58984375 148.94921875 542.58984375 148.94921875 669.966796875 210.71484375 c 0,11,12
 738.260742188 244.165039062 738.260742188 244.165039062 729.327148438 291.474609375 c 0,13,14
 726.030273438 308.848632812 726.030273438 308.848632812 720.888671875 316.95703125 c 2,15,-1
 576.359375 544.903320312 l 2,16,17
 423.336914062 786.244140625 423.336914062 786.244140625 561.51953125 859.615234375 c 2,18,-1
 581.526367188 870.23828125 l 1,19,-1
 829.0390625 383.344726562 l 1,20,21
 864.494140625 310.3203125 864.494140625 310.3203125 857.178710938 248.501953125 c 128,-1,22
 849.86328125 186.68359375 849.86328125 186.68359375 813.680664062 143.543945312 c 1,0,1
EndSplineSet
Substitution2: "'fina' Terminal Forms in Arabic lookup 9 subtable" uniFEAA
EndChar

StartChar: uni0631
Encoding: 1585 1585 22
Width: 874
VWidth: 2314
GlyphClass: 2
Flags: W
AnchorPoint: "Anchor-7" 534.396 -671.687 basechar 0
AnchorPoint: "Anchor-10" 447.274 996.234 basechar 0
LayerCount: 2
Fore
SplineSet
765.573 58.1855 m 0,0,1
 685.494 -419.763 685.494 -419.763 288 -435 c 0,2,3
 132.651 -440.962 132.651 -440.962 5.31445 -321.4 c 1,4,5
 686.413 -244.851 686.413 -244.851 657.573 122.186 c 0,6,7
 653.573 173.185 653.573 173.185 609.717 281.783 c 0,8,9
 531.689 477.004 531.689 477.004 656.686 572.224 c 2,10,-1
 694.256 600.844 l 1,11,12
 805.097 294.257 805.097 294.257 765.573 58.1855 c 0,0,1
EndSplineSet
PairPos2: "'kern' Horizontal Kerning lookup 15-1" uniFB7C dx=-150 dy=0 dh=-150 dv=0 dx=0 dy=0 dh=0 dv=0
PairPos2: "'kern' Horizontal Kerning lookup 15-1" uniFB90 dx=-350 dy=0 dh=-350 dv=0 dx=0 dy=0 dh=0 dv=0
PairPos2: "'kern' Horizontal Kerning lookup 15-1" uniFB8E dx=-350 dy=0 dh=-350 dv=0 dx=0 dy=0 dh=0 dv=0
PairPos2: "'kern' Horizontal Kerning lookup 15-1" uni06A9 dx=-350 dy=0 dh=-350 dv=0 dx=0 dy=0 dh=0 dv=0
PairPos2: "'kern' Horizontal Kerning lookup 15-1" uni064A dx=-100 dy=0 dh=-100 dv=0 dx=0 dy=0 dh=0 dv=0
PairPos2: "'kern' Horizontal Kerning lookup 15-1" afii57414 dx=-100 dy=0 dh=-100 dv=0 dx=0 dy=0 dh=0 dv=0
PairPos2: "'kern' Horizontal Kerning lookup 15-1" uni0649 dx=-100 dy=0 dh=-100 dv=0 dx=0 dy=0 dh=0 dv=0
PairPos2: "'kern' Horizontal Kerning lookup 15-1" uni0648 dx=-80 dy=0 dh=-80 dv=0 dx=0 dy=0 dh=0 dv=0
PairPos2: "'kern' Horizontal Kerning lookup 15-1" afii57412 dx=-80 dy=0 dh=-80 dv=0 dx=0 dy=0 dh=0 dv=0
PairPos2: "'kern' Horizontal Kerning lookup 15-1" uniFEEB dx=-250 dy=0 dh=-250 dv=0 dx=0 dy=0 dh=0 dv=0
PairPos2: "'kern' Horizontal Kerning lookup 15-1" uni0647 dx=-250 dy=0 dh=-250 dv=0 dx=0 dy=0 dh=0 dv=0
PairPos2: "'kern' Horizontal Kerning lookup 15-1" uniFEE7 dx=-250 dy=0 dh=-250 dv=0 dx=0 dy=0 dh=0 dv=0
PairPos2: "'kern' Horizontal Kerning lookup 15-1" uni0646 dx=-100 dy=0 dh=-100 dv=0 dx=0 dy=0 dh=0 dv=0
PairPos2: "'kern' Horizontal Kerning lookup 15-1" uniFEE3 dx=-250 dy=0 dh=-250 dv=0 dx=0 dy=0 dh=0 dv=0
PairPos2: "'kern' Horizontal Kerning lookup 15-1" uni0645 dx=-250 dy=0 dh=-250 dv=0 dx=0 dy=0 dh=0 dv=0
PairPos2: "'kern' Horizontal Kerning lookup 15-1" uniFEFB dx=-250 dy=0 dh=-250 dv=0 dx=0 dy=0 dh=0 dv=0
PairPos2: "'kern' Horizontal Kerning lookup 15-1" uniFEDF dx=-250 dy=0 dh=-250 dv=0 dx=0 dy=0 dh=0 dv=0
PairPos2: "'kern' Horizontal Kerning lookup 15-1" uni0644 dx=-80 dy=0 dh=-80 dv=0 dx=0 dy=0 dh=0 dv=0
PairPos2: "'kern' Horizontal Kerning lookup 15-1" uniFEDB dx=-350 dy=0 dh=-350 dv=0 dx=0 dy=0 dh=0 dv=0
PairPos2: "'kern' Horizontal Kerning lookup 15-1" uni0643 dx=-250 dy=0 dh=-250 dv=0 dx=0 dy=0 dh=0 dv=0
PairPos2: "'kern' Horizontal Kerning lookup 15-1" uniFED7 dx=-250 dy=0 dh=-250 dv=0 dx=0 dy=0 dh=0 dv=0
PairPos2: "'kern' Horizontal Kerning lookup 15-1" uni0642 dx=-80 dy=0 dh=-80 dv=0 dx=0 dy=0 dh=0 dv=0
PairPos2: "'kern' Horizontal Kerning lookup 15-1" uniFED3 dx=-250 dy=0 dh=-250 dv=0 dx=0 dy=0 dh=0 dv=0
PairPos2: "'kern' Horizontal Kerning lookup 15-1" uni0641 dx=-250 dy=0 dh=-250 dv=0 dx=0 dy=0 dh=0 dv=0
PairPos2: "'kern' Horizontal Kerning lookup 15-1" uniFECF dx=-250 dy=0 dh=-250 dv=0 dx=0 dy=0 dh=0 dv=0
PairPos2: "'kern' Horizontal Kerning lookup 15-1" uniFECB dx=-250 dy=0 dh=-250 dv=0 dx=0 dy=0 dh=0 dv=0
PairPos2: "'kern' Horizontal Kerning lookup 15-1" uniFEC7 dx=-250 dy=0 dh=-250 dv=0 dx=0 dy=0 dh=0 dv=0
PairPos2: "'kern' Horizontal Kerning lookup 15-1" uni0638 dx=-250 dy=0 dh=-250 dv=0 dx=0 dy=0 dh=0 dv=0
PairPos2: "'kern' Horizontal Kerning lookup 15-1" uniFEC3 dx=-250 dy=0 dh=-250 dv=0 dx=0 dy=0 dh=0 dv=0
PairPos2: "'kern' Horizontal Kerning lookup 15-1" uni0637 dx=-250 dy=0 dh=-250 dv=0 dx=0 dy=0 dh=0 dv=0
PairPos2: "'kern' Horizontal Kerning lookup 15-1" uniFEBF dx=-250 dy=0 dh=-250 dv=0 dx=0 dy=0 dh=0 dv=0
PairPos2: "'kern' Horizontal Kerning lookup 15-1" uni0636 dx=-250 dy=0 dh=-250 dv=0 dx=0 dy=0 dh=0 dv=0
PairPos2: "'kern' Horizontal Kerning lookup 15-1" uniFEBB dx=-250 dy=0 dh=-250 dv=0 dx=0 dy=0 dh=0 dv=0
PairPos2: "'kern' Horizontal Kerning lookup 15-1" uni0635 dx=-250 dy=0 dh=-250 dv=0 dx=0 dy=0 dh=0 dv=0
PairPos2: "'kern' Horizontal Kerning lookup 15-1" uniFEB7 dx=-250 dy=0 dh=-250 dv=0 dx=0 dy=0 dh=0 dv=0
PairPos2: "'kern' Horizontal Kerning lookup 15-1" uni0634 dx=-250 dy=0 dh=-250 dv=0 dx=0 dy=0 dh=0 dv=0
PairPos2: "'kern' Horizontal Kerning lookup 15-1" uniFEB3 dx=-250 dy=0 dh=-250 dv=0 dx=0 dy=0 dh=0 dv=0
PairPos2: "'kern' Horizontal Kerning lookup 15-1" uni0633 dx=-250 dy=0 dh=-250 dv=0 dx=0 dy=0 dh=0 dv=0
PairPos2: "'kern' Horizontal Kerning lookup 15-1" uni0632 dx=-80 dy=0 dh=-80 dv=0 dx=0 dy=0 dh=0 dv=0
PairPos2: "'kern' Horizontal Kerning lookup 15-1" uni0631 dx=-80 dy=0 dh=-80 dv=0 dx=0 dy=0 dh=0 dv=0
PairPos2: "'kern' Horizontal Kerning lookup 15-1" uni0630 dx=-250 dy=0 dh=-250 dv=0 dx=0 dy=0 dh=0 dv=0
PairPos2: "'kern' Horizontal Kerning lookup 15-1" uni062F dx=-250 dy=0 dh=-250 dv=0 dx=0 dy=0 dh=0 dv=0
PairPos2: "'kern' Horizontal Kerning lookup 15-1" uniFEA7 dx=-250 dy=0 dh=-250 dv=0 dx=0 dy=0 dh=0 dv=0
PairPos2: "'kern' Horizontal Kerning lookup 15-1" uniFEA3 dx=-250 dy=0 dh=-250 dv=0 dx=0 dy=0 dh=0 dv=0
PairPos2: "'kern' Horizontal Kerning lookup 15-1" uniFE9F dx=-250 dy=0 dh=-250 dv=0 dx=0 dy=0 dh=0 dv=0
PairPos2: "'kern' Horizontal Kerning lookup 15-1" uniFE9B dx=-250 dy=0 dh=-250 dv=0 dx=0 dy=0 dh=0 dv=0
PairPos2: "'kern' Horizontal Kerning lookup 15-1" uni062B dx=-250 dy=0 dh=-250 dv=0 dx=0 dy=0 dh=0 dv=0
PairPos2: "'kern' Horizontal Kerning lookup 15-1" uniFE97 dx=-250 dy=0 dh=-250 dv=0 dx=0 dy=0 dh=0 dv=0
PairPos2: "'kern' Horizontal Kerning lookup 15-1" uni062A dx=-250 dy=0 dh=-250 dv=0 dx=0 dy=0 dh=0 dv=0
PairPos2: "'kern' Horizontal Kerning lookup 15-1" uni0629 dx=-250 dy=0 dh=-250 dv=0 dx=0 dy=0 dh=0 dv=0
PairPos2: "'kern' Horizontal Kerning lookup 15-1" uniFE91 dx=-50 dy=0 dh=-50 dv=0 dx=0 dy=0 dh=0 dv=0
PairPos2: "'kern' Horizontal Kerning lookup 15-1" uni0628 dx=-250 dy=0 dh=-250 dv=0 dx=0 dy=0 dh=0 dv=0
PairPos2: "'kern' Horizontal Kerning lookup 15-1" uni0627 dx=-250 dy=0 dh=-250 dv=0 dx=0 dy=0 dh=0 dv=0
PairPos2: "'kern' Horizontal Kerning lookup 15-1" uni0623 dx=-250 dy=0 dh=-250 dv=0 dx=0 dy=0 dh=0 dv=0
PairPos2: "'kern' Horizontal Kerning lookup 15-1" uni0622 dx=-250 dy=0 dh=-250 dv=0 dx=0 dy=0 dh=0 dv=0
PairPos2: "'kern' Horizontal Kerning lookup 15-1" uni0621 dx=-250 dy=0 dh=-250 dv=0 dx=0 dy=0 dh=0 dv=0
PairPos2: "'kern' Horizontal Kerning lookup 15-1" uniFB94 dx=-350 dy=0 dh=-350 dv=0 dx=0 dy=0 dh=0 dv=0
PairPos2: "'kern' Horizontal Kerning lookup 15-1" uniFB92 dx=-350 dy=0 dh=-350 dv=0 dx=0 dy=0 dh=0 dv=0
PairPos2: "'kern' Horizontal Kerning lookup 15-1" afii57509 dx=-350 dy=0 dh=-350 dv=0 dx=0 dy=0 dh=0 dv=0
PairPos2: "'kern' Horizontal Kerning lookup 15-1" afii57508 dx=-80 dy=0 dh=-80 dv=0 dx=0 dy=0 dh=0 dv=0
PairPos2: "'kern' Horizontal Kerning lookup 15-1" afii57506 dx=-250 dy=0 dh=-250 dv=0 dx=0 dy=0 dh=0 dv=0
PairPos2: "'kern' Horizontal Kerning lookup 15-1" afii57440 dx=-250 dy=0 dh=-250 dv=0 dx=0 dy=0 dh=0 dv=0
PairPos2: "'kern' Horizontal Kerning lookup 15-1" uniFE8B dx=-250 dy=0 dh=-250 dv=0 dx=0 dy=0 dh=0 dv=0
Substitution2: "'fina' Terminal Forms in Arabic lookup 9 subtable" uniFEAE
EndChar

StartChar: uni0633
Encoding: 1587 1587 24
Width: 2253
VWidth: 2316
GlyphClass: 2
Flags: W
AnchorPoint: "Anchor-7" 296.459 -710.369 basechar 0
AnchorPoint: "Anchor-10" 499.989 890.793 basechar 0
LayerCount: 2
Fore
SplineSet
1865.58007812 -0.4423828125 m 24,0,1
 1804 -1 1804 -1 1769.59 15.4873 c 0,2,3
 1674 62 1674 62 1636.24 169.546 c 1,4,5
 1577 -1 1577 -1 1426.25 -0.966797 c 2,6,-1
 1411.75 -0.966796875 l 2,7,8
 1300 -1 1300 -1 1259.046875 63 c 1,9,10
 1261 -37 1261 -37 1242.83007812 -111 c 0,11,12
 1148 -496 1148 -496 648.083984375 -505.362304688 c 0,13,14
 327 -511 327 -511 173.271484375 -311.94140625 c 0,15,16
 53 -155 53 -155 106 106 c 0,17,18
 125.358759212 201.180566126 125.358759212 201.180566126 176.451171875 312.032226562 c 0,19,20
 203 369 203 369 236.5 359.5 c 128,-1,21
 270 350 270 350 246.134765625 285 c 0,22,23
 167 67 167 67 218.177734375 -101.3046875 c 0,24,25
 290 -337 290 -337 643.8515625 -335.803710938 c 0,26,27
 1124 -334 1124 -334 1152.83007812 -13.96875 c 0,28,29
 1161 78 1161 78 1095.04980469 238.874023438 c 0,30,31
 991.930746266 493.170783173 991.930746266 493.170783173 1134.73046875 530.314453125 c 2,32,-1
 1167.33007812 538.793945312 l 1,33,34
 1192 409 1192 409 1238.91894531 270 c 24,35,36
 1273.84919765 167.442764392 1273.84919765 167.442764392 1391.45 169.392 c 2,37,-1
 1429.64 170.025 l 1,38,39
 1542.8295363 169.001541331 1542.8295363 169.001541331 1579.04 322.568 c 2,40,-1
 1593.06 382.026 l 2,41,42
 1621.94887751 505.781 1621.94887751 505.781 1704.36 505.781 c 2,43,-1
 1716.52 505.781 l 1,44,-1
 1710.52 436.174 l 2,45,46
 1689 185 1689 185 1882.25 179.545898438 c 0,47,48
 2006 176 2006 176 2034.08984375 259.2265625 c 0,49,50
 2051 309 2051 309 2022.5 386.5 c 128,-1,51
 1994 464 1994 464 1974.93945312 531.915039062 c 0,52,53
 1935.07694426 674.724343591 1935.07694426 674.724343591 2073.1796875 740.733398438 c 2,54,-1
 2088.54003906 748.075195312 l 1,55,56
 2151 560 2151 560 2161.5 385 c 128,-1,57
 2172 210 2172 210 2082 105.5 c 128,-1,58
 1992 1 1992 1 1865.58007812 -0.4423828125 c 24,0,1
EndSplineSet
Substitution2: "'fina' Terminal Forms in Arabic lookup 9 subtable" uniFEB2
Substitution2: "'medi' Medial Forms in Arabic lookup 11 subtable" uniFEB4
Substitution2: "'init' Initial Forms in Arabic lookup 13 subtable" uniFEB3
EndChar

StartChar: uni0635
Encoding: 1589 1589 26
Width: 2397
VWidth: 2291
GlyphClass: 2
Flags: W
AnchorPoint: "Anchor-10" 388.398 892.124 basechar 0
AnchorPoint: "Anchor-7" 351.298 -748.756 basechar 0
LayerCount: 2
Fore
SplineSet
1497.78027344 179.098632812 m 1,0,-1
 1687.28222656 179.098632812 l 2,1,2
 1838 179 1838 179 1912.38085938 191.146484375 c 0,3,4
 2206 238 2206 238 2187.58691406 398.890625 c 0,5,6
 2167.84350055 563.303243929 2167.84350055 563.303243929 1995.58691406 545.890625 c 0,7,8
 1879.62509896 533.751388107 1879.62509896 533.751388107 1739.31254948 419.375694053 c 128,-1,9
 1599 305 1599 305 1497.78027344 179.098632812 c 1,0,-1
1259.046875 63 m 1,10,11
 1261 -37 1261 -37 1242.83007812 -111 c 0,12,13
 1148 -496 1148 -496 648.083984375 -505.362304688 c 0,14,15
 327 -511 327 -511 173.271484375 -311.94140625 c 0,16,17
 53 -155 53 -155 106 106 c 0,18,19
 125.358759212 201.180566126 125.358759212 201.180566126 176.451171875 312.032226562 c 0,20,21
 203 369 203 369 236.5 359.5 c 128,-1,22
 270 350 270 350 246.134765625 285 c 0,23,24
 167 67 167 67 218.177734375 -101.3046875 c 0,25,26
 290 -337 290 -337 643.8515625 -335.803710938 c 0,27,28
 1124 -334 1124 -334 1152.83007812 -13.96875 c 0,29,30
 1161 78 1161 78 1095.04980469 238.874023438 c 0,31,32
 992 493 992 493 1134.73046875 530.314453125 c 2,33,-1
 1167.33007812 538.793945312 l 1,34,35
 1183 411 1183 411 1240.91894531 270 c 16,36,37
 1267 207 1267 207 1366.99609375 224.841796875 c 1,38,39
 1491 375 1491 375 1642.94726562 511.403320312 c 0,40,41
 1855 702 1855 702 2029.97070312 704.427734375 c 0,42,43
 2269 707 2269 707 2306.89746094 433.46484375 c 0,44,45
 2337 217 2337 217 2115.78710938 83.6474609375 c 0,46,47
 1974.50747105 -1.29613027459 1974.50747105 -1.29613027459 1748.53222656 -0.7109375 c 2,48,-1
 1474 0 l 2,49,50
 1302.69049422 0.44362861617 1302.69049422 0.44362861617 1259.046875 63 c 1,10,11
EndSplineSet
Substitution2: "'fina' Terminal Forms in Arabic lookup 9 subtable" uniFEBA
Substitution2: "'medi' Medial Forms in Arabic lookup 11 subtable" uniFEBC
Substitution2: "'init' Initial Forms in Arabic lookup 13 subtable" uniFEBB
EndChar

StartChar: uni0637
Encoding: 1591 1591 28
Width: 1414
VWidth: 2291
GlyphClass: 2
Flags: W
AnchorPoint: "Anchor-10" 286.828 1566.61 basechar 0
AnchorPoint: "Anchor-7" 734.148 -317.606 basechar 0
LayerCount: 2
Fore
SplineSet
513.833007812 179.6953125 m 5,0,-1
 703.334960938 179.6953125 l 6,1,2
 855.583007812 180.015625 855.583007812 180.015625 928.43359375 191.743164062 c 4,3,4
 1222 239 1222 239 1203.63964844 399.487304688 c 4,5,6
 1184 563 1184 563 1011.63964844 546.487304688 c 4,7,8
 898 535 898 535 733 402 c 4,9,10
 615 306 615 306 513.833007812 179.6953125 c 5,0,-1
383.048828125 225.438476562 m 5,11,12
 507 376 507 376 659 512 c 4,13,14
 871 703 871 703 1046.0234375 705.024414062 c 4,15,16
 1285 708 1285 708 1322.95019531 434.061523438 c 4,17,18
 1353 218 1353 218 1131.83984375 84.244140625 c 4,19,20
 991.4921875 -0.7021484375 991.4921875 -0.7021484375 764.584960938 -0.1142578125 c 6,21,-1
 490.052734375 0.5966796875 l 6,22,-1
 343.696289062 0.1416015625 l 2,23,24
 80.6962890625 -1.0009765625 80.6962890625 -1.0009765625 80.6962890625 164 c 2,25,-1
 80.6962890625 178.958007812 l 1,26,-1
 287.421875 178.9921875 l 1,27,-1
 223.336914062 1110.66992188 l 2,28,29
 204.984375 1371.21582031 204.984375 1371.21582031 363.794921875 1458.09960938 c 2,30,-1
 383.754882812 1469.01953125 l 1,31,-1
 383.048828125 225.438476562 l 5,11,12
EndSplineSet
Substitution2: "'fina' Terminal Forms in Arabic lookup 9 subtable" uniFEC2
Substitution2: "'medi' Medial Forms in Arabic lookup 11 subtable" uniFEC4
Substitution2: "'init' Initial Forms in Arabic lookup 13 subtable" uniFEC3
EndChar

StartChar: uni0639
Encoding: 1593 1593 30
Width: 1314
VWidth: 2291
GlyphClass: 2
Flags: W
AnchorPoint: "Anchor-10" 483.969 1482.94 basechar 0
AnchorPoint: "Anchor-7" 237.953 -785.751 basechar 0
LayerCount: 2
Fore
SplineSet
1223 -457 m 1,0,1
 1175 -569 1175 -569 1057.87078486 -629.123340179 c 0,2,3
 940 -689 940 -689 719.553328591 -689.06414084 c 0,4,5
 353 -689 353 -689 195.377705777 -504.936188163 c 0,6,7
 92 -384 92 -384 91.755411555 -196.313699288 c 0,8,9
 92 78 92 78 267.993984828 271.312167358 c 0,10,11
 354 365 354 365 451 420 c 1,12,13
 363 461 363 461 292.5 552.5 c 128,-1,14
 222 644 222 644 229.5 751.5 c 128,-1,15
 237 859 237 859 296 934 c 0,16,17
 414 1086 414 1086 608.649414062 1086.21679688 c 0,18,19
 753.46775398 1086.01852692 753.46775398 1086.01852692 819.333984375 1002.46386719 c 0,20,21
 869 943 869 943 872 850 c 1,22,23
 783 935 783 935 649 935 c 128,-1,24
 515 935 515 935 445 874.5 c 128,-1,25
 375 814 375 814 376.113939539 722.149173695 c 0,26,27
 377 608 377 608 542 487 c 1,28,29
 621 517 621 517 750.5 538 c 128,-1,30
 880 559 880 559 938.292031315 558.995473422 c 0,31,32
 1022 559 1022 559 1033.57128906 498.984375 c 2,33,-1
 1049.73144531 415.08984375 l 1,34,35
 759 414 759 414 599 342.5 c 128,-1,36
 439 271 439 271 371 189.5 c 0,37,38
 252 48 252 48 235.5 -82 c 128,-1,39
 219 -212 219 -212 249 -285 c 0,40,41
 344 -517 344 -517 803.839393049 -517.074959719 c 0,42,43
 1010 -517 1010 -517 1223 -457 c 1,0,1
EndSplineSet
Substitution2: "'fina' Terminal Forms in Arabic lookup 9 subtable" uniFECA
Substitution2: "'medi' Medial Forms in Arabic lookup 11 subtable" uniFECC
Substitution2: "'init' Initial Forms in Arabic lookup 13 subtable" uniFECB
EndChar

StartChar: afii57440
Encoding: 1600 1600 32
Width: 661
VWidth: 2306
GlyphClass: 2
Flags: W
AnchorPoint: "Anchor-10" 321 1345.9 basechar 0
AnchorPoint: "Anchor-7" 321 -128.56 basechar 0
LayerCount: 2
Fore
SplineSet
-22.8643 -5.06934 m 1,0,-1
 -22.8643 174.049 l 1,1,-1
 664.864 174.049 l 1,2,-1
 664.864 -5.06934 l 1,3,-1
 -22.8643 -5.06934 l 1,0,-1
EndSplineSet
EndChar

StartChar: uni0643
Encoding: 1603 1603 35
Width: 1851
VWidth: 2267
GlyphClass: 2
Flags: W
AnchorPoint: "Anchor-10" 558.028 1433.98 basechar 0
AnchorPoint: "Anchor-7" 502.908 -281.096 basechar 0
LayerCount: 2
Fore
SplineSet
963.262695312 178.171875 m 17,0,1
 1086 177 1086 177 1187.37 185.92 c 0,2,3
 1591 221 1591 221 1606.69 413.472 c 0,4,-1
 1610.84 461.896 l 2,5,-1
 1565.04 1157.53 l 2,6,7
 1549.93401465 1386.96748937 1549.93401465 1386.96748937 1704.68 1463.21 c 2,8,-1
 1720.72 1471.09 l 1,9,-1
 1720.72 430.096 l 2,10,11
 1720.72 392.047181818 1720.72 392.047181818 1717.92 372.519 c 0,12,13
 1708 292 1708 292 1700 269 c 0,14,15
 1674 195 1674 195 1592 137 c 0,16,17
 1478 55 1478 55 1326.4 29.0654 c 0,18,19
 1152 -1 1152 -1 929.564453125 -0.6484375 c 24,20,21
 691 -1 691 -1 619 3.748046875 c 0,22,23
 380 20 380 20 270 90 c 0,24,25
 91 205 91 205 93 452 c 0,26,27
 94 570 94 570 129 652 c 0,28,29
 149 698 149 698 174.5 695 c 0,30,31
 205 691 205 691 192.004882812 628 c 0,32,33
 188 607 188 607 184.762695312 575 c 0,34,35
 178 511 178 511 181.478515625 473.573242188 c 0,36,37
 204 231 204 231 549.649414062 193.732421875 c 0,38,39
 675 180 675 180 963.262695312 178.171875 c 17,0,1
1096.88 1250.8 m 1,40,-1
 1096.88 1195.74 l 1,41,42
 1023.01 1190.3 1023.01 1190.3 982.232 1175.27 c 0,43,44
 879.111 1136.61 879.111 1136.61 879.111 1085.96 c 0,45,46
 879.111 1047.65 879.111 1047.65 898.906 1022.2 c 0,47,48
 917.13 997.901 917.13 997.901 1002.03 985.414 c 0,49,50
 1054.39 977.715 1054.39 977.715 1080.82 953.577 c 0,51,52
 1106.71 929.925 1106.71 929.925 1106.71 887.469 c 0,53,54
 1106.71 785.604 1106.71 785.604 1012.15 732.129 c 0,55,56
 939.15 690.846 939.15 690.846 839.212 689.918 c 0,57,58
 775.678 689.918 775.678 689.918 719.919 699.231 c 1,59,-1
 719.919 761.19 l 1,60,61
 784.323 752.701 784.323 752.701 829.004 752.701 c 0,62,63
 908.301 752.701 908.301 752.701 959.426 772.828 c 0,64,65
 1048.84 807.168 1048.84 807.168 1048.84 864.785 c 0,66,67
 1048.84 928.954 1048.84 928.954 945.027 945.87 c 0,68,69
 884.822 955.044 884.822 955.044 852.226 988.381 c 128,-1,70
 819.548 1021.8 819.548 1021.8 820.857 1082.09 c 0,71,72
 822.848 1162.55 822.848 1162.55 897.73 1200.5 c 0,73,74
 982.854 1243.57 982.854 1243.57 1096.88 1250.8 c 1,40,-1
EndSplineSet
Substitution2: "'fina' Terminal Forms in Arabic lookup 9 subtable" uniFEDA
Substitution2: "'medi' Medial Forms in Arabic lookup 11 subtable" uniFEDC
Substitution2: "'init' Initial Forms in Arabic lookup 13 subtable" uniFEDB
EndChar

StartChar: uni0644
Encoding: 1604 1604 36
Width: 1300
VWidth: 2279
GlyphClass: 2
Flags: W
AnchorPoint: "Anchor-10" 477.887 1008.06 basechar 0
AnchorPoint: "Anchor-7" 331.854 -595.884 basechar 0
LayerCount: 2
Fore
SplineSet
1166.90039062 12.7197265625 m 28,0,1
 1118 -462 1118 -462 613.325195312 -484 c 4,2,3
 280 -499 280 -499 142.396484375 -302.689453125 c 4,4,5
 35 -150 35 -150 92 106 c 4,6,7
 117 218 117 218 148 292 c 4,8,9
 186 385 186 385 223 377.87109375 c 4,10,11
 253 372 253 372 231.385742188 312 c 4,12,13
 136 33 136 33 215.874023438 -123.424804688 c 4,14,15
 309 -307 309 -307 562.120117188 -312.170898438 c 4,16,17
 1056 -321 1056 -321 1076.09960938 3.1904296875 c 28,18,19
 1080 67 1080 67 1080.33007812 78.7958984375 c 5,20,21
 1082.97091601 102.736339905 1082.97091601 102.736339905 1077.83984375 175.489257812 c 6,22,-1
 1014.6796875 1071.03027344 l 2,23,24
 993.034158218 1374.52106947 993.034158218 1374.52106947 1142.61035156 1452.44042969 c 2,25,-1
 1169.83007812 1466.62011719 l 1,26,-1
 1169.83007812 399.48828125 l 6,27,28
 1170 33 1170 33 1166.90039062 12.7197265625 c 28,0,1
EndSplineSet
Substitution2: "'fina' Terminal Forms in Arabic lookup 9 subtable" uniFEDE
Substitution2: "'medi' Medial Forms in Arabic lookup 11 subtable" uniFEE0
Substitution2: "'init' Initial Forms in Arabic lookup 13 subtable" uniFEDF
EndChar

StartChar: uni0645
Encoding: 1605 1605 37
Width: 1113
VWidth: 2308
GlyphClass: 2
Flags: W
AnchorPoint: "Anchor-10" 599.117 1063.54 basechar 0
AnchorPoint: "Anchor-7" 161.476 -681.894 basechar 0
LayerCount: 2
Fore
SplineSet
689.747070312 350.034179688 m 4,0,1
 778.396484375 348.991210938 778.396484375 348.991210938 807 357 c 4,2,3
 845 367 845 367 867.059570312 422.40234375 c 4,4,5
 918 546 918 546 697.48828125 641.76171875 c 4,6,7
 578.47265625 693.534179688 578.47265625 693.534179688 513.994140625 608.533203125 c 28,8,9
 458 534 458 534 472 361 c 5,10,11
 529 353 529 353 689.747070312 350.034179688 c 4,0,1
420.506835938 192.095703125 m 4,12,13
 270.556640625 192.095703125 270.556640625 192.095703125 229.7890625 112.326171875 c 4,14,15
 188.255859375 30.642578125 188.255859375 30.642578125 204.349609375 -99.673828125 c 6,16,-1
 230.44140625 -310.944335938 l 6,17,18
 255.359375 -512.705078125 255.359375 -512.705078125 119.548828125 -589.911132812 c 6,19,-1
 91.9072265625 -605.625 l 5,20,-1
 91.9072265625 -50.64453125 l 6,21,22
 91.9072265625 110.48046875 91.9072265625 110.48046875 145.771484375 213 c 4,23,24
 194.624023438 305.983398438 194.624023438 305.983398438 333.4296875 329.97265625 c 6,25,-1
 338.051757812 330.771484375 l 5,26,-1
 337.8203125 335.45703125 l 6,27,28
 325.026367188 594.470703125 325.026367188 594.470703125 446.533203125 726.491210938 c 4,29,30
 588.036132812 878.943359375 588.036132812 878.943359375 808.549804688 734.685546875 c 28,31,32
 1056.34960938 571.458984375 1056.34960938 571.458984375 1021.1796875 436.955078125 c 4,33,34
 970.275390625 236.557617188 970.275390625 236.557617188 907.133789062 208.522460938 c 4,35,36
 846.361328125 180.447265625 846.361328125 180.447265625 718.544921875 185.732421875 c 4,37,38
 528.750976562 192.095703125 528.750976562 192.095703125 420.506835938 192.095703125 c 4,12,13
EndSplineSet
Substitution2: "'init' Initial Forms in Arabic lookup 13 subtable" uniFEE3
Substitution2: "'medi' Medial Forms in Arabic lookup 11 subtable" uniFEE4
Substitution2: "'fina' Terminal Forms in Arabic lookup 9 subtable" uniFEE2
EndChar

StartChar: uni0647
Encoding: 1607 1607 39
Width: 796
VWidth: 2286
GlyphClass: 2
Flags: W
AnchorPoint: "Anchor-10" 369.637 1111.82 basechar 0
AnchorPoint: "Anchor-7" 261.113 -209.192 basechar 0
LayerCount: 2
Fore
SplineSet
214.418945312 346.216796875 m 0,0,1
 181.5625 218.284179688 181.5625 218.284179688 307.0390625 175.228515625 c 0,2,3
 396.938476562 143.739257812 396.938476562 143.739257812 488.744140625 171.672851562 c 0,4,5
 636.21484375 217.692382812 636.21484375 217.692382812 572.237304688 379.543945312 c 0,6,7
 523.626953125 503.81640625 523.626953125 503.81640625 396.104492188 618.181640625 c 1,8,9
 242.588867188 452.896484375 242.588867188 452.896484375 214.418945312 346.216796875 c 0,0,1
143.057617188 467.54296875 m 24,10,11
 203 590 203 590 345.623046875 724.01953125 c 1,12,-1
 337.905273438 731.262695312 l 2,13,14
 311.662109375 756.323242188 311.662109375 756.323242188 358.9375 855.071289062 c 2,15,-1
 362.985351562 863.526367188 l 1,16,17
 619 620 619 620 683.564453125 428.240234375 c 0,18,19
 762 197 762 197 621.498046875 66.4248046875 c 0,20,21
 551 1 551 1 408.282226562 2.626953125 c 0,22,23
 266 4 266 4 205.213867188 44.123046875 c 0,24,25
 107 107 107 107 90.96875 201.705078125 c 0,26,27
 71 320 71 320 143.057617188 467.54296875 c 24,10,11
EndSplineSet
Substitution2: "'fina' Terminal Forms in Arabic lookup 9 subtable" uniFEEA
Substitution2: "'medi' Medial Forms in Arabic lookup 11 subtable" uniFEEC
Substitution2: "'init' Initial Forms in Arabic lookup 13 subtable" uniFEEB
EndChar

StartChar: uni0648
Encoding: 1608 1608 40
Width: 857
VWidth: 2307
GlyphClass: 2
Flags: W
AnchorPoint: "Anchor-10" 414.024 1090.03 basechar 0
AnchorPoint: "Anchor-7" 335.608 -669.098 basechar 0
LayerCount: 2
Fore
SplineSet
484.393554688 489.654296875 m 4,0,1
 378 488 378 488 334 311 c 4,2,3
 297.907206228 171.047343564 297.907206228 171.047343564 489.659 162.74 c 4,4,5
 516.373293576 161.745864548 516.373293576 161.745864548 649.685 165.845 c 5,6,7
 645.648393113 310.609663009 645.648393113 310.609663009 610 396 c 4,8,9
 570.009897415 491.790245727 570.009897415 491.790245727 484.393554688 489.654296875 c 4,0,1
753.31640625 -0.044921875 m 4,10,11
 662 -421 662 -421 288 -435 c 0,12,13
 133 -441 133 -441 5.31445 -321.4 c 1,14,15
 571 -262 571 -262 645.941 2.06445 c 5,16,17
 565 2 565 2 483.299 0.84082 c 4,18,19
 305 -2 305 -2 235 113 c 4,20,21
 187 191 187 191 210 306 c 4,22,23
 249 502 249 502 363 594 c 4,24,25
 435 652 435 652 520.138671875 646.000976562 c 4,26,27
 615 640 615 640 663 581 c 4,28,29
 714 518 714 518 741 432 c 4,30,31
 804 233 804 233 753.31640625 -0.044921875 c 4,10,11
EndSplineSet
PairPos2: "'kern' Horizontal Kerning lookup 15-1" uniFB90 dx=-150 dy=0 dh=-150 dv=0 dx=0 dy=0 dh=0 dv=0
PairPos2: "'kern' Horizontal Kerning lookup 15-1" uniFB8E dx=-150 dy=0 dh=-150 dv=0 dx=0 dy=0 dh=0 dv=0
PairPos2: "'kern' Horizontal Kerning lookup 15-1" uni06A9 dx=-150 dy=0 dh=-150 dv=0 dx=0 dy=0 dh=0 dv=0
PairPos2: "'kern' Horizontal Kerning lookup 15-1" uni064A dx=-50 dy=0 dh=-50 dv=0 dx=0 dy=0 dh=0 dv=0
PairPos2: "'kern' Horizontal Kerning lookup 15-1" afii57414 dx=-50 dy=0 dh=-50 dv=0 dx=0 dy=0 dh=0 dv=0
PairPos2: "'kern' Horizontal Kerning lookup 15-1" uni0649 dx=-50 dy=0 dh=-50 dv=0 dx=0 dy=0 dh=0 dv=0
PairPos2: "'kern' Horizontal Kerning lookup 15-1" uni0648 dx=-50 dy=0 dh=-50 dv=0 dx=0 dy=0 dh=0 dv=0
PairPos2: "'kern' Horizontal Kerning lookup 15-1" afii57412 dx=-50 dy=0 dh=-50 dv=0 dx=0 dy=0 dh=0 dv=0
PairPos2: "'kern' Horizontal Kerning lookup 15-1" uniFEEB dx=-50 dy=0 dh=-50 dv=0 dx=0 dy=0 dh=0 dv=0
PairPos2: "'kern' Horizontal Kerning lookup 15-1" uni0647 dx=-50 dy=0 dh=-50 dv=0 dx=0 dy=0 dh=0 dv=0
PairPos2: "'kern' Horizontal Kerning lookup 15-1" uniFEE7 dx=-50 dy=0 dh=-50 dv=0 dx=0 dy=0 dh=0 dv=0
PairPos2: "'kern' Horizontal Kerning lookup 15-1" uni0646 dx=-50 dy=0 dh=-50 dv=0 dx=0 dy=0 dh=0 dv=0
PairPos2: "'kern' Horizontal Kerning lookup 15-1" uniFEE3 dx=-50 dy=0 dh=-50 dv=0 dx=0 dy=0 dh=0 dv=0
PairPos2: "'kern' Horizontal Kerning lookup 15-1" uni0645 dx=-50 dy=0 dh=-50 dv=0 dx=0 dy=0 dh=0 dv=0
PairPos2: "'kern' Horizontal Kerning lookup 15-1" uniFEFB dx=-50 dy=0 dh=-50 dv=0 dx=0 dy=0 dh=0 dv=0
PairPos2: "'kern' Horizontal Kerning lookup 15-1" uniFEDF dx=-50 dy=0 dh=-50 dv=0 dx=0 dy=0 dh=0 dv=0
PairPos2: "'kern' Horizontal Kerning lookup 15-1" uni0644 dx=-50 dy=0 dh=-50 dv=0 dx=0 dy=0 dh=0 dv=0
PairPos2: "'kern' Horizontal Kerning lookup 15-1" uniFEDB dx=-150 dy=0 dh=-150 dv=0 dx=0 dy=0 dh=0 dv=0
PairPos2: "'kern' Horizontal Kerning lookup 15-1" uni0643 dx=-50 dy=0 dh=-50 dv=0 dx=0 dy=0 dh=0 dv=0
PairPos2: "'kern' Horizontal Kerning lookup 15-1" uniFED7 dx=-50 dy=0 dh=-50 dv=0 dx=0 dy=0 dh=0 dv=0
PairPos2: "'kern' Horizontal Kerning lookup 15-1" uni0642 dx=-50 dy=0 dh=-50 dv=0 dx=0 dy=0 dh=0 dv=0
PairPos2: "'kern' Horizontal Kerning lookup 15-1" uniFED3 dx=-50 dy=0 dh=-50 dv=0 dx=0 dy=0 dh=0 dv=0
PairPos2: "'kern' Horizontal Kerning lookup 15-1" uni0641 dx=-50 dy=0 dh=-50 dv=0 dx=0 dy=0 dh=0 dv=0
PairPos2: "'kern' Horizontal Kerning lookup 15-1" uniFECF dx=-50 dy=0 dh=-50 dv=0 dx=0 dy=0 dh=0 dv=0
PairPos2: "'kern' Horizontal Kerning lookup 15-1" uniFECB dx=-50 dy=0 dh=-50 dv=0 dx=0 dy=0 dh=0 dv=0
PairPos2: "'kern' Horizontal Kerning lookup 15-1" uniFEC7 dx=-50 dy=0 dh=-50 dv=0 dx=0 dy=0 dh=0 dv=0
PairPos2: "'kern' Horizontal Kerning lookup 15-1" uni0638 dx=-50 dy=0 dh=-50 dv=0 dx=0 dy=0 dh=0 dv=0
PairPos2: "'kern' Horizontal Kerning lookup 15-1" uniFEC3 dx=-50 dy=0 dh=-50 dv=0 dx=0 dy=0 dh=0 dv=0
PairPos2: "'kern' Horizontal Kerning lookup 15-1" uni0637 dx=-50 dy=0 dh=-50 dv=0 dx=0 dy=0 dh=0 dv=0
PairPos2: "'kern' Horizontal Kerning lookup 15-1" uniFEBF dx=-50 dy=0 dh=-50 dv=0 dx=0 dy=0 dh=0 dv=0
PairPos2: "'kern' Horizontal Kerning lookup 15-1" uni0636 dx=-50 dy=0 dh=-50 dv=0 dx=0 dy=0 dh=0 dv=0
PairPos2: "'kern' Horizontal Kerning lookup 15-1" uniFEBB dx=-50 dy=0 dh=-50 dv=0 dx=0 dy=0 dh=0 dv=0
PairPos2: "'kern' Horizontal Kerning lookup 15-1" uni0635 dx=-50 dy=0 dh=-50 dv=0 dx=0 dy=0 dh=0 dv=0
PairPos2: "'kern' Horizontal Kerning lookup 15-1" uniFEB7 dx=-50 dy=0 dh=-50 dv=0 dx=0 dy=0 dh=0 dv=0
PairPos2: "'kern' Horizontal Kerning lookup 15-1" uni0634 dx=-50 dy=0 dh=-50 dv=0 dx=0 dy=0 dh=0 dv=0
PairPos2: "'kern' Horizontal Kerning lookup 15-1" uniFEB3 dx=-50 dy=0 dh=-50 dv=0 dx=0 dy=0 dh=0 dv=0
PairPos2: "'kern' Horizontal Kerning lookup 15-1" uni0633 dx=-50 dy=0 dh=-50 dv=0 dx=0 dy=0 dh=0 dv=0
PairPos2: "'kern' Horizontal Kerning lookup 15-1" uni0632 dx=-50 dy=0 dh=-50 dv=0 dx=0 dy=0 dh=0 dv=0
PairPos2: "'kern' Horizontal Kerning lookup 15-1" uni0631 dx=-50 dy=0 dh=-50 dv=0 dx=0 dy=0 dh=0 dv=0
PairPos2: "'kern' Horizontal Kerning lookup 15-1" uni0630 dx=-50 dy=0 dh=-50 dv=0 dx=0 dy=0 dh=0 dv=0
PairPos2: "'kern' Horizontal Kerning lookup 15-1" uni062F dx=-50 dy=0 dh=-50 dv=0 dx=0 dy=0 dh=0 dv=0
PairPos2: "'kern' Horizontal Kerning lookup 15-1" uniFEA7 dx=-50 dy=0 dh=-50 dv=0 dx=0 dy=0 dh=0 dv=0
PairPos2: "'kern' Horizontal Kerning lookup 15-1" uniFEA3 dx=-50 dy=0 dh=-50 dv=0 dx=0 dy=0 dh=0 dv=0
PairPos2: "'kern' Horizontal Kerning lookup 15-1" uniFE9F dx=-50 dy=0 dh=-50 dv=0 dx=0 dy=0 dh=0 dv=0
PairPos2: "'kern' Horizontal Kerning lookup 15-1" uniFE9B dx=-50 dy=0 dh=-50 dv=0 dx=0 dy=0 dh=0 dv=0
PairPos2: "'kern' Horizontal Kerning lookup 15-1" uni062B dx=-50 dy=0 dh=-50 dv=0 dx=0 dy=0 dh=0 dv=0
PairPos2: "'kern' Horizontal Kerning lookup 15-1" uniFE97 dx=-50 dy=0 dh=-50 dv=0 dx=0 dy=0 dh=0 dv=0
PairPos2: "'kern' Horizontal Kerning lookup 15-1" uni062A dx=-50 dy=0 dh=-50 dv=0 dx=0 dy=0 dh=0 dv=0
PairPos2: "'kern' Horizontal Kerning lookup 15-1" uni0629 dx=-50 dy=0 dh=-50 dv=0 dx=0 dy=0 dh=0 dv=0
PairPos2: "'kern' Horizontal Kerning lookup 15-1" uni0628 dx=-50 dy=0 dh=-50 dv=0 dx=0 dy=0 dh=0 dv=0
PairPos2: "'kern' Horizontal Kerning lookup 15-1" uni0627 dx=-50 dy=0 dh=-50 dv=0 dx=0 dy=0 dh=0 dv=0
PairPos2: "'kern' Horizontal Kerning lookup 15-1" uni0623 dx=-50 dy=0 dh=-50 dv=0 dx=0 dy=0 dh=0 dv=0
PairPos2: "'kern' Horizontal Kerning lookup 15-1" uni0622 dx=-100 dy=0 dh=-100 dv=0 dx=0 dy=0 dh=0 dv=0
PairPos2: "'kern' Horizontal Kerning lookup 15-1" uni0621 dx=-50 dy=0 dh=-50 dv=0 dx=0 dy=0 dh=0 dv=0
PairPos2: "'kern' Horizontal Kerning lookup 15-1" uniFB94 dx=-150 dy=0 dh=-150 dv=0 dx=0 dy=0 dh=0 dv=0
PairPos2: "'kern' Horizontal Kerning lookup 15-1" uniFB92 dx=-150 dy=0 dh=-150 dv=0 dx=0 dy=0 dh=0 dv=0
PairPos2: "'kern' Horizontal Kerning lookup 15-1" afii57509 dx=-150 dy=0 dh=-150 dv=0 dx=0 dy=0 dh=0 dv=0
PairPos2: "'kern' Horizontal Kerning lookup 15-1" afii57508 dx=-50 dy=0 dh=-50 dv=0 dx=0 dy=0 dh=0 dv=0
PairPos2: "'kern' Horizontal Kerning lookup 15-1" uniFB7C dx=-50 dy=0 dh=-50 dv=0 dx=0 dy=0 dh=0 dv=0
PairPos2: "'kern' Horizontal Kerning lookup 15-1" afii57506 dx=-50 dy=0 dh=-50 dv=0 dx=0 dy=0 dh=0 dv=0
PairPos2: "'kern' Horizontal Kerning lookup 15-1" uniFE8B dx=-50 dy=0 dh=-50 dv=0 dx=0 dy=0 dh=0 dv=0
Substitution2: "'fina' Terminal Forms in Arabic lookup 9 subtable" uniFEEE
EndChar

StartChar: uni0649
Encoding: 1609 1609 41
Width: 1482
VWidth: 2304
GlyphClass: 2
Flags: W
AnchorPoint: "Anchor-10" 467.085 1021.11 basechar 0
AnchorPoint: "Anchor-7" 250.388 -577.419 basechar 0
LayerCount: 2
Fore
SplineSet
1310.26 -152.983 m 4,0,1
 1127 -388 1127 -388 691.374023438 -397.37109375 c 4,2,3
 192 -409 192 -409 129.877929688 -72 c 5,4,5
 102 78 102 78 152.674804688 267.373046875 c 4,6,7
 192 414 192 414 264 541 c 4,8,9
 303 610 303 610 330 613 c 4,10,11
 379 618 379 618 342.013671875 540 c 4,12,13
 333 521 333 521 296.783203125 410.686523438 c 4,14,15
 281 362 281 362 262.711914062 278.232421875 c 4,16,17
 218 62 218 62 292.260742188 -56.9833984375 c 4,18,19
 399 -228 399 -228 757 -223 c 4,20,21
 1039 -219 1039 -219 1185 -114 c 4,22,23
 1281 -45 1281 -45 1281.08 7.31641 c 4,24,25
 1281 24 1281 24 1269.4 39.0098 c 4,26,27
 1238 80 1238 80 1118.9 68.1279 c 4,28,29
 983 54 983 54 903.724609375 122.82421875 c 4,30,31
 809 205 809 205 873 374 c 0,32,33
 998 698 998 698 1188.41015625 716.1640625 c 0,34,35
 1346.69986287 730.971922441 1346.69986287 730.971922441 1359.33 566.844 c 2,36,-1
 1361.11 543.713 l 1,37,38
 1134 569 1134 569 1030.88 450 c 0,39,40
 947 353 947 353 952.954 268.293 c 0,41,42
 958 200 958 200 1118.31 201.513 c 4,43,44
 1236 203 1236 203 1302.37 169.713 c 4,45,46
 1389 125 1389 125 1391.85 45.5964 c 4,47,48
 1393 13 1393 13 1387.44042969 -6.978515625 c 4,49,50
 1369 -79 1369 -79 1310.26 -152.983 c 4,0,1
EndSplineSet
Substitution2: "'fina' Terminal Forms in Arabic lookup 9 subtable" uniFEF0
Substitution2: "'medi' Medial Forms in Arabic lookup 11 subtable" uniFBE9
Substitution2: "'init' Initial Forms in Arabic lookup 13 subtable" uniFBE8
EndChar

StartChar: uni064B
Encoding: 1611 1611 43
Width: -21
VWidth: 1843
GlyphClass: 4
Flags: W
AnchorPoint: "Anchor-10" 487.615 889.456 mark 0
AnchorPoint: "Anchor-9" 487.615 889.456 mark 0
AnchorPoint: "Anchor-1" 455.615 1328.62 basemark 0
AnchorPoint: "Anchor-1" 487.615 889.456 mark 0
LayerCount: 2
Fore
SplineSet
241.612304688 846.409179688 m 1,0,-1
 241.612304688 938.201171875 l 1,1,-1
 644.543945312 1102.96289062 l 1,2,-1
 644.543945312 1011.16992188 l 1,3,-1
 241.612304688 846.409179688 l 1,0,-1
241.612304688 1065.21289062 m 1,4,-1
 241.612304688 1157.00390625 l 1,5,-1
 644.543945312 1321.765625 l 1,6,-1
 644.543945312 1229.97363281 l 1,7,-1
 241.612304688 1065.21289062 l 1,4,-1
EndSplineSet
EndChar

StartChar: uni064C
Encoding: 1612 1612 44
Width: -21
VWidth: 1843
GlyphClass: 4
Flags: W
AnchorPoint: "Anchor-10" 541.146 972.912 mark 0
AnchorPoint: "Anchor-9" 541.146 972.912 mark 0
AnchorPoint: "Anchor-1" 454.387 1526.68 basemark 0
AnchorPoint: "Anchor-1" 541.146 972.912 mark 0
LayerCount: 2
Fore
SplineSet
522.124023438 1386.29101562 m 0,0,1
 455.571289062 1386.29101562 455.571289062 1386.29101562 455.571289062 1326.91210938 c 0,2,3
 455.571289062 1283.86523438 455.571289062 1283.86523438 505.1640625 1264.02832031 c 0,4,5
 523.676757812 1256.62402344 523.676757812 1256.62402344 560.025390625 1245.42871094 c 1,6,-1
 570.47265625 1269.80273438 l 2,7,8
 579.752929688 1291.45800781 579.752929688 1291.45800781 579.752929688 1322.47753906 c 128,-1,9
 579.752929688 1353.49707031 579.752929688 1353.49707031 559.83984375 1369.89453125 c 128,-1,10
 539.92578125 1386.29101562 539.92578125 1386.29101562 522.124023438 1386.29101562 c 0,0,1
269.788085938 1109.39160156 m 0,11,12
 305.247070312 1033.41308594 305.247070312 1033.41308594 359.63671875 1033.41308594 c 128,-1,13
 414.025390625 1033.41308594 414.025390625 1033.41308594 474.21484375 1091.66210938 c 0,14,15
 509.388671875 1125.88574219 509.388671875 1125.88574219 529.4453125 1166 c 2,16,-1
 537.647460938 1182.40820312 l 1,17,-1
 519.700195312 1186.21582031 l 2,18,19
 445.576171875 1201.92773438 445.576171875 1201.92773438 405.114257812 1257.77148438 c 0,20,21
 382.6953125 1288.71289062 382.6953125 1288.71289062 382.6953125 1312.94238281 c 128,-1,22
 382.6953125 1337.17089844 382.6953125 1337.17089844 383.84765625 1346.81542969 c 0,23,24
 388.455078125 1385.38378906 388.455078125 1385.38378906 417.099609375 1421.37207031 c 128,-1,25
 445.744140625 1457.359375 445.744140625 1457.359375 509.552734375 1457.359375 c 128,-1,26
 573.361328125 1457.359375 573.361328125 1457.359375 612.091796875 1419.44433594 c 128,-1,27
 650.822265625 1381.52929688 650.822265625 1381.52929688 650.822265625 1316.06445312 c 0,28,29
 650.822265625 1282.99414062 650.822265625 1282.99414062 640.6328125 1250.72851562 c 2,30,-1
 635.115234375 1233.26074219 l 1,31,-1
 653.412109375 1232.30078125 l 2,32,33
 672.018554688 1231.31738281 672.018554688 1231.31738281 704.154296875 1230.6171875 c 1,34,-1
 704.154296875 1159.4609375 l 1,35,36
 673.32421875 1159.72265625 673.32421875 1159.72265625 659.130859375 1161.14648438 c 2,37,-1
 601.794921875 1166.65820312 l 1,38,39
 575.193359375 1104.31445312 575.193359375 1104.31445312 524.059570312 1051.65039062 c 128,-1,40
 472.924804688 998.986328125 472.924804688 998.986328125 435.029296875 980.666015625 c 128,-1,41
 397.134765625 962.345703125 397.134765625 962.345703125 357.666015625 962.345703125 c 0,42,43
 264.548828125 962.345703125 264.548828125 962.345703125 217.31640625 1092.24511719 c 0,44,45
 205.642578125 1124.14648438 205.642578125 1124.14648438 204.690429688 1212.39257812 c 1,46,-1
 257.685546875 1212.39257812 l 1,47,48
 258.626953125 1133.57421875 258.626953125 1133.57421875 269.788085938 1109.39160156 c 0,11,12
683.59375 1231.37597656 m 2,49,-1
 683.510742188 1231.38085938 l 2,50,51
 683.552734375 1231.37792969 683.552734375 1231.37792969 683.59375 1231.37597656 c 2,49,-1
EndSplineSet
EndChar

StartChar: uni064D
Encoding: 1613 1613 45
Width: -21
VWidth: 1843
GlyphClass: 4
Flags: W
AnchorPoint: "Anchor-7" 442.099 60.582 mark 0
AnchorPoint: "Anchor-6" 442.099 60.582 mark 0
AnchorPoint: "Anchor-0" 508.415 -374.489 basemark 0
AnchorPoint: "Anchor-0" 442.099 60.582 mark 0
LayerCount: 2
Fore
SplineSet
245.836914062 -412.342773438 m 1,0,-1
 245.836914062 -320.55078125 l 1,1,-1
 648.767578125 -155.790039062 l 1,2,-1
 648.767578125 -247.581054688 l 1,3,-1
 245.836914062 -412.342773438 l 1,0,-1
245.836914062 -193.540039062 m 1,4,-1
 245.836914062 -101.748046875 l 1,5,-1
 648.767578125 63.013671875 l 1,6,-1
 648.767578125 -28.7783203125 l 1,7,-1
 245.836914062 -193.540039062 l 1,4,-1
EndSplineSet
EndChar

StartChar: uni064E
Encoding: 1614 1614 46
Width: -21
VWidth: 1843
GlyphClass: 4
Flags: W
AnchorPoint: "Anchor-10" 462.271 1088.92 mark 0
AnchorPoint: "Anchor-9" 462.271 1088.92 mark 0
AnchorPoint: "Anchor-1" 430.271 1348.9 basemark 0
AnchorPoint: "Anchor-1" 462.271 1088.92 mark 0
LayerCount: 2
Fore
SplineSet
217.11328125 1064.3671875 m 1,0,-1
 217.11328125 1156.15917969 l 1,1,-1
 620.044921875 1320.92089844 l 1,2,-1
 620.044921875 1229.12890625 l 1,3,-1
 217.11328125 1064.3671875 l 1,0,-1
EndSplineSet
EndChar

StartChar: uni064F
Encoding: 1615 1615 47
Width: -21
VWidth: 1843
GlyphClass: 4
Flags: W
AnchorPoint: "Anchor-10" 492.498 1024.81 mark 0
AnchorPoint: "Anchor-9" 492.498 1024.81 mark 0
AnchorPoint: "Anchor-1" 437.215 1538.56 basemark 0
AnchorPoint: "Anchor-1" 492.498 1024.81 mark 0
LayerCount: 2
Fore
SplineSet
658.181640625 1171.37988281 m 1,0,1
 612.799804688 1172 612.799804688 1172 552.587890625 1178.41601562 c 1,2,3
 510.400390625 1119.20019531 510.400390625 1119.20019531 450.702148438 1082.39941406 c 0,4,5
 356 1023.20019531 356 1023.20019531 248.799804688 1019.20019531 c 1,6,-1
 248.799804688 1090.19335938 l 1,7,8
 353.599609375 1093.59960938 353.599609375 1093.59960938 416.251953125 1145.92773438 c 0,9,10
 444 1168.79980469 444 1168.79980469 455.759765625 1181.67578125 c 2,11,-1
 473.024414062 1199.86035156 l 1,12,-1
 448.551757812 1205.29296875 l 2,13,14
 443.200195312 1206.40039062 443.200195312 1206.40039062 411.861328125 1222.51464844 c 0,15,16
 381.599609375 1238.40039062 381.599609375 1238.40039062 359.088867188 1269.25585938 c 0,17,18
 336.799804688 1300 336.799804688 1300 336.723632812 1337.42578125 c 0,19,20
 336.799804688 1410.40039062 336.799804688 1410.40039062 393.420898438 1453.09179688 c 0,21,22
 415.200195312 1469.59960938 415.200195312 1469.59960938 471.169921875 1469.23730469 c 0,23,24
 527.200195312 1469.59960938 527.200195312 1469.59960938 566.120117188 1431.32226562 c 0,25,26
 604.799804688 1393.59960938 604.799804688 1393.59960938 604.849609375 1327.94335938 c 0,27,28
 604.799804688 1301.00097656 604.799804688 1301.00097656 592.834960938 1262.55175781 c 2,29,-1
 587.451171875 1245.24902344 l 1,30,-1
 605.544921875 1244.1796875 l 2,31,32
 636 1242.40039062 636 1242.40039062 658.181640625 1242.42285156 c 1,33,-1
 658.181640625 1171.37988281 l 1,0,1
514.053710938 1257.30761719 m 1,34,-1
 524.500976562 1281.6796875 l 2,35,36
 533.782226562 1303.33886719 533.782226562 1303.33886719 533.782226562 1334.35742188 c 128,-1,37
 533.782226562 1365.375 533.782226562 1365.375 513.865234375 1381.77246094 c 128,-1,38
 493.948242188 1398.16992188 493.948242188 1398.16992188 469.811523438 1398.16992188 c 128,-1,39
 445.674804688 1398.16992188 445.674804688 1398.16992188 427.637695312 1384.4296875 c 128,-1,40
 409.599609375 1370.68945312 409.599609375 1370.68945312 409.599609375 1333.21679688 c 128,-1,41
 409.599609375 1295.74414062 409.599609375 1295.74414062 459.192382812 1275.90527344 c 0,42,43
 477.728515625 1268.4921875 477.728515625 1268.4921875 514.053710938 1257.30761719 c 1,34,-1
EndSplineSet
EndChar

StartChar: uni0650
Encoding: 1616 1616 48
Width: -21
VWidth: 1843
GlyphClass: 4
Flags: W
AnchorPoint: "Anchor-7" 453.913 -12.96 mark 0
AnchorPoint: "Anchor-6" 453.913 -12.96 mark 0
AnchorPoint: "Anchor-0" 492.019 -261.556 basemark 0
AnchorPoint: "Anchor-0" 453.913 -12.96 mark 0
LayerCount: 2
Fore
SplineSet
254.28515625 -282.244140625 m 1,0,-1
 254.28515625 -190.451171875 l 1,1,-1
 657.215820312 -25.6904296875 l 1,2,-1
 657.215820312 -117.482421875 l 1,3,-1
 254.28515625 -282.244140625 l 1,0,-1
EndSplineSet
EndChar

StartChar: uni0651
Encoding: 1617 1617 49
Width: -21
VWidth: 1843
GlyphClass: 4
Flags: W
AnchorPoint: "Anchor-10" 487.615 1112.18 mark 0
AnchorPoint: "Anchor-9" 487.615 1112.18 mark 0
AnchorPoint: "Anchor-1" 463.077 1472.27 basemark 0
AnchorPoint: "Anchor-1" 487.615 1112.18 mark 0
LayerCount: 2
Fore
SplineSet
461.92578125 1225.53710938 m 1,0,1
 437.599609375 1093.59960938 437.599609375 1093.59960938 321.987304688 1093.50097656 c 0,2,3
 206.400390625 1093.59960938 206.400390625 1093.59960938 205.749023438 1242.31445312 c 0,4,5
 205.599609375 1272 205.599609375 1272 218.169921875 1354.91113281 c 1,6,-1
 278.260742188 1354.91113281 l 1,7,8
 268 1283.20019531 268 1283.20019531 268 1260.79980469 c 0,9,10
 268 1170.40039062 268 1170.40039062 331.959960938 1170.46191406 c 0,11,12
 420 1170.40039062 420 1170.40039062 424.484375 1285.96191406 c 0,13,14
 425.599609375 1317.59960938 425.599609375 1317.59960938 425.5 1355.29296875 c 0,15,16
 425.599609375 1392.79980469 425.599609375 1392.79980469 425.490234375 1399.96484375 c 1,17,-1
 484.8984375 1399.96484375 l 1,18,19
 486.400390625 1371.20019531 486.400390625 1371.20019531 486.629882812 1332.79296875 c 0,20,21
 486.400390625 1220.16308594 486.400390625 1220.16308594 584.364257812 1220.32519531 c 2,22,-1
 584.869140625 1220.32617188 l 2,23,24
 644 1220.79980469 644 1220.79980469 644.177734375 1315.59765625 c 0,25,26
 644.799804688 1400 644.799804688 1400 635.458984375 1449.86816406 c 1,27,-1
 699.154296875 1449.86816406 l 1,28,29
 708 1386.40039062 708 1386.40039062 708 1311.20019531 c 0,30,31
 708 1188.79980469 708 1188.79980469 640.5234375 1159.93359375 c 0,32,33
 614.400390625 1148.79980469 614.400390625 1148.79980469 588.799804688 1148 c 0,34,35
 532 1145.59960938 532 1145.59960938 502.400390625 1167.20019531 c 0,36,37
 466.400390625 1193.59960938 466.400390625 1193.59960938 461.92578125 1225.53710938 c 1,0,1
EndSplineSet
EndChar

StartChar: uni0652
Encoding: 1618 1618 50
Width: -27
VWidth: 2304
GlyphClass: 4
Flags: W
AnchorPoint: "Anchor-10" 588.527 1187.7 mark 0
AnchorPoint: "Anchor-9" 588.527 1187.7 mark 0
AnchorPoint: "Anchor-1" 573.743 1793.31 basemark 0
AnchorPoint: "Anchor-1" 588.527 1187.7 mark 0
LayerCount: 2
Fore
SplineSet
707.344726562 1457.10253906 m 0,0,1
 707.344726562 1505.78320312 707.344726562 1505.78320312 673.299804688 1539.828125 c 128,-1,2
 639.258789062 1573.87304688 639.258789062 1573.87304688 589.884765625 1573.87304688 c 0,3,4
 539.819335938 1573.87304688 539.819335938 1573.87304688 506.124023438 1540.17675781 c 128,-1,5
 472.427734375 1506.48046875 472.427734375 1506.48046875 472.427734375 1457.10253906 c 0,6,7
 472.427734375 1407.03808594 472.427734375 1407.03808594 506.124023438 1373.34277344 c 128,-1,8
 539.819335938 1339.64648438 539.819335938 1339.64648438 589.884765625 1339.64648438 c 0,9,10
 639.260742188 1339.64648438 639.260742188 1339.64648438 673.299804688 1373.69140625 c 128,-1,11
 707.344726562 1407.73535156 707.344726562 1407.73535156 707.344726562 1457.10253906 c 0,0,1
779.41796875 1457.21875 m 128,-1,13
 779.41796875 1377.71484375 779.41796875 1377.71484375 724.528320312 1322.47265625 c 128,-1,14
 669.673828125 1267.2734375 669.673828125 1267.2734375 590.212890625 1267.2734375 c 0,15,16
 563.655273438 1267.2734375 563.655273438 1267.2734375 539.920898438 1273.39550781 c 128,-1,17
 516.186523438 1279.51757812 516.186523438 1279.51757812 495.203125 1291.77636719 c 128,-1,18
 474.220703125 1304.03515625 474.220703125 1304.03515625 455.8984375 1322.47265625 c 0,19,20
 428.400390625 1350.14648438 428.400390625 1350.14648438 414.704101562 1383.76074219 c 128,-1,21
 401.006835938 1417.375 401.006835938 1417.375 401.006835938 1457.21875 c 0,22,23
 401.006835938 1536.6953125 401.006835938 1536.6953125 455.8671875 1591.56542969 c 128,-1,24
 510.7265625 1646.42480469 510.7265625 1646.42480469 590.212890625 1646.42480469 c 128,-1,25
 669.698242188 1646.42480469 669.698242188 1646.42480469 724.556640625 1591.56542969 c 128,-1,12
 779.41796875 1536.6953125 779.41796875 1536.6953125 779.41796875 1457.21875 c 128,-1,13
EndSplineSet
EndChar

StartChar: uni0653
Encoding: 1619 1619 51
Width: -3
VWidth: 2277
GlyphClass: 4
Flags: W
AnchorPoint: "Anchor-10" 466.962 1309.68 mark 0
AnchorPoint: "Anchor-9" 466.962 1309.68 mark 0
AnchorPoint: "Anchor-1" 466.962 1694.04 basemark 0
AnchorPoint: "Anchor-1" 466.962 1309.68 mark 0
LayerCount: 2
Fore
SplineSet
324.452148438 1388.77246094 m 0,0,1
 232 1395 232 1395 162 1324 c 0,2,3
 131 1293 131 1293 142.153320312 1340.02929688 c 0,4,5
 159 1407 159 1407 208 1458 c 0,6,7
 240 1491 240 1491 284.15234375 1492.57226562 c 0,8,9
 320 1494 320 1494 352.767578125 1490.36816406 c 0,10,11
 399 1485 399 1485 540.751953125 1486.87207031 c 4,12,13
 617 1488 617 1488 652.952148438 1495.81054688 c 4,14,15
 668 1499 668 1499 661.751953125 1488.04980469 c 4,16,17
 609 1410 609 1410 534.551757812 1389.87207031 c 0,18,19
 488 1377 488 1377 324.452148438 1388.77246094 c 0,0,1
EndSplineSet
EndChar

StartChar: uni0657
Encoding: 1623 1623 54
Width: -29
VWidth: 2488
GlyphClass: 4
Flags: W
AnchorPoint: "Anchor-10" 615.08 1455.92 mark 0
AnchorPoint: "Anchor-9" 615.08 1455.92 mark 0
AnchorPoint: "Anchor-1" 615.08 2249.13 basemark 0
AnchorPoint: "Anchor-1" 615.08 1455.92 mark 0
LayerCount: 2
Fore
SplineSet
711.864257812 1733.08398438 m 0,0,1
 711.719726562 1545.40039062 711.719726562 1545.40039062 530.360351562 1547.06835938 c 0,2,3
 454.6796875 1547.55957031 454.6796875 1547.55957031 402.1796875 1598.25488281 c 0,4,5
 349.919921875 1649.08007812 349.919921875 1649.08007812 349.893554688 1737.81640625 c 0,6,7
 349.919921875 1774.046875 349.919921875 1774.046875 366.11328125 1826.09472656 c 2,8,-1
 373.381835938 1849.45410156 l 1,9,-1
 348.954101562 1850.89648438 l 2,10,11
 309.959960938 1853.20019531 309.959960938 1853.20019531 277.895507812 1853.26855469 c 1,12,-1
 277.895507812 1949.17675781 l 1,13,14
 339.120117188 1948.24023438 339.120117188 1948.24023438 420.448242188 1939.67871094 c 1,15,16
 477.360351562 2020.59960938 477.360351562 2020.59960938 557.994140625 2069.30078125 c 0,17,18
 753.83984375 2189.08007812 753.83984375 2189.08007812 847.799804688 2194.20019531 c 5,19,-1
 847.799804688 2098.36035156 l 5,20,21
 747.360351562 2095.12011719 747.360351562 2095.12011719 604.5 1983.53613281 c 0,22,23
 575.639648438 1961.20019531 575.639648438 1961.20019531 551.166015625 1935.27832031 c 2,24,-1
 527.861328125 1910.74414062 l 1,25,-1
 560.892578125 1903.39355469 l 2,26,27
 570.240234375 1901.79980469 570.240234375 1901.79980469 610.428710938 1880.14453125 c 0,28,29
 651.240234375 1858.59960938 651.240234375 1858.59960938 681.670898438 1817.04296875 c 0,30,31
 711.719726562 1775.44042969 711.719726562 1775.44042969 711.864257812 1733.08398438 c 0,0,1
518.581054688 1643.01171875 m 0,32,33
 613.481445312 1643.01171875 613.481445312 1643.01171875 613.481445312 1723.17285156 c 0,34,35
 613.481445312 1781.28417969 613.481445312 1781.28417969 546.533203125 1808.06640625 c 0,36,37
 521.615234375 1818.03808594 521.615234375 1818.03808594 472.469726562 1833.17578125 c 1,38,-1
 458.366210938 1800.27246094 l 2,39,40
 445.834960938 1771.03710938 445.834960938 1771.03710938 445.834960938 1729.16699219 c 128,-1,41
 445.834960938 1687.296875 445.834960938 1687.296875 472.719726562 1665.15429688 c 128,-1,42
 499.603515625 1643.01171875 499.603515625 1643.01171875 518.581054688 1643.01171875 c 0,32,33
EndSplineSet
EndChar

StartChar: uni065A
Encoding: 1626 1626 55
Width: 1219
VWidth: 2488
GlyphClass: 4
Flags: W
AnchorPoint: "Anchor-10" 615.08 1455.92 mark 0
AnchorPoint: "Anchor-9" 615.08 1455.92 mark 0
AnchorPoint: "Anchor-1" 612.64 2005.07 basemark 0
AnchorPoint: "Anchor-1" 615.08 1455.92 mark 0
LayerCount: 2
Fore
SplineSet
535.634765625 1550.72949219 m 1,0,-1
 320.578125 1910.25976562 l 1,1,-1
 446.194335938 1910.25976562 l 1,2,-1
 615.080078125 1656.92382812 l 1,3,-1
 783.965820312 1910.25976562 l 1,4,-1
 909.583007812 1910.25976562 l 1,5,-1
 694.5234375 1550.72949219 l 1,6,-1
 535.634765625 1550.72949219 l 1,0,-1
EndSplineSet
EndChar

StartChar: afii57392
Encoding: 1632 1632 56
Width: 800
VWidth: 2275
GlyphClass: 2
Flags: W
LayerCount: 2
Fore
SplineSet
279.487304688 603.79296875 m 0,0,1
 279.487304688 579.819335938 279.487304688 579.819335938 288.217773438 558.904296875 c 128,-1,2
 296.94921875 537.989257812 296.94921875 537.989257812 314.08984375 520.84765625 c 128,-1,3
 331.231445312 503.70703125 331.231445312 503.70703125 352.146484375 494.9765625 c 128,-1,4
 373.061523438 486.245117188 373.061523438 486.245117188 397.03515625 486.245117188 c 0,5,6
 445.375 486.245117188 445.375 486.245117188 479.978515625 520.84765625 c 0,7,8
 491.392578125 532.262695312 491.392578125 532.262695312 499.096679688 545.383789062 c 128,-1,9
 506.801757812 558.504882812 506.801757812 558.504882812 510.692382812 573.1640625 c 128,-1,10
 514.583007812 587.823242188 514.583007812 587.823242188 514.583007812 603.79296875 c 0,11,12
 514.583007812 611.779296875 514.583007812 611.779296875 513.60546875 619.455078125 c 128,-1,13
 512.627929688 627.130859375 512.627929688 627.130859375 510.6875 634.435546875 c 128,-1,14
 508.748046875 641.739257812 508.748046875 641.739257812 505.845703125 648.69140625 c 128,-1,15
 502.944335938 655.642578125 502.944335938 655.642578125 499.102539062 662.1875 c 128,-1,16
 495.260742188 668.732421875 495.260742188 668.732421875 490.47265625 674.880859375 c 128,-1,17
 485.684570312 681.029296875 485.684570312 681.029296875 479.978515625 686.736328125 c 0,18,19
 445.375 721.340820312 445.375 721.340820312 397.03515625 721.340820312 c 0,20,21
 373.0625 721.340820312 373.0625 721.340820312 352.147460938 712.609375 c 128,-1,22
 331.232421875 703.877929688 331.232421875 703.877929688 314.08984375 686.736328125 c 0,23,24
 279.487304688 652.131835938 279.487304688 652.131835938 279.487304688 603.79296875 c 0,0,1
150.5859375 600.561523438 m 128,-1,26
 150.5859375 704.293945312 150.5859375 704.293945312 223.822265625 777.958007812 c 0,27,28
 260.560546875 814.911132812 260.560546875 814.911132812 304.41015625 833.229492188 c 128,-1,29
 348.259765625 851.547851562 348.259765625 851.547851562 399.947265625 851.547851562 c 0,30,31
 434.420898438 851.547851562 434.420898438 851.547851562 465.36328125 843.4140625 c 128,-1,32
 496.3046875 835.28125 496.3046875 835.28125 523.936523438 818.943359375 c 128,-1,33
 551.569335938 802.60546875 551.569335938 802.60546875 576.072265625 777.958007812 c 0,34,35
 649.306640625 704.29296875 649.306640625 704.29296875 649.306640625 600.561523438 c 128,-1,36
 649.306640625 496.822265625 649.306640625 496.822265625 576.072265625 423.166992188 c 128,-1,37
 502.905273438 349.578125 502.905273438 349.578125 399.947265625 349.578125 c 0,38,39
 374.091796875 349.578125 374.091796875 349.578125 350.245117188 354.145507812 c 128,-1,40
 326.399414062 358.712890625 326.399414062 358.712890625 304.416992188 367.89453125 c 128,-1,41
 282.435546875 377.077148438 282.435546875 377.077148438 262.318359375 390.877929688 c 128,-1,42
 242.202148438 404.6796875 242.202148438 404.6796875 223.822265625 423.166992188 c 0,43,25
 150.5859375 496.828125 150.5859375 496.828125 150.5859375 600.561523438 c 128,-1,26
EndSplineSet
EndChar

StartChar: afii57393
Encoding: 1633 1633 57
Width: 757
VWidth: 2129
GlyphClass: 2
Flags: W
LayerCount: 2
Fore
SplineSet
273.551757812 1410.16992188 m 1,0,1
 465 1042 465 1042 507 562 c 0,2,3
 547.486328125 99.294921875 547.486328125 99.294921875 412.47265625 17.4541015625 c 1,4,5
 402 695 402 695 200.392578125 1198.51757812 c 0,6,7
 137.194335938 1355.51660156 137.194335938 1355.51660156 259.374023438 1404.48730469 c 2,8,-1
 273.551757812 1410.16992188 l 1,0,1
EndSplineSet
EndChar

StartChar: afii57394
Encoding: 1634 1634 58
Width: 1039
VWidth: 2129
GlyphClass: 2
Flags: W
LayerCount: 2
Fore
SplineSet
190.551757812 1410.16992188 m 5,0,1
 233 1308 233 1308 265.473632812 1243.84765625 c 4,2,3
 346 1088 346 1088 502.555664062 1067.67871094 c 0,4,5
 692 1042 692 1042 759.1171875 1200.03027344 c 0,6,7
 775 1237 775 1237 786 1285 c 0,8,9
 815.07421875 1409.31835938 815.07421875 1409.31835938 927.288085938 1382.04296875 c 2,10,-1
 947.931640625 1377.02539062 l 1,11,12
 946 1321 946 1321 929.844726562 1244.109375 c 0,13,14
 862 922 862 922 567 907 c 0,15,16
 461 902 461 902 375 930 c 5,17,18
 406 760 406 760 424 562 c 4,19,20
 466 100 466 100 329.47265625 17.4541015625 c 5,21,22
 319 695 319 695 117.392578125 1198.51757812 c 4,23,24
 54.1943359375 1355.51757812 54.1943359375 1355.51757812 176.374023438 1404.48730469 c 6,25,-1
 190.551757812 1410.16992188 l 5,0,1
EndSplineSet
EndChar

StartChar: afii57395
Encoding: 1635 1635 59
Width: 1208
VWidth: 2129
GlyphClass: 2
Flags: W
LayerCount: 2
Fore
SplineSet
191.37109375 1411.89648438 m 5,0,1
 251 1283 251 1283 259.744140625 1261.1796875 c 0,2,3
 332 1082 332 1082 449.956054688 1079.04199219 c 0,4,5
 499 1078 499 1078 533.905273438 1089.40039062 c 128,-1,6
 569 1101 569 1101 588.734375 1127.44628906 c 0,7,8
 636 1191 636 1191 637.481445312 1350.47167969 c 1,9,-1
 740.750976562 1370.67675781 l 1,10,11
 743 1202 743 1202 757.515625 1166.11621094 c 0,12,13
 794 1078 794 1078 873.928710938 1079.04003906 c 0,14,15
 991 1081 991 1081 1000.265625 1273.29980469 c 0,16,17
 1001 1289 1001 1289 1003.62695312 1303.2578125 c 0,18,19
 1009 1340 1009 1340 1022.20703125 1361.3046875 c 0,20,21
 1035 1383 1035 1383 1054.41210938 1390.8046875 c 0,22,23
 1072.67316679 1398.85590079 1072.67316679 1398.85590079 1101.29199219 1394.16210938 c 2,24,-1
 1114.52832031 1391.99121094 l 1,25,26
 1116 1361 1116 1361 1116.90136719 1334.77148438 c 0,27,28
 1117 1308 1117 1308 1116.82519531 1282.74511719 c 0,29,30
 1113 1105 1113 1105 1052.41894531 1020.27832031 c 0,31,32
 992 935 992 935 875.922851562 938.225585938 c 0,33,34
 763.536714234 941.011484219 763.536714234 941.011484219 702.776367188 1034.2109375 c 2,35,-1
 693.943359375 1047.75976562 l 1,36,-1
 685.76953125 1033.80371094 l 2,37,38
 634 946 634 946 522.609375 936.830078125 c 0,39,40
 489 934 489 934 453.920898438 939.622070312 c 0,41,42
 418 945 418 945 366.784179688 963.020507812 c 1,43,44
 408 757 408 757 424 556 c 24,45,46
 462 80 462 80 332.998046875 17.0537109375 c 1,47,48
 321 736 321 736 118.506835938 1196.54199219 c 0,49,50
 51.1201395775 1349.7268961 51.1201395775 1349.7268961 188.9609375 1410.828125 c 6,51,-1
 191.37109375 1411.89648438 l 5,0,1
EndSplineSet
EndChar

StartChar: afii57396
Encoding: 1636 1636 60
Width: 900
VWidth: 2432
GlyphClass: 2
Flags: W
LayerCount: 2
Fore
SplineSet
380.934570312 713.899414062 m 1,0,1
 153 828 153 828 99.26171875 902.4921875 c 1,2,3
 151 1222 151 1222 567.928710938 1390.32714844 c 5,4,5
 594 1349 594 1349 599.450195312 1222.56445312 c 1,6,7
 250 1044 250 1044 211.622070312 948.5078125 c 1,8,9
 381 865 381 865 664.954101562 817.029296875 c 1,10,11
 659 753 659 753 654.887695312 692.9921875 c 1,12,13
 292 480 292 480 205.465820312 310.34765625 c 1,14,15
 415 209 415 209 783.608398438 251.82421875 c 1,16,-1
 813.521484375 51.017578125 l 1,17,18
 343 17 343 17 86.5107421875 217.234375 c 1,19,20
 109 493 109 493 380.934570312 713.899414062 c 1,0,1
EndSplineSet
EndChar

StartChar: afii57397
Encoding: 1637 1637 61
Width: 1193
VWidth: 2271
GlyphClass: 2
Flags: W
LayerCount: 2
Fore
SplineSet
586.680664062 1080.56835938 m 1,0,1
 445 954 445 954 352 776 c 0,2,3
 281 641 281 641 274.70703125 501.05859375 c 0,4,5
 262.075875546 175.142407861 262.075875546 175.142407861 645.712890625 172.78515625 c 0,6,7
 969.716089669 171.299970717 969.716089669 171.299970717 923.875976562 563.99609375 c 0,8,9
 908 700 908 700 796 860 c 0,10,11
 668.707586429 1035.78683903 668.707586429 1035.78683903 586.680664062 1080.56835938 c 1,0,1
449.002929688 1183.41503906 m 2,12,13
 410 1211 410 1211 503.73046875 1342.55664062 c 1,14,15
 778 1177 778 1177 962 856 c 0,16,17
 1067 673 1067 673 1073.09179688 534.4375 c 0,18,19
 1096.39735351 14.9494945044 1096.39735351 14.9494945044 636.919921875 17 c 0,20,21
 343 17 343 17 220.650390625 158.336914062 c 0,22,23
 96 302 96 302 123.310546875 533.290039062 c 0,24,25
 142 688 142 688 218 822 c 0,26,27
 350 1055 350 1055 474.900390625 1164.79101562 c 1,28,-1
 449.002929688 1183.41503906 l 2,12,13
EndSplineSet
EndChar

StartChar: afii57398
Encoding: 1638 1638 62
Width: 1165
VWidth: 2270
GlyphClass: 2
Flags: W
LayerCount: 2
Fore
SplineSet
895.58984375 1376.75878906 m 5,0,1
 898 1003 898 1003 937.583007812 694.786132812 c 4,2,3
 969 450 969 450 1073.06875937 12.99219 c 5,4,5
 850.386878748 12.9999516598 850.386878748 12.9999516598 785.631835938 700.533203125 c 4,6,7
 753.475882895 1046.64129355 753.475882895 1046.64129355 751.73046875 1171.94921875 c 6,8,-1
 751.198242188 1210.15917969 l 5,9,-1
 714.512695312 1199.45996094 l 6,10,11
 620 1172 620 1172 465.216796875 1171.62988281 c 4,12,13
 349 1172 349 1172 238.611328125 1187.53222656 c 4,14,15
 163 1198 163 1198 126.786132812 1234.76171875 c 4,16,17
 90.494140625 1270.51321855 90.494140625 1270.51321855 90.494140625 1335.62988281 c 6,18,-1
 90.494140625 1375.54003906 l 5,19,20
 279 1328 279 1328 452.712890625 1327.58007812 c 4,21,22
 675 1328 675 1328 895.58984375 1376.75878906 c 5,0,1
EndSplineSet
EndChar

StartChar: afii57399
Encoding: 1639 1639 63
Width: 1133
VWidth: 2270
GlyphClass: 2
Flags: W
LayerCount: 2
Fore
SplineSet
491.348632812 10.849609375 m 5,0,1
 485.299804688 79.9697265625 485.299804688 79.9697265625 468.876953125 171.295898438 c 132,-1,2
 452.453125 262.623046875 452.453125 262.623046875 425.724609375 375.967773438 c 132,-1,3
 398.995117188 489.311523438 398.995117188 489.311523438 361.856445312 625.237304688 c 4,4,5
 248.865234375 1038.77832031 248.865234375 1038.77832031 70.302734375 1349.27441406 c 5,6,-1
 82.4541015625 1355.44433594 l 6,7,8
 88.990234375 1358.76464844 88.990234375 1358.76464844 95.32421875 1361.63378906 c 4,9,10
 159.887695312 1390.79199219 159.887695312 1390.79199219 204.110351562 1374.921875 c 132,-1,11
 248.33203125 1359.05078125 248.33203125 1359.05078125 276.428710938 1296.88183594 c 4,12,13
 401.815429688 1019.43847656 401.815429688 1019.43847656 481.833007812 739.3671875 c 4,14,15
 535.887695312 550.178710938 535.887695312 550.178710938 537.89453125 539.1328125 c 6,16,-1
 566.504882812 381.732421875 l 5,17,-1
 595.115234375 539.1328125 l 6,18,19
 597.119140625 550.161132812 597.119140625 550.161132812 651.17578125 739.3671875 c 4,20,21
 730.772460938 1017.96289062 730.772460938 1017.96289062 855.227539062 1293.88867188 c 4,22,23
 856.543945312 1296.80566406 856.543945312 1296.80566406 857.892578125 1299.62402344 c 132,-1,24
 859.241210938 1302.44238281 859.241210938 1302.44238281 860.622070312 1305.16113281 c 4,25,26
 890.810546875 1364.57324219 890.810546875 1364.57324219 936.081054688 1377.46582031 c 132,-1,27
 981.3515625 1390.35742188 981.3515625 1390.35742188 1046.38769531 1357.49609375 c 6,28,-1
 1062.51660156 1349.29589844 l 5,29,30
 886.311523438 1045.32714844 886.311523438 1045.32714844 770.969726562 624.612304688 c 4,31,32
 678.466796875 287.211914062 678.466796875 287.211914062 642.896484375 10.849609375 c 5,33,-1
 491.348632812 10.849609375 l 5,0,1
EndSplineSet
EndChar

StartChar: afii57400
Encoding: 1640 1640 64
Width: 1159
VWidth: 2270
GlyphClass: 2
Flags: W
LayerCount: 2
Fore
SplineSet
504.370117188 1394.15039062 m 5,0,-1
 655.89453125 1394.15039062 l 5,1,2
 675.234375 1243.64941406 675.234375 1243.64941406 707.130859375 1090.87011719 c 132,-1,3
 739.026367188 938.090820312 739.026367188 938.090820312 783.993164062 780.306640625 c 4,4,5
 915.416015625 319.161132812 915.416015625 319.161132812 1088.31347656 39.7099609375 c 5,6,-1
 1073.42578125 34.1376953125 l 6,7,8
 928.56640625 -20.0654296875 928.56640625 -20.0654296875 883.701171875 77.189453125 c 4,9,10
 748.6640625 369.915039062 748.6640625 369.915039062 664.176757812 665.6328125 c 4,11,12
 610.122070312 854.83203125 610.122070312 854.83203125 589.34375 969.138671875 c 6,13,-1
 579.504882812 1023.26464844 l 5,14,-1
 569.666015625 969.138671875 l 6,15,16
 559.295898438 912.08984375 559.295898438 912.08984375 540.579101562 836.1640625 c 132,-1,17
 521.861328125 760.237304688 521.861328125 760.237304688 494.833007812 665.6328125 c 4,18,19
 410.057617188 368.905273438 410.057617188 368.905273438 274.385742188 75.1923828125 c 4,20,21
 230.391601562 -20.048828125 230.391601562 -20.048828125 86.4267578125 33.7734375 c 6,22,-1
 70.23828125 39.826171875 l 5,23,24
 202.616210938 267.595703125 202.616210938 267.595703125 374.681640625 779.190429688 c 4,25,26
 478.833984375 1087.02734375 478.833984375 1087.02734375 504.370117188 1394.15039062 c 5,0,-1
EndSplineSet
EndChar

StartChar: afii57401
Encoding: 1641 1641 65
Width: 1142
VWidth: 2270
GlyphClass: 2
Flags: W
LayerCount: 2
Fore
SplineSet
766.053710938 692.326171875 m 1,0,1
 305 656 305 656 170 815 c 0,2,3
 91 907 91 907 91 1022.5 c 0,4,5
 91 1199 91 1199 194.207055567 1312.39662208 c 0,6,7
 297 1426 297 1426 481.707055567 1425.76412223 c 0,8,9
 657 1426 657 1426 764 1321 c 0,10,11
 869 1219 869 1219 883.446326245 1031.65954691 c 0,12,13
 898 836 898 836 927.5 625.5 c 128,-1,14
 957 415 957 415 1050.71972656 11.228515625 c 1,15,-1
 1042.24023438 11.228515625 l 2,16,17
 892 11 892 11 841.02734375 259.470703125 c 0,18,19
 777 577 777 577 766.053710938 692.326171875 c 1,0,1
749.87109375 841.514648438 m 1,20,-1
 742.21875 953.997070312 l 2,21,22
 731 1113 731 1113 693.583007812 1166.28027344 c 0,23,24
 615 1280 615 1280 492.226605945 1280.25214376 c 0,25,26
 376 1281 376 1281 306.491834476 1213.48284487 c 128,-1,27
 237 1146 237 1146 231.595261866 1043.81204341 c 0,28,29
 226 939 226 939 319.52734375 881.211914062 c 24,30,31
 440 807 440 807 749.87109375 841.514648438 c 1,20,-1
EndSplineSet
EndChar

StartChar: afii57381
Encoding: 1642 1642 66
Width: 1177
VWidth: 2186
GlyphClass: 2
Flags: W
LayerCount: 2
Fore
SplineSet
459.39 1287.05 m 2,0,-1
 459.39 1158.05 l 2,1,2
 459.39 1121.05 459.39 1121.05 429.39 1121.04 c 2,3,-1
 302.391 1121.05 l 2,4,5
 268.39 1121.05 268.39 1121.05 268.39 1159.05 c 2,6,-1
 268.39 1287.05 l 2,7,8
 268.39 1319.05 268.39 1319.05 306.39 1319.05 c 2,9,-1
 421.39 1319.05 l 2,10,11
 459.39 1319.05 459.39 1319.05 459.39 1287.05 c 2,0,-1
911.192 233.849 m 2,12,-1
 911.192 104.849 l 2,13,14
 911.192 67.8477 911.192 67.8477 881.192 67.8477 c 2,15,-1
 754.192 67.8477 l 2,16,17
 720.192 67.8477 720.192 67.8477 720.192 105.848 c 2,18,-1
 720.192 233.849 l 2,19,20
 720.192 265.848 720.192 265.848 758.192 265.848 c 2,21,-1
 873.192 265.848 l 2,22,23
 911.192 265.848 911.192 265.848 911.192 233.849 c 2,12,-1
871.394 1373.5 m 1,24,-1
 983.001 1316 l 1,25,-1
 301 0 l 1,26,-1
 190 61 l 1,27,-1
 871.394 1373.5 l 1,24,-1
EndSplineSet
EndChar

StartChar: uni066B
Encoding: 1643 1643 67
Width: 711
VWidth: 2186
GlyphClass: 2
Flags: W
LayerCount: 2
Fore
SplineSet
443.218 502.139 m 1,0,-1
 568.799 501.203 l 1,1,2
 342.799 113.203 342.799 113.203 130 -230.265 c 1,3,-1
 1.59766 -228.502 l 1,4,5
 94.7988 -78.7969 94.7988 -78.7969 443.218 502.139 c 1,0,-1
EndSplineSet
EndChar

StartChar: uni066C
Encoding: 1644 1644 68
Width: 696
VWidth: 2186
GlyphClass: 2
Flags: W
LayerCount: 2
Fore
SplineSet
291.2 1580.01 m 1,0,-1
 490.97 1580.01 l 1,1,-1
 490.97 1433.52 l 1,2,-1
 320.557 1102.04 l 1,3,-1
 207.225 1102.04 l 1,4,-1
 291.2 1428.73 l 1,5,-1
 291.2 1580.01 l 1,0,-1
EndSplineSet
EndChar

StartChar: afii63167
Encoding: 1645 1645 69
Width: 1194
VWidth: 2186
GlyphClass: 2
Flags: W
LayerCount: 2
Fore
SplineSet
132.901 794.63 m 1,0,-1
 486.633 794.63 l 1,1,-1
 597.061 1130.84 l 1,2,-1
 707.487 794.63 l 1,3,-1
 1061.22 794.63 l 1,4,-1
 775.453 585.725 l 1,5,-1
 884.797 249.809 l 1,6,-1
 597.061 457.729 l 1,7,-1
 309.323 249.809 l 1,8,-1
 418.667 585.725 l 1,9,-1
 132.901 794.63 l 1,0,-1
EndSplineSet
EndChar

StartChar: uni066E
Encoding: 1646 1646 70
Width: 1702
VWidth: 2288
GlyphClass: 2
Flags: W
AnchorPoint: "Anchor-10" 763.278 1092.71 basechar 0
AnchorPoint: "Anchor-7" 519.479 -243.424 basechar 0
LayerCount: 2
Fore
SplineSet
548.649414062 193.732421875 m 0,0,1
 672.284384876 181.082841066 672.284384876 181.082841066 875.642192438 179.041420533 c 24,2,3
 1343.73393102 174.342451273 1343.73393102 174.342451273 1476.33 272.597 c 0,4,5
 1538 318 1538 318 1507.22 395.996 c 0,6,7
 1455 529 1455 529 1445.47 556.704 c 0,8,9
 1395.87712297 705.368347917 1395.87712297 705.368347917 1521.71 765.524 c 2,10,-1
 1537.07 772.867 l 1,11,12
 1600 585 1600 585 1610.16 415.44 c 0,13,14
 1624 189 1624 189 1502 116.5 c 128,-1,15
 1380 44 1380 44 1163.41 16.7236 c 0,16,17
 1063.03145191 0.592846163618 1063.03145191 0.592846163618 928.564453125 -0.6484375 c 16,18,19
 702 3 702 3 618 3.748046875 c 0,20,21
 88.5221815977 22.4894273117 88.5221815977 22.4894273117 92 452 c 0,22,23
 93 570 93 570 128 652 c 0,24,25
 148 698 148 698 176 694.5 c 128,-1,26
 204 691 204 691 189.339942244 616.699126557 c 0,27,28
 114.428976447 237.031441633 114.428976447 237.031441633 548.649414062 193.732421875 c 0,0,1
EndSplineSet
Substitution2: "'init' Initial Forms in Arabic lookup 13 subtable" uni066E.init
Substitution2: "'medi' Medial Forms in Arabic lookup 11 subtable" uni066E.medi
Substitution2: "'fina' Terminal Forms in Arabic lookup 9 subtable" uni066E.fina
EndChar

StartChar: uni066F
Encoding: 1647 1647 71
Width: 1361
VWidth: 2307
GlyphClass: 2
Flags: W
AnchorPoint: "Anchor-10" 328.703 1171.86 basechar 0
AnchorPoint: "Anchor-7" 460.144 -575.547 basechar 0
LayerCount: 2
Fore
SplineSet
966.672851562 578.504882812 m 0,0,1
 852.26171875 568.374023438 852.26171875 568.374023438 821.424804688 392.841796875 c 0,2,3
 797.432617188 255.477539062 797.432617188 255.477539062 1015.10546875 255.747070312 c 0,4,5
 1053.43261719 255.477539062 1053.43261719 255.477539062 1160.3125 272.326171875 c 1,6,7
 1145.43261719 429.477539062 1145.43261719 429.477539062 1104.43261719 507.977539062 c 128,-1,8
 1063.43261719 586.477539062 1063.43261719 586.477539062 966.672851562 578.504882812 c 0,0,1
1158.14160156 108.741210938 m 1,9,10
 1117 97 1117 97 1038.10546875 88.7470703125 c 0,11,12
 834 68 834 68 746.90234375 187.83203125 c 0,13,14
 697 256 697 256 711.173828125 378.346679688 c 0,15,16
 733 580 733 580 837.633789062 677.232421875 c 0,17,18
 904 740 904 740 995.5 741.5 c 128,-1,19
 1087 743 1087 743 1143.5 686 c 128,-1,20
 1200 629 1200 629 1230.5 522 c 128,-1,21
 1261 415 1261 415 1264 239.5 c 128,-1,22
 1267 64 1267 64 1242.83007812 -35 c 0,23,24
 1148 -420 1148 -420 648.083984375 -429.362304688 c 0,25,26
 327 -435 327 -435 173.271484375 -235.94140625 c 0,27,28
 53 -79 53 -79 106 182 c 0,29,30
 125.358759212 277.180566126 125.358759212 277.180566126 176.451171875 388.032226562 c 0,31,32
 203 445 203 445 236.5 435.5 c 128,-1,33
 270 426 270 426 246.134765625 361 c 0,34,35
 167 143 167 143 218.177734375 -25.3046875 c 0,36,37
 290 -261 290 -261 643.8515625 -259.803710938 c 0,38,39
 1123 -258 1123 -258 1152.83007812 62.03125 c 0,40,41
 1155 85 1155 85 1158.14160156 108.741210938 c 1,9,10
EndSplineSet
Substitution2: "'init' Initial Forms in Arabic lookup 13 subtable" uni066F.init
Substitution2: "'medi' Medial Forms in Arabic lookup 11 subtable" uni066F.medi
Substitution2: "'fina' Terminal Forms in Arabic lookup 9 subtable" uni066F.fina
EndChar

StartChar: uni0670
Encoding: 1648 1648 72
Width: 0
VWidth: 2459
GlyphClass: 4
Flags: W
AnchorPoint: "Anchor-10" 625.055 1448.93 mark 0
AnchorPoint: "Anchor-9" 625.055 1448.93 mark 0
AnchorPoint: "Anchor-1" 615.334 2078.23 basemark 0
AnchorPoint: "Anchor-1" 625.055 1448.93 mark 0
LayerCount: 2
Fore
SplineSet
607.185546875 1494.64257812 m 1,0,-1
 561.697265625 1964.45800781 l 5,1,-1
 668.90625 2027.59375 l 5,2,-1
 668.90625 1494.64257812 l 1,3,-1
 607.185546875 1494.64257812 l 1,0,-1
EndSplineSet
EndChar

StartChar: uni0674
Encoding: 1652 1652 73
Width: 639
VWidth: 2186
GlyphClass: 2
Flags: W
LayerCount: 2
Fore
SplineSet
143.54 1515.26 m 1,0,-1
 254.306 1540.82 l 1,1,2
 145.68 1590.21 145.68 1590.21 145.68 1692.52 c 0,3,4
 145.68 1778.8 145.68 1778.8 206 1832 c 0,5,6
 256.995 1876.48 256.995 1876.48 343 1877 c 0,7,8
 410.823 1877 410.823 1877 462.08 1846.81 c 1,9,-1
 462.08 1769.8 l 1,10,11
 397.433 1802.12 397.433 1802.12 332 1795 c 0,12,13
 227.549 1783.73 227.549 1783.73 220.26 1701.08 c 0,14,15
 212.646 1612.93 212.646 1612.93 330.161 1577.33 c 0,16,17
 366.368 1566.36 366.368 1566.36 484.55 1593.69 c 1,18,-1
 484.55 1511.4 l 1,19,-1
 143.54 1434.84 l 1,20,-1
 143.54 1515.26 l 1,0,-1
EndSplineSet
EndChar

StartChar: uni06A1
Encoding: 1697 1697 77
Width: 1719
VWidth: 2307
GlyphClass: 2
Flags: W
AnchorPoint: "Anchor-10" 486.273 1270.83 basechar 0
AnchorPoint: "Anchor-7" 599.693 -190.024 basechar 0
LayerCount: 2
Fore
SplineSet
1331.67382812 837.729492188 m 0,0,1
 1217.62207031 827.9296875 1217.62207031 827.9296875 1186.42578125 652.06640625 c 0,2,3
 1162.10644531 514.971679688 1162.10644531 514.971679688 1380.10644531 514.971679688 c 0,4,5
 1424.67089844 515.987304688 1424.67089844 515.987304688 1525.31347656 531.55078125 c 1,6,7
 1510.10644531 688.971679688 1510.10644531 688.971679688 1469.10644531 767.471679688 c 128,-1,8
 1428.10644531 845.971679688 1428.10644531 845.971679688 1331.67382812 837.729492188 c 0,0,1
1046 0 m 1,9,-1
 929.564453125 -0.6484375 l 9,10,11
 759 -5 759 -5 619 3.748046875 c 0,12,13
 382 18 382 18 270 90 c 0,14,15
 91 205 91 205 93 452 c 0,16,17
 94 570 94 570 129 652 c 0,18,19
 149 698 149 698 177 694.5 c 128,-1,20
 205 691 205 691 192.059494789 625.715770771 c 128,-1,21
 179.118989577 560.431541543 179.118989577 560.431541543 181.478515625 473.573242188 c 0,22,23
 188 246 188 246 549.649414062 193.732421875 c 0,24,25
 645 180 645 180 963.262695312 178.171875 c 17,26,-1
 1046 179.119140625 l 1,27,-1
 1206.88378906 179.119140625 l 2,28,29
 1496 179 1496 179 1523.14257812 367.965820312 c 1,30,31
 1482 356 1482 356 1403.10644531 347.971679688 c 0,32,33
 1199 327 1199 327 1111.90332031 447.056640625 c 0,34,35
 1062 517 1062 517 1076.17480469 637.571289062 c 0,36,37
 1100 840 1100 840 1202.63476562 936.45703125 c 0,38,39
 1269 999 1269 999 1358.5 1000.5 c 128,-1,40
 1448 1002 1448 1002 1498.5 951 c 0,41,42
 1656.34247458 791.594728642 1656.34247458 791.594728642 1627.36328125 374.098632812 c 24,43,44
 1612 156 1612 156 1439.01855469 57.76953125 c 0,45,46
 1337 0 1337 0 1199.96777344 0 c 2,47,-1
 1046 0 l 1,9,-1
EndSplineSet
Substitution2: "'init' Initial Forms in Arabic lookup 13 subtable" uni06A1.init
Substitution2: "'medi' Medial Forms in Arabic lookup 11 subtable" uni06A1.medi
Substitution2: "'fina' Terminal Forms in Arabic lookup 9 subtable" uni06A1.fina
EndChar

StartChar: uni06A9
Encoding: 1705 1705 78
Width: 1872
VWidth: 2288
GlyphClass: 2
Flags: W
AnchorPoint: "Anchor-10" 268.771 1230.92 basechar 0
AnchorPoint: "Anchor-7" 391.73 -293.384 basechar 0
LayerCount: 2
Fore
SplineSet
930.564453125 -0.6484375 m 9,0,1
 760 -5 760 -5 620 3.748046875 c 0,2,3
 383 18 383 18 271 90 c 0,4,5
 92 205 92 205 94 452 c 0,6,7
 95 570 95 570 130 652 c 0,8,9
 150 698 150 698 178 694.5 c 128,-1,10
 206 691 206 691 191.43130175 617.178179183 c 0,11,12
 117.089793029 240.47839161 117.089793029 240.47839161 550.649414062 193.732421875 c 0,13,14
 673.848751054 179.840034667 673.848751054 179.840034667 957.924375527 179.420017334 c 144,-1,15
 1242 179 1242 179 1357 235.6875 c 0,16,17
 1424 269 1424 269 1417 311.5 c 128,-1,18
 1410 354 1410 354 1370 409.6875 c 0,19,20
 1044 863 1044 863 1029.28710938 920.458984375 c 0,21,22
 990.909537795 1072.35805091 990.909537795 1072.35805091 1151.08496094 1144.03710938 c 2,23,-1
 1831.17089844 1448.37792969 l 1,24,-1
 1831.17089844 1426.01757812 l 2,25,26
 1830.99957412 1277.6311403 1830.99957412 1277.6311403 1611 1184.6875 c 2,27,-1
 1166 996.6875 l 1,28,29
 1246 838 1246 838 1521 418.6875 c 0,30,31
 1562 357 1562 357 1553 286 c 0,32,33
 1517.11137188 2.87860037457 1517.11137188 2.87860037457 930.564453125 -0.6484375 c 9,0,1
EndSplineSet
Substitution2: "'init' Initial Forms in Arabic lookup 13 subtable" uniFB90
Substitution2: "'medi' Medial Forms in Arabic lookup 11 subtable" uniFB91
Substitution2: "'fina' Terminal Forms in Arabic lookup 9 subtable" uniFB8F
EndChar

StartChar: afii57514
Encoding: 1722 1722 80
Width: 1351
VWidth: 2316
GlyphClass: 2
Flags: W
AnchorPoint: "Anchor-10" 587.961 996.99 basechar 0
AnchorPoint: "Anchor-7" 305.838 -757.488 basechar 0
LayerCount: 2
Fore
SplineSet
1241.93 252.396 m 4,0,1
 1276 26 1276 26 1242.83 -111 c 4,2,3
 1148 -496 1148 -496 648.084 -505.362 c 4,4,5
 327 -511 327 -511 173.271 -311.941 c 4,6,7
 53 -155 53 -155 106 106 c 4,8,9
 125.358664968 201.180102758 125.358664968 201.180102758 176.451 312.032 c 4,10,11
 203 369 203 369 236.5 359.5 c 132,-1,12
 270 350 270 350 246.134677364 285 c 4,13,14
 167 67 167 67 218.178 -101.305 c 4,15,16
 290 -337 290 -337 643.852 -335.804 c 4,17,18
 1124 -334 1124 -334 1152.83 -13.9688 c 4,19,20
 1161 78 1161 78 1095.04980469 238.874023438 c 4,21,22
 991.931520438 493.168874028 991.931520438 493.168874028 1134.73 530.314 c 6,23,-1
 1167.33 538.794 l 5,24,25
 1227 347 1227 347 1241.93 252.396 c 4,0,1
EndSplineSet
Substitution2: "'init' Initial Forms in Arabic lookup 13 subtable" uni06BA.init
Substitution2: "'medi' Medial Forms in Arabic lookup 11 subtable" uni06BA.medi
Substitution2: "'fina' Terminal Forms in Arabic lookup 9 subtable" uniFB9F
EndChar

StartChar: uni06F4
Encoding: 1780 1780 87
Width: 1070
VWidth: 2270
GlyphClass: 2
Flags: W
LayerCount: 2
Fore
SplineSet
296.478515625 1140.26953125 m 2,0,-1
 313.9140625 1086.21972656 l 1,1,-1
 332.649414062 1139.83007812 l 2,2,3
 440 1447 440 1447 759 1422 c 0,4,5
 907.398164555 1409.96771639 907.398164555 1409.96771639 913 1307.00976562 c 2,6,-1
 915.399414062 1262.91015625 l 1,7,8
 632 1328 632 1328 521.060546875 1217 c 0,9,10
 404 1098 404 1098 477.596679688 979.259765625 c 0,11,12
 531 893 531 893 738.807617188 893.060546875 c 0,13,14
 777 893 777 893 874.459587297 905.494787799 c 128,-1,15
 971.919171672 917.989637368 971.919171672 917.989637368 977.169921875 807 c 2,16,-1
 978.650390625 775.706054688 l 1,17,18
 773 749 773 749 707.638671875 748.614257812 c 0,19,20
 525.180875544 748.999617982 525.180875544 748.999617982 419.405273438 821.372070312 c 2,21,-1
 369.688476562 855.388671875 l 5,22,23
 407 706 407 706 420 546 c 0,24,25
 462 63 462 63 325.6328125 16.4189453125 c 1,26,27
 315 711 315 711 114.041992188 1200.26953125 c 0,28,29
 67.0998758487 1314.75641331 67.0998758487 1314.75641331 189.856445312 1395.5703125 c 2,30,-1
 205.2734375 1405.71972656 l 1,31,32
 279 1195 279 1195 296.478515625 1140.26953125 c 2,0,-1
EndSplineSet
EndChar

StartChar: uni06F5
Encoding: 1781 1781 88
Width: 1206
VWidth: 2130
GlyphClass: 2
Flags: W
LayerCount: 2
Fore
SplineSet
647.065429688 316.65234375 m 0,0,1
 692 173 692 173 839.5 173 c 0,2,3
 1023.02702703 173 1023.02702703 173 963.911132812 461.43359375 c 5,4,5
 882 808 882 808 585.140625 1066.47070312 c 1,6,7
 352 793 352 793 270.045898438 523.51953125 c 0,8,9
 167 184 167 184 398.966796875 173.70703125 c 0,10,11
 547 167 547 167 584 313.741210938 c 0,12,13
 595 357 595 357 614 357 c 0,14,15
 634 357 634 357 647.065429688 316.65234375 c 0,0,1
384.767578125 9.8896484375 m 0,16,17
 113 10 113 10 91.6181640625 276.944335938 c 0,18,19
 62 647 62 647 481.5546875 1155.90039062 c 1,20,-1
 459.622070312 1174.94433594 l 2,21,22
 434 1197 434 1197 501.504882812 1338.63769531 c 1,23,24
 573 1286 573 1286 598.620117188 1261.7265625 c 0,25,26
 1151 740 1151 740 1114.296875 281.237304688 c 0,27,28
 1092 2 1092 2 843.294921875 10.392578125 c 0,29,30
 679.120779348 15.9958777742 679.120779348 15.9958777742 618.016601562 185.649414062 c 1,31,32
 554.651123393 10.0010830495 554.651123393 10.0010830495 384.767578125 9.8896484375 c 0,16,17
EndSplineSet
EndChar

StartChar: uni06F6
Encoding: 1782 1782 89
Width: 1018
VWidth: 2270
GlyphClass: 2
Flags: W
LayerCount: 2
Fore
SplineSet
91.34375 6 m 5,0,1
 137 169 137 169 259.34375 361 c 4,2,3
 395 575 395 575 479.34375 635.099609375 c 5,4,5
 205 708 205 708 207.34375 980 c 4,6,7
 209 1135 209 1135 287.34375 1233 c 4,8,9
 416 1393 416 1393 647.34375 1361 c 4,10,11
 827 1337 827 1337 850.221679688 1161.20019531 c 5,12,13
 643 1248 643 1248 521.399414062 1196.01953125 c 4,14,15
 398 1143 398 1143 373.34375 1027 c 4,16,17
 321 778 321 778 644.34375 743.099609375 c 5,18,19
 752 753 752 753 873.59375 802.27734375 c 4,20,21
 927.920898438 823.96875 927.920898438 823.96875 927.920898438 787.953125 c 6,22,-1
 927.920898438 662.717773438 l 5,23,24
 700 598 700 598 531.912109375 429.842773438 c 4,25,26
 413 311 413 311 349.670898438 222.502929688 c 4,27,28
 196 6 196 6 122.670898438 6 c 6,29,-1
 91.34375 6 l 5,0,1
EndSplineSet
EndChar

StartChar: uniFB8F
Encoding: 64399 64399 104
Width: 1871
VWidth: 2288
GlyphClass: 2
Flags: W
AnchorPoint: "Anchor-10" 414.756 1200.86 basechar 0
AnchorPoint: "Anchor-7" 498.496 -268.828 basechar 0
LayerCount: 2
Fore
SplineSet
935.5703125 -0.6875 m 9,0,1
 760 -5 760 -5 620 3.748046875 c 0,2,3
 383 18 383 18 271 90 c 0,4,5
 92 205 92 205 94 452 c 0,6,7
 95 570 95 570 130 652 c 0,8,9
 150 698 150 698 178 694.5 c 128,-1,10
 206 691 206 691 193.059494789 625.715770771 c 0,11,12
 177.248553606 545.950329498 177.248553606 545.950329498 179 483 c 4,13,14
 186 246 186 246 550.649414062 193.732421875 c 0,15,16
 646 180 646 180 939.5 180.5 c 144,-1,17
 1233 181 1233 181 1340.5703125 235 c 0,18,19
 1408 269 1408 269 1401 322 c 0,20,21
 1398 347 1398 347 1359.5703125 401 c 0,22,23
 1046 843 1046 843 1015.5703125 928 c 0,24,25
 965.079590082 1068.77808716 965.079590082 1068.77808716 1134.94238281 1145.12109375 c 2,26,-1
 1814.0546875 1450.34082031 l 1,27,-1
 1814.0546875 1427.98046875 l 2,28,29
 1813.99983251 1277.54065992 1813.99983251 1277.54065992 1589.5703125 1183 c 2,30,-1
 1149.85742188 997.771484375 l 1,31,32
 1406 543 1406 543 1622.28125 274.689453125 c 0,33,34
 1700.37897729 178.533392781 1700.37897729 178.533392781 1846.12988281 178.918945312 c 2,35,-1
 1881.5703125 179.012695312 l 1,36,-1
 1881.5703125 0 l 1,37,-1
 1814 0 l 2,38,39
 1648 0 1648 0 1495.5703125 202 c 1,40,41
 1386 0 1386 0 935.5703125 -0.6875 c 9,0,1
EndSplineSet
EndChar

StartChar: uniFB9F
Encoding: 64415 64415 112
Width: 1418
VWidth: 2316
GlyphClass: 2
Flags: W
AnchorPoint: "Anchor-10" 337.69 753.27 basechar 0
AnchorPoint: "Anchor-7" 237.648 -744.038 basechar 0
LayerCount: 2
Fore
SplineSet
1259.046875 63 m 1,0,1
 1261 -37 1261 -37 1242.83 -111 c 0,2,3
 1148 -496 1148 -496 648.084 -505.362 c 0,4,5
 327 -511 327 -511 173.271 -311.941 c 0,6,7
 53 -155 53 -155 106 106 c 0,8,9
 125.358664968 201.180102758 125.358664968 201.180102758 176.451 312.032 c 0,10,11
 203 369 203 369 236.5 359.5 c 128,-1,12
 270 350 270 350 246.134677364 285 c 0,13,14
 167 67 167 67 218.178 -101.305 c 0,15,16
 290 -337 290 -337 643.852 -335.804 c 0,17,18
 1124 -334 1124 -334 1152.83 -13.9688 c 0,19,20
 1161 78 1161 78 1095.04980469 238.874023438 c 0,21,22
 991.931520438 493.168874028 991.931520438 493.168874028 1134.73 530.314 c 2,23,-1
 1167.33 538.794 l 1,24,25
 1194 400 1194 400 1238.91894531 270 c 0,26,27
 1271.1145752 178.675 1271.1145752 178.675 1384.11 178.675 c 2,28,-1
 1428.89 178.675 l 1,29,-1
 1428.89 -0.337891 l 1,30,-1
 1417.38964844 -0.337890625 l 2,31,32
 1299 -0 1299 -0 1259.046875 63 c 1,0,1
EndSplineSet
EndChar

StartChar: uniFBE8
Encoding: 64488 64488 115
Width: 541
VWidth: 2290
GlyphClass: 2
Flags: W
AnchorPoint: "Anchor-10" 224.879 1056.31 basechar 0
AnchorPoint: "Anchor-7" 230.02 -216.43 basechar 0
LayerCount: 2
Fore
SplineSet
16.8212890625 -0.1796875 m 0,0,1
 -10.111328125 -0.1796875 l 1,2,-1
 -10.111328125 178.938476562 l 1,3,-1
 31.0263671875 178.938476562 l 2,4,5
 352.384765625 179 352.384765625 179 319.110351562 339.295898438 c 0,6,7
 311.098632812 377.890625 311.098632812 377.890625 298 414 c 0,8,9
 262 517 262 517 257.7578125 532.146484375 c 0,10,11
 218.171875 673.08203125 218.171875 673.08203125 360.771484375 740.99609375 c 2,12,-1
 376.126953125 748.337890625 l 1,13,14
 439 560 439 560 449.21875 390.911132812 c 0,15,16
 460 210 460 210 372.8984375 108.951171875 c 0,17,18
 276 -4 276 -4 16.8212890625 -0.1796875 c 0,0,1
EndSplineSet
EndChar

StartChar: uniFBE9
Encoding: 64489 64489 116
Width: 664
VWidth: 2294
GlyphClass: 2
Flags: W
AnchorPoint: "Anchor-10" 315.928 1005.08 basechar 0
AnchorPoint: "Anchor-7" 296.848 -145.025 basechar 0
LayerCount: 2
Fore
SplineSet
58.4766 0.705078 m 2,0,-1
 -10.4424 -0.294922 l 1,1,-1
 -10.4424 178.824 l 1,2,-1
 46.8154 178.824 l 2,3,4
 165 179 165 179 224.63 202.596 c 4,5,6
 287.949630964 227.979807874 287.949630964 227.979807874 301.63 334.596 c 6,7,-1
 314 431 l 6,8,9
 326.06789096 521.509182203 326.06789096 521.509182203 428.963867188 525.4609375 c 6,10,-1
 443 526 l 5,11,-1
 427.723 406.055 l 6,12,13
 414 296 414 296 470.63 246.596 c 4,14,15
 548.201448606 178.824 548.201448606 178.824 662.562 178.824 c 2,16,-1
 674.702 178.824 l 1,17,-1
 674.702 -0.294922 l 1,18,-1
 658.42 0.705078 l 2,19,20
 435 14 435 14 366.63 152.596 c 1,21,22
 263 4 263 4 58.4766 0.705078 c 2,0,-1
EndSplineSet
EndChar

StartChar: uniFE73
Encoding: 65139 65139 124
Width: 573
VWidth: 2186
GlyphClass: 2
Flags: W
AnchorPoint: "Anchor-10" 210.79 1279.5 basechar 0
AnchorPoint: "Anchor-7" 210.79 -111.5 basechar 0
LayerCount: 2
Fore
SplineSet
296.23 350.74 m 2,0,1
 296.23 286.506 296.23 286.506 352.468 230.268 c 0,2,3
 403.354 179.38 403.354 179.38 514.67 179.38 c 2,4,-1
 581.92 179.38 l 1,5,-1
 581.92 8.5 l 1,6,-1
 455.82 8.5 l 2,7,8
 309.266 8.5 309.266 8.5 214.633 103.133 c 0,9,10
 125.35 192.415 125.35 192.415 125.35 337.9 c 2,11,-1
 125.35 370.91 l 1,12,-1
 296.23 370.91 l 1,13,-1
 296.23 350.74 l 2,0,1
EndSplineSet
EndChar

StartChar: uniFE8E
Encoding: 65166 65166 150
Width: 513
VWidth: 2267
GlyphClass: 2
Flags: W
AnchorPoint: "Anchor-10" 188.257 1590.7 basechar 0
AnchorPoint: "Anchor-7" 241.297 -262.991 basechar 0
LayerCount: 2
Fore
SplineSet
168.650390625 484.075195312 m 2,0,-1
 128.739257812 1112.70996094 l 2,1,2
 111.997254434 1377.04334874 111.997254434 1377.04334874 265.693359375 1459.79980469 c 2,3,-1
 281.1640625 1468.12988281 l 5,4,5
 292 1197 292 1197 280 654 c 0,6,7
 273 314 273 314 339.696 242.636 c 0,8,9
 399.983342271 179.017578125 399.983342271 179.017578125 502.009765625 179.017578125 c 2,10,-1
 521.1953125 179.017578125 l 1,11,-1
 521.1953125 -0.1005859375 l 1,12,-1
 451.96875 -0.1005859375 l 2,13,14
 329 -0 329 -0 252.092773438 122.856445312 c 0,15,16
 185 229 185 229 168.650390625 484.075195312 c 2,0,-1
EndSplineSet
EndChar

StartChar: uniFEA2
Encoding: 65186 65186 170
Width: 1248
VWidth: 2291
GlyphClass: 2
Flags: W
AnchorPoint: "Anchor-10" 578.238 1112.58 basechar 0
AnchorPoint: "Anchor-7" 322.979 -884.647 basechar 0
LayerCount: 2
Fore
SplineSet
1156.67578125 624.319335938 m 1,0,-1
 1133.35546875 494.579101562 l 1,1,2
 1007 489 1007 489 969 479.951171875 c 1,3,4
 991.971415499 179.374023438 991.971415499 179.374023438 1205.29003906 179.374023438 c 2,5,-1
 1258.12011719 179.374023438 l 1,6,-1
 1258.12011719 -0.638671875 l 1,7,-1
 1212.04980469 -0.638671875 l 2,8,9
 896 -1 896 -1 870 459.348632812 c 1,10,11
 694 417 694 417 556.974753565 337.180641722 c 0,12,13
 439 269 439 269 371 189.5 c 0,14,15
 252 51 252 51 233.734185307 -96.3004499455 c 0,16,17
 219 -212 219 -212 249 -285 c 0,18,19
 344 -517 344 -517 803.839393049 -517.074959719 c 0,20,21
 1011 -517 1011 -517 1157 -476 c 1,22,23
 1115 -588 1115 -588 995.87109375 -644.123046875 c 0,24,25
 901 -689 901 -689 719.553328591 -689.06414084 c 0,26,27
 353 -689 353 -689 195.377705777 -504.936188163 c 0,28,29
 92 -384 92 -384 91.755411555 -196.313699288 c 0,30,31
 92 76 92 76 253 247 c 4,32,33
 496 504 496 504 885 555 c 1,34,35
 747 596 747 596 668 631 c 0,36,37
 518 697 518 697 418.015625 683.081054688 c 0,38,39
 290 666 290 666 194.946289062 476.51953125 c 1,40,-1
 186.471679688 476.6328125 l 2,41,42
 171 477 171 477 206.6875 599.01953125 c 0,43,44
 279 849 279 849 450.946289062 843.51953125 c 0,45,46
 581 840 581 840 736.015625 753.081054688 c 0,47,48
 912 655 912 655 1049.84570312 631.9140625 c 0,49,50
 1096 624 1096 624 1156.67578125 624.319335938 c 1,0,-1
EndSplineSet
EndChar

StartChar: uniFEA3
Encoding: 65187 65187 171
Width: 1287
VWidth: 2291
GlyphClass: 2
Flags: W
AnchorPoint: "Anchor-10" 287.645 1095.46 basechar 0
AnchorPoint: "Anchor-7" 494.345 -241.447 basechar 0
LayerCount: 2
Fore
SplineSet
813 259 m 24,0,1
 594 184 594 184 491 133 c 0,2,3
 221 -0 221 -0 49.4951171875 -0.4365234375 c 2,4,-1
 -9.9794921875 -0.4365234375 l 1,5,-1
 -9.9794921875 179.681640625 l 1,6,-1
 6.12012 179.682 l 2,7,8
 258.794240245 179.985346446 258.794240245 179.985346446 547 303 c 0,9,10
 711 373 711 373 875.154 398.086 c 1,11,12
 710 442 710 442 595.314 497.726 c 0,13,14
 423 582 423 582 333.069 569.562 c 0,15,16
 204 551 204 551 110 363 c 1,17,-1
 101.525390625 363.11328125 l 2,18,19
 87 363 87 363 121.741210938 485.5 c 0,20,21
 192 730 192 730 366 735 c 0,22,23
 459 738 459 738 709.955 604.006 c 0,24,25
 871 518 871 518 1040 489 c 0,26,27
 1086 481 1086 481 1197.83007812 481.405273438 c 1,28,-1
 1158.50976562 340.845703125 l 1,29,30
 1013 327 1013 327 813 259 c 24,0,1
EndSplineSet
EndChar

StartChar: uniFEA4
Encoding: 65188 65188 172
Width: 1287
VWidth: 2291
GlyphClass: 2
Flags: W
AnchorPoint: "Anchor-10" 364.224 1117.15 basechar 0
AnchorPoint: "Anchor-7" 542.304 -249.39 basechar 0
LayerCount: 2
Fore
SplineSet
829 265 m 1,0,1
 706 246 706 246 491 133 c 0,2,3
 235 -0 235 -0 49.4951171875 -0.4365234375 c 2,4,-1
 -9.9794921875 -0.4365234375 l 1,5,-1
 -9.9794921875 179.681640625 l 1,6,-1
 6.12012 179.682 l 2,7,8
 271 180 271 180 547 303 c 0,9,10
 677 361 677 361 875.154 398.086 c 1,11,12
 710 442 710 442 595.314 497.726 c 0,13,14
 423 582 423 582 333.069 569.562 c 0,15,16
 204 551 204 551 110 363 c 1,17,-1
 101.525390625 363.11328125 l 2,18,19
 87 363 87 363 121.741210938 485.5 c 0,20,21
 192 730 192 730 366 735 c 0,22,23
 459 738 459 738 709.955 604.006 c 0,24,25
 871 518 871 518 1040 489 c 0,26,27
 1086 481 1086 481 1197.83007812 481.405273438 c 1,28,-1
 1158.50976562 340.845703125 l 1,29,30
 987 323 987 323 921 295 c 1,31,32
 931.983608904 179.172851562 931.983608904 179.172851562 1093.58007812 179.172851562 c 2,33,-1
 1297.5 179.172851562 l 1,34,-1
 1297.5 -0.900390625 l 1,35,-1
 1118.8984375 -0.900390625 l 2,36,37
 912.968544408 -0.900390625 912.968544408 -0.900390625 829 265 c 1,0,1
EndSplineSet
EndChar

StartChar: uniFEAA
Encoding: 65194 65194 178
Width: 1049
VWidth: 2285
GlyphClass: 2
Flags: W
AnchorPoint: "Anchor-10" 452.035 1171.14 basechar 0
AnchorPoint: "Anchor-7" 357.176 -276.449 basechar 0
LayerCount: 2
Fore
SplineSet
678.834 341.957 m 2,0,-1
 548.91 545.903 l 2,1,2
 395.107838885 786.831072499 395.107838885 786.831072499 534.07 860.615 c 2,3,-1
 554.077 871.238 l 1,4,-1
 790.983 408.345 l 2,5,6
 906.807116403 181.377971516 906.807116403 181.377971516 1040.75 178.703125 c 2,7,-1
 1063.29 178.253 l 1,8,-1
 1063.29 -0.759766 l 1,9,-1
 1038.69 -0.759766 l 2,10,11
 890 -1 890 -1 776.312 151.115 c 1,12,13
 614 -37 614 -37 323.749 -30.3945 c 0,14,15
 305 -30 305 -30 286.119 -28.8184 c 0,16,17
 60.6172 -14.9765027229 60.6172 -14.9765027229 60.6172 177.13 c 2,18,-1
 60.6172 204.835 l 1,19,20
 179 155 179 155 334.35 150.866 c 0,21,22
 482 147 482 147 608 203 c 4,23,24
 707 247 707 247 689.271484375 319.474609375 c 0,25,26
 687 329 687 329 678.834 341.957 c 2,0,-1
EndSplineSet
EndChar

StartChar: uniFEAE
Encoding: 65198 65198 182
Width: 954
VWidth: 2314
GlyphClass: 2
Flags: W
AnchorPoint: "Anchor-10" 489.796 864.783 basechar 0
AnchorPoint: "Anchor-7" 461.097 -661.14 basechar 0
LayerCount: 2
Fore
SplineSet
771.361 278.335 m 1,0,1
 779.428 178.822 779.428 178.822 922.727 178.822 c 2,2,-1
 962.532 178.822 l 1,3,-1
 962.532 -0.294922 l 1,4,5
 903.973 -0.296883 903.973 -0.296883 903.95 -0.287109 c 2,6,7
 812.713 -0.274942 812.713 -0.274942 765.573 58.1836 c 5,8,9
 685.494 -419.763 685.494 -419.763 288 -435 c 4,10,11
 132.651 -440.962 132.651 -440.962 5.31445 -321.4 c 5,12,13
 686.413 -244.851 686.413 -244.851 657.573 122.186 c 4,14,15
 653.573 173.185 653.573 173.185 609.717 281.783 c 0,16,17
 550.379 430.242 550.379 430.242 656.686 511.224 c 2,18,-1
 694.256 539.844 l 1,19,20
 741.59 401.333 741.59 401.333 771.361 278.335 c 1,0,1
EndSplineSet
PairPos2: "'kern' Horizontal Kerning lookup 15-1" uniFB7C dx=-150 dy=0 dh=-150 dv=0 dx=0 dy=0 dh=0 dv=0
PairPos2: "'kern' Horizontal Kerning lookup 15-1" uniFB90 dx=-350 dy=0 dh=-350 dv=0 dx=0 dy=0 dh=0 dv=0
PairPos2: "'kern' Horizontal Kerning lookup 15-1" uniFB8E dx=-350 dy=0 dh=-350 dv=0 dx=0 dy=0 dh=0 dv=0
PairPos2: "'kern' Horizontal Kerning lookup 15-1" uni06A9 dx=-350 dy=0 dh=-350 dv=0 dx=0 dy=0 dh=0 dv=0
PairPos2: "'kern' Horizontal Kerning lookup 15-1" uni064A dx=-100 dy=0 dh=-100 dv=0 dx=0 dy=0 dh=0 dv=0
PairPos2: "'kern' Horizontal Kerning lookup 15-1" afii57414 dx=-100 dy=0 dh=-100 dv=0 dx=0 dy=0 dh=0 dv=0
PairPos2: "'kern' Horizontal Kerning lookup 15-1" uni0649 dx=-100 dy=0 dh=-100 dv=0 dx=0 dy=0 dh=0 dv=0
PairPos2: "'kern' Horizontal Kerning lookup 15-1" uni0648 dx=-80 dy=0 dh=-80 dv=0 dx=0 dy=0 dh=0 dv=0
PairPos2: "'kern' Horizontal Kerning lookup 15-1" afii57412 dx=-80 dy=0 dh=-80 dv=0 dx=0 dy=0 dh=0 dv=0
PairPos2: "'kern' Horizontal Kerning lookup 15-1" uniFEEB dx=-250 dy=0 dh=-250 dv=0 dx=0 dy=0 dh=0 dv=0
PairPos2: "'kern' Horizontal Kerning lookup 15-1" uni0647 dx=-250 dy=0 dh=-250 dv=0 dx=0 dy=0 dh=0 dv=0
PairPos2: "'kern' Horizontal Kerning lookup 15-1" uniFEE7 dx=-250 dy=0 dh=-250 dv=0 dx=0 dy=0 dh=0 dv=0
PairPos2: "'kern' Horizontal Kerning lookup 15-1" uni0646 dx=-100 dy=0 dh=-200 dv=0 dx=0 dy=0 dh=0 dv=0
PairPos2: "'kern' Horizontal Kerning lookup 15-1" uniFEE3 dx=-250 dy=0 dh=-250 dv=0 dx=0 dy=0 dh=0 dv=0
PairPos2: "'kern' Horizontal Kerning lookup 15-1" uni0645 dx=-250 dy=0 dh=-250 dv=0 dx=0 dy=0 dh=0 dv=0
PairPos2: "'kern' Horizontal Kerning lookup 15-1" uniFEFB dx=-250 dy=0 dh=-250 dv=0 dx=0 dy=0 dh=0 dv=0
PairPos2: "'kern' Horizontal Kerning lookup 15-1" uniFEDF dx=-250 dy=0 dh=-250 dv=0 dx=0 dy=0 dh=0 dv=0
PairPos2: "'kern' Horizontal Kerning lookup 15-1" uni0644 dx=-80 dy=0 dh=-80 dv=0 dx=0 dy=0 dh=0 dv=0
PairPos2: "'kern' Horizontal Kerning lookup 15-1" uniFEDB dx=-350 dy=0 dh=-350 dv=0 dx=0 dy=0 dh=0 dv=0
PairPos2: "'kern' Horizontal Kerning lookup 15-1" uni0643 dx=-250 dy=0 dh=-250 dv=0 dx=0 dy=0 dh=0 dv=0
PairPos2: "'kern' Horizontal Kerning lookup 15-1" uniFED7 dx=-250 dy=0 dh=-250 dv=0 dx=0 dy=0 dh=0 dv=0
PairPos2: "'kern' Horizontal Kerning lookup 15-1" uni0642 dx=-100 dy=0 dh=-100 dv=0 dx=0 dy=0 dh=0 dv=0
PairPos2: "'kern' Horizontal Kerning lookup 15-1" uniFED3 dx=-250 dy=0 dh=-250 dv=0 dx=0 dy=0 dh=0 dv=0
PairPos2: "'kern' Horizontal Kerning lookup 15-1" uni0641 dx=-250 dy=0 dh=-250 dv=0 dx=0 dy=0 dh=0 dv=0
PairPos2: "'kern' Horizontal Kerning lookup 15-1" uniFECF dx=-250 dy=0 dh=-250 dv=0 dx=0 dy=0 dh=0 dv=0
PairPos2: "'kern' Horizontal Kerning lookup 15-1" uniFECB dx=-250 dy=0 dh=-250 dv=0 dx=0 dy=0 dh=0 dv=0
PairPos2: "'kern' Horizontal Kerning lookup 15-1" uniFEC7 dx=-250 dy=0 dh=-250 dv=0 dx=0 dy=0 dh=0 dv=0
PairPos2: "'kern' Horizontal Kerning lookup 15-1" uni0638 dx=-250 dy=0 dh=-250 dv=0 dx=0 dy=0 dh=0 dv=0
PairPos2: "'kern' Horizontal Kerning lookup 15-1" uniFEC3 dx=-250 dy=0 dh=-250 dv=0 dx=0 dy=0 dh=0 dv=0
PairPos2: "'kern' Horizontal Kerning lookup 15-1" uni0637 dx=-250 dy=0 dh=-250 dv=0 dx=0 dy=0 dh=0 dv=0
PairPos2: "'kern' Horizontal Kerning lookup 15-1" uniFEBF dx=-250 dy=0 dh=-250 dv=0 dx=0 dy=0 dh=0 dv=0
PairPos2: "'kern' Horizontal Kerning lookup 15-1" uni0636 dx=-250 dy=0 dh=-250 dv=0 dx=0 dy=0 dh=0 dv=0
PairPos2: "'kern' Horizontal Kerning lookup 15-1" uniFEBB dx=-250 dy=0 dh=-250 dv=0 dx=0 dy=0 dh=0 dv=0
PairPos2: "'kern' Horizontal Kerning lookup 15-1" uni0635 dx=-250 dy=0 dh=-250 dv=0 dx=0 dy=0 dh=0 dv=0
PairPos2: "'kern' Horizontal Kerning lookup 15-1" uniFEB7 dx=-250 dy=0 dh=-250 dv=0 dx=0 dy=0 dh=0 dv=0
PairPos2: "'kern' Horizontal Kerning lookup 15-1" uni0634 dx=-250 dy=0 dh=-250 dv=0 dx=0 dy=0 dh=0 dv=0
PairPos2: "'kern' Horizontal Kerning lookup 15-1" uniFEB3 dx=-250 dy=0 dh=-250 dv=0 dx=0 dy=0 dh=0 dv=0
PairPos2: "'kern' Horizontal Kerning lookup 15-1" uni0633 dx=-250 dy=0 dh=-250 dv=0 dx=0 dy=0 dh=0 dv=0
PairPos2: "'kern' Horizontal Kerning lookup 15-1" uni0632 dx=-80 dy=0 dh=-80 dv=0 dx=0 dy=0 dh=0 dv=0
PairPos2: "'kern' Horizontal Kerning lookup 15-1" uni0631 dx=-80 dy=0 dh=-80 dv=0 dx=0 dy=0 dh=0 dv=0
PairPos2: "'kern' Horizontal Kerning lookup 15-1" uni0630 dx=-250 dy=0 dh=-250 dv=0 dx=0 dy=0 dh=0 dv=0
PairPos2: "'kern' Horizontal Kerning lookup 15-1" uni062F dx=-250 dy=0 dh=-250 dv=0 dx=0 dy=0 dh=0 dv=0
PairPos2: "'kern' Horizontal Kerning lookup 15-1" uniFEA7 dx=-250 dy=0 dh=-250 dv=0 dx=0 dy=0 dh=0 dv=0
PairPos2: "'kern' Horizontal Kerning lookup 15-1" uniFEA3 dx=-250 dy=0 dh=-250 dv=0 dx=0 dy=0 dh=0 dv=0
PairPos2: "'kern' Horizontal Kerning lookup 15-1" uniFE9F dx=-250 dy=0 dh=-250 dv=0 dx=0 dy=0 dh=0 dv=0
PairPos2: "'kern' Horizontal Kerning lookup 15-1" uniFE9B dx=-250 dy=0 dh=-250 dv=0 dx=0 dy=0 dh=0 dv=0
PairPos2: "'kern' Horizontal Kerning lookup 15-1" uni062B dx=-250 dy=0 dh=-250 dv=0 dx=0 dy=0 dh=0 dv=0
PairPos2: "'kern' Horizontal Kerning lookup 15-1" uniFE97 dx=-250 dy=0 dh=-250 dv=0 dx=0 dy=0 dh=0 dv=0
PairPos2: "'kern' Horizontal Kerning lookup 15-1" uni062A dx=-250 dy=0 dh=-250 dv=0 dx=0 dy=0 dh=0 dv=0
PairPos2: "'kern' Horizontal Kerning lookup 15-1" uni0629 dx=-250 dy=0 dh=-250 dv=0 dx=0 dy=0 dh=0 dv=0
PairPos2: "'kern' Horizontal Kerning lookup 15-1" uniFE91 dx=-50 dy=0 dh=-50 dv=0 dx=0 dy=0 dh=0 dv=0
PairPos2: "'kern' Horizontal Kerning lookup 15-1" uni0628 dx=-250 dy=0 dh=-250 dv=0 dx=0 dy=0 dh=0 dv=0
PairPos2: "'kern' Horizontal Kerning lookup 15-1" uni0627 dx=-250 dy=0 dh=-250 dv=0 dx=0 dy=0 dh=0 dv=0
PairPos2: "'kern' Horizontal Kerning lookup 15-1" uni0623 dx=-250 dy=0 dh=-250 dv=0 dx=0 dy=0 dh=0 dv=0
PairPos2: "'kern' Horizontal Kerning lookup 15-1" uni0622 dx=-250 dy=0 dh=-250 dv=0 dx=0 dy=0 dh=0 dv=0
PairPos2: "'kern' Horizontal Kerning lookup 15-1" uni0621 dx=-250 dy=0 dh=-250 dv=0 dx=0 dy=0 dh=0 dv=0
PairPos2: "'kern' Horizontal Kerning lookup 15-1" uniFB94 dx=-350 dy=0 dh=-350 dv=0 dx=0 dy=0 dh=0 dv=0
PairPos2: "'kern' Horizontal Kerning lookup 15-1" uniFB92 dx=-350 dy=0 dh=-350 dv=0 dx=0 dy=0 dh=0 dv=0
PairPos2: "'kern' Horizontal Kerning lookup 15-1" afii57509 dx=-350 dy=0 dh=-350 dv=0 dx=0 dy=0 dh=0 dv=0
PairPos2: "'kern' Horizontal Kerning lookup 15-1" afii57508 dx=-80 dy=0 dh=-80 dv=0 dx=0 dy=0 dh=0 dv=0
PairPos2: "'kern' Horizontal Kerning lookup 15-1" afii57506 dx=-250 dy=0 dh=-250 dv=0 dx=0 dy=0 dh=0 dv=0
PairPos2: "'kern' Horizontal Kerning lookup 15-1" afii57440 dx=-250 dy=0 dh=-250 dv=0 dx=0 dy=0 dh=0 dv=0
PairPos2: "'kern' Horizontal Kerning lookup 15-1" uniFE8B dx=-250 dy=0 dh=-250 dv=0 dx=0 dy=0 dh=0 dv=0
EndChar

StartChar: uniFEB2
Encoding: 65202 65202 186
Width: 2436
VWidth: 2316
GlyphClass: 2
Flags: W
AnchorPoint: "Anchor-10" 560.867 931.321 basechar 0
AnchorPoint: "Anchor-7" 385.967 -746.659 basechar 0
LayerCount: 2
Fore
SplineSet
1259.046875 63 m 1,0,1
 1261 -37 1261 -37 1242.83007812 -111 c 0,2,3
 1148 -496 1148 -496 648.083984375 -505.362304688 c 0,4,5
 327 -511 327 -511 173.271484375 -311.94140625 c 0,6,7
 53 -155 53 -155 106 106 c 0,8,9
 125.358759212 201.180566126 125.358759212 201.180566126 176.451171875 312.032226562 c 0,10,11
 203 369 203 369 236.5 359.5 c 128,-1,12
 270 350 270 350 246.134765625 285 c 0,13,14
 167 67 167 67 218.177734375 -101.3046875 c 0,15,16
 290 -337 290 -337 643.8515625 -335.803710938 c 0,17,18
 1124 -334 1124 -334 1152.83007812 -13.96875 c 0,19,20
 1161 78 1161 78 1095.04980469 238.874023438 c 0,21,22
 991.930746266 493.170783173 991.930746266 493.170783173 1134.73046875 530.314453125 c 2,23,-1
 1167.33007812 538.793945312 l 1,24,25
 1192 409 1192 409 1238.91894531 270 c 24,26,27
 1273.12417711 169.635641826 1273.12417711 169.635641826 1404.96972656 171.8203125 c 2,28,-1
 1443.16015625 172.453125 l 1,29,30
 1553.45158942 170.994025703 1553.45158942 170.994025703 1601.55957031 336.715820312 c 2,31,-1
 1625.87988281 420.494140625 l 2,32,33
 1652.09604032 510.329101562 1652.09604032 510.329101562 1729.1796875 510.329101562 c 2,34,-1
 1741.33984375 510.329101562 l 1,35,-1
 1735.04003906 401.1015625 l 2,36,37
 1721 159 1721 159 1916.80957031 169.60546875 c 0,38,39
 2057.27755525 177.014640022 2057.27755525 177.014640022 2065.87988281 366.865234375 c 2,40,-1
 2068.15039062 416.974609375 l 2,41,42
 2075.97746007 585.514648438 2075.97746007 585.514648438 2169.99023438 585.514648438 c 2,43,-1
 2187.54003906 585.514648438 l 1,44,-1
 2187.04003906 400.60546875 l 2,45,46
 2186.6115852 242.155365918 2186.6115852 242.155365918 2282 204 c 0,47,48
 2339 182 2339 182 2419.1796875 181.52734375 c 2,49,-1
 2446.48046875 181.52734375 l 1,50,-1
 2446.48046875 1.455078125 l 1,51,-1
 2425.70019531 1.455078125 l 2,52,53
 2184 1 2184 1 2132.87011719 167.478515625 c 1,54,55
 2065 8 2065 8 1894.95019531 3.7060546875 c 8,56,57
 1827 2 1827 2 1793.11035156 17.9150390625 c 0,58,59
 1702 61 1702 61 1659.87011719 179.478515625 c 1,60,61
 1595 1 1595 1 1439.76953125 1.4609375 c 2,62,-1
 1413.25976562 1.4609375 l 2,63,64
 1303 1 1303 1 1259.046875 63 c 1,0,1
EndSplineSet
EndChar

StartChar: uniFEB3
Encoding: 65203 65203 187
Width: 1370
VWidth: 2290
GlyphClass: 2
Flags: W
AnchorPoint: "Anchor-10" 640.331 989.511 basechar 0
AnchorPoint: "Anchor-7" 619.53 -222.6 basechar 0
LayerCount: 2
Fore
SplineSet
999.16 180.319 m 0,0,1
 1124 177 1124 177 1151 260 c 0,2,3
 1168 310 1168 310 1130 413 c 0,4,5
 1106 478 1106 478 1091.84960938 532.688476562 c 0,6,7
 1052.12254873 675.559276871 1052.12254873 675.559276871 1190.09 741.507 c 2,8,-1
 1205.45 748.849 l 1,9,10
 1268 561 1268 561 1278.54 391.422 c 0,11,12
 1289 211 1289 211 1202.22 109.462 c 0,13,14
 1109 2 1109 2 982.49 0.331055 c 24,15,16
 921 -0 921 -0 886.502 16.2607 c 0,17,18
 791 62 791 62 753.155 170.319 c 1,19,20
 694 -0 694 -0 516.165 -0.193359 c 0,21,22
 347 0 347 0 284.155 164.319 c 5,23,24
 250 84 250 84 189.653 43.3076 c 0,25,26
 124.702590169 -0.199219 124.702590169 -0.199219 27.8633 -0.199219 c 2,27,-1
 -10.3438 -0.199219 l 1,28,-1
 -10.3438 178.92 l 1,29,-1
 17.4814 178.92 l 2,30,31
 220.448730169 179.00017726 220.448730169 179.00017726 240.471 308.521 c 6,32,-1
 251.462 379.62 l 6,33,34
 270.931744308 506.555 270.931744308 506.555 359.996 506.555 c 6,35,-1
 377.463 506.555 l 5,36,-1
 365.447 399.614 l 6,37,38
 340 173 340 173 519.555 170.799 c 4,39,40
 659.559804338 169.005638592 659.559804338 169.005638592 695.957 323.342 c 2,41,-1
 709.979 382.8 l 2,42,43
 738.896019767 506.555 738.896019767 506.555 821.276 506.555 c 2,44,-1
 833.435 506.555 l 1,45,-1
 827.432 436.947 l 2,46,47
 806 186 806 186 999.16 180.319 c 0,0,1
EndSplineSet
EndChar

StartChar: uniFEB4
Encoding: 65204 65204 188
Width: 1546
VWidth: 2295
GlyphClass: 2
Flags: W
AnchorPoint: "Anchor-10" 606.883 988.88 basechar 0
AnchorPoint: "Anchor-7" 705.463 -239.13 basechar 0
LayerCount: 2
Fore
SplineSet
1013.56 167.621 m 0,0,1
 1142.98281501 173.999153098 1142.98281501 173.999153098 1151.63 364.881 c 2,2,-1
 1153.9 414.99 l 2,3,4
 1161.97748781 583.530273438 1161.97748781 583.530273438 1258.74023438 583.530273438 c 6,5,-1
 1287.29003906 583.530273438 l 5,6,-1
 1279.79003906 398.62109375 l 2,7,8
 1274.9159168 270.794877456 1274.9159168 270.794877456 1366.75 212.521 c 0,9,10
 1419.73424095 179.543 1419.73424095 179.543 1515.93 179.543 c 2,11,-1
 1553.23 179.543 l 1,12,-1
 1553.23 -0.529297 l 1,13,-1
 1522.45 -0.529297 l 2,14,15
 1281 -1 1281 -1 1229.62 165.495 c 1,16,17
 1162 6 1162 6 991.7 1.72168 c 8,18,19
 924 0 924 0 889.854 15.9307 c 0,20,21
 799 59 799 59 756.619 177.495 c 1,22,23
 692 -1 692 -1 536.518 -0.523438 c 0,24,25
 344 0 344 0 280.619 168.495 c 1,26,27
 237 81 237 81 183.005 42.9766 c 0,28,29
 125.910228725 2.93704499005 125.910228725 2.93704499005 29.2148 0.470703 c 2,30,-1
 -9.99121 -0.529297 l 1,31,-1
 -9.99121 178.589 l 1,32,-1
 17.833 178.589 l 2,33,34
 216.458224079 179.000950361 216.458224079 179.000950361 240.823 317.231 c 2,35,-1
 258.114 415.329 l 2,36,37
 275.062814178 508.344726562 275.062814178 508.344726562 364.068359375 508.344726562 c 2,38,-1
 381.53515625 508.344726562 l 1,39,-1
 367.799804688 402.323242188 l 2,40,41
 338 173 338 173 539.907 170.469 c 0,42,43
 650.195641099 168.997389509 650.195641099 168.997389509 698.31 334.731 c 2,44,-1
 722.632 418.51 l 2,45,46
 749.101653369 508.345 749.101653369 508.345 825.928 508.345 c 2,47,-1
 838.086 508.345 l 1,48,-1
 831.784 399.117 l 2,49,50
 818 157 818 157 1013.56 167.621 c 0,0,1
EndSplineSet
EndChar

StartChar: uniFEBA
Encoding: 65210 65210 194
Width: 2540
VWidth: 2291
GlyphClass: 2
Flags: W
AnchorPoint: "Anchor-10" 593.066 895.21 basechar 0
AnchorPoint: "Anchor-7" 362.286 -719.091 basechar 0
LayerCount: 2
Fore
SplineSet
1497.78027344 179.098632812 m 1,0,-1
 1687.28222656 179.098632812 l 2,1,2
 1838 179 1838 179 1912.38085938 191.146484375 c 0,3,4
 2206 238 2206 238 2187.58691406 398.890625 c 0,5,6
 2167.84350055 563.303243929 2167.84350055 563.303243929 1995.58691406 545.890625 c 0,7,8
 1879.62509896 533.751388107 1879.62509896 533.751388107 1739.31254948 419.375694053 c 128,-1,9
 1599 305 1599 305 1497.78027344 179.098632812 c 1,0,-1
2204 147 m 1,10,11
 2155 107 2155 107 2115.78710938 83.6474609375 c 0,12,13
 1975 -1 1975 -1 1748.53222656 -0.7109375 c 2,14,-1
 1474 0 l 2,15,16
 1303 0 1303 0 1259.046875 63 c 1,17,18
 1261 -37 1261 -37 1242.83007812 -111 c 0,19,20
 1148 -496 1148 -496 648.083984375 -505.362304688 c 0,21,22
 327 -511 327 -511 173.271484375 -311.94140625 c 0,23,24
 53 -155 53 -155 106 106 c 0,25,26
 125.358759212 201.180566126 125.358759212 201.180566126 176.451171875 312.032226562 c 0,27,28
 203 369 203 369 236.5 359.5 c 128,-1,29
 270 350 270 350 246.134765625 285 c 0,30,31
 167 67 167 67 218.177734375 -101.3046875 c 0,32,33
 290 -337 290 -337 643.8515625 -335.803710938 c 0,34,35
 1124 -334 1124 -334 1152.83007812 -13.96875 c 0,36,37
 1161 78 1161 78 1095.04980469 238.874023438 c 0,38,39
 991.930746266 493.170783173 991.930746266 493.170783173 1134.73046875 530.314453125 c 2,40,-1
 1167.33007812 538.793945312 l 1,41,42
 1183 411 1183 411 1240.91894531 270 c 16,43,44
 1267 207 1267 207 1366.99609375 224.841796875 c 1,45,46
 1491 375 1491 375 1642.94726562 511.403320312 c 0,47,48
 1855 702 1855 702 2029.97070312 704.427734375 c 0,49,50
 2269 707 2269 707 2306.89746094 433.46484375 c 0,51,52
 2317 360 2317 360 2287 258 c 1,53,54
 2349.13105716 178.833007812 2349.13105716 178.833007812 2504.0703125 178.833007812 c 2,55,-1
 2549.95996094 178.833007812 l 1,56,-1
 2549.95996094 -0.1806640625 l 1,57,-1
 2481.38964844 -0.1806640625 l 2,58,59
 2278 -0 2278 -0 2204 147 c 1,10,11
EndSplineSet
EndChar

StartChar: uniFEBB
Encoding: 65211 65211 195
Width: 1582
VWidth: 2291
GlyphClass: 2
Flags: W
AnchorPoint: "Anchor-10" 535.518 1113.87 basechar 0
AnchorPoint: "Anchor-7" 661.658 -288.295 basechar 0
LayerCount: 2
Fore
SplineSet
681.780273438 179.098632812 m 5,0,-1
 871.282226562 179.098632812 l 6,1,2
 1023.53027344 179.418945312 1023.53027344 179.418945312 1096.38085938 191.146484375 c 4,3,4
 1389.94726562 238.403320312 1389.94726562 238.403320312 1371.58691406 398.890625 c 4,5,6
 1351.94726562 562.403320312 1351.94726562 562.403320312 1179.58691406 545.890625 c 4,7,8
 1065.94726562 534.403320312 1065.94726562 534.403320312 900.947265625 401.403320312 c 4,9,10
 782.947265625 305.403320312 782.947265625 305.403320312 681.780273438 179.098632812 c 5,0,-1
658 0 m 6,11,12
 422.23901538 0.610534242562 422.23901538 0.610534242562 321.08 165.445 c 5,13,14
 198.91569031 -0.114258 198.91569031 -0.114258 18.9697 -0.114258 c 6,15,-1
 -10.3047 -0.114258 l 5,16,-1
 -10.3047 179.004 l 5,17,-1
 7.58789 179.004 l 6,18,19
 123 179 123 179 184 212 c 4,20,21
 244.56021391 242.557230484 244.56021391 242.557230484 254.344726562 319.073242188 c 6,22,-1
 265.918945312 409.584960938 l 6,23,24
 280.00962689 521.076171875 280.00962689 521.076171875 390 521.076171875 c 6,25,-1
 399.279296875 521.076171875 l 5,26,-1
 384.178 385.926 l 6,27,28
 368 245 368 245 550.99609375 224.841796875 c 5,29,30
 675 375 675 375 826.947265625 511.403320312 c 4,31,32
 1039 702 1039 702 1213.97070312 704.427734375 c 4,33,34
 1453 707 1453 707 1490.89746094 433.46484375 c 4,35,36
 1521 217 1521 217 1299.78710938 83.6474609375 c 4,37,38
 1158.50747105 -1.29613027459 1158.50747105 -1.29613027459 932.532226562 -0.7109375 c 6,39,-1
 658 0 l 6,11,12
EndSplineSet
EndChar

StartChar: uniFEBC
Encoding: 65212 65212 196
Width: 1724
VWidth: 2291
GlyphClass: 2
Flags: W
AnchorPoint: "Anchor-10" 563.178 1182.7 basechar 0
AnchorPoint: "Anchor-7" 654.338 -295.466 basechar 0
LayerCount: 2
Fore
SplineSet
681.780273438 179.098632812 m 5,0,-1
 871.282226562 179.098632812 l 6,1,2
 1023.53027344 179.418945312 1023.53027344 179.418945312 1096.38085938 191.146484375 c 4,3,4
 1389.94726562 238.403320312 1389.94726562 238.403320312 1371.58691406 398.890625 c 4,5,6
 1351.94726562 562.403320312 1351.94726562 562.403320312 1179.58691406 545.890625 c 4,7,8
 1065.94726562 534.403320312 1065.94726562 534.403320312 900.947265625 401.403320312 c 4,9,10
 782.947265625 305.403320312 782.947265625 305.403320312 681.780273438 179.098632812 c 5,0,-1
1389.15039062 146.952148438 m 5,11,12
 1358 119 1358 119 1299.78710938 83.6474609375 c 4,13,14
 1158.50747105 -1.29613027459 1158.50747105 -1.29613027459 932.532226562 -0.7109375 c 6,15,-1
 658 0 l 6,16,17
 422 1 422 1 321.08 165.445 c 5,18,19
 198.91569031 -0.114258 198.91569031 -0.114258 18.9697 -0.114258 c 6,20,-1
 -10.3047 -0.114258 l 5,21,-1
 -10.3047 179.004 l 5,22,-1
 7.58789 179.004 l 6,23,24
 123 179 123 179 184 212 c 132,-1,25
 244.863114408 244.925947139 244.863114408 244.925947139 254.344726562 319.073242188 c 6,26,-1
 265.918945312 409.584960938 l 6,27,28
 280.00962689 521.076171875 280.00962689 521.076171875 390 521.076171875 c 6,29,-1
 399.279296875 521.076171875 l 5,30,-1
 384.178 385.926 l 6,31,32
 368 245 368 245 550.99609375 224.841796875 c 5,33,34
 675 375 675 375 826.947265625 511.403320312 c 4,35,36
 1039 702 1039 702 1213.97070312 704.427734375 c 4,37,38
 1451.71028106 707.018638776 1451.71028106 707.018638776 1490.89746094 433.46484375 c 4,39,40
 1504 340 1504 340 1470.66015625 262.952148438 c 5,41,42
 1538.25927959 178.676757812 1538.25927959 178.676757812 1688.29003906 178.676757812 c 6,43,-1
 1734.1796875 178.676757812 l 5,44,-1
 1734.1796875 -0.3359375 l 5,45,-1
 1665.59960938 -0.3359375 l 6,46,47
 1458 -0 1458 -0 1389.15039062 146.952148438 c 5,11,12
EndSplineSet
EndChar

StartChar: uniFEC2
Encoding: 65218 65218 202
Width: 1554
VWidth: 2291
GlyphClass: 2
Flags: W
AnchorPoint: "Anchor-7" 649.472 -282.627 basechar 0
AnchorPoint: "Anchor-10" 239.684 1564.11 basechar 0
LayerCount: 2
Fore
SplineSet
513.833007812 179.6953125 m 1,0,-1
 703.334960938 179.6953125 l 2,1,2
 855.583007812 180.015625 855.583007812 180.015625 928.43359375 191.743164062 c 0,3,4
 1222 239 1222 239 1203.63964844 399.487304688 c 0,5,6
 1184 563 1184 563 1011.63964844 546.487304688 c 0,7,8
 898 535 898 535 733 402 c 0,9,10
 615 306 615 306 513.833007812 179.6953125 c 1,0,-1
902.434 191.743 m 1024,11,12
1225 152 m 1,13,14
 1203 127 1203 127 1131.83984375 84.244140625 c 0,15,16
 991.492576668 -0.701865085709 991.492576668 -0.701865085709 764.584960938 -0.1142578125 c 2,17,-1
 490.052734375 0.5966796875 l 2,18,-1
 343.696289062 0.1416015625 l 2,19,20
 80.6962890625 -1.00131983928 80.6962890625 -1.00131983928 80.6962890625 164 c 2,21,-1
 80.6962890625 178.958007812 l 1,22,-1
 287.421875 178.9921875 l 1,23,-1
 223.336914062 1110.66992188 l 2,24,25
 204.984788399 1371.21595986 204.984788399 1371.21595986 363.794921875 1458.09960938 c 2,26,-1
 383.754882812 1469.01953125 l 1,27,-1
 383.048828125 225.438476562 l 1,28,29
 507 376 507 376 659 512 c 0,30,31
 871 703 871 703 1046.0234375 705.024414062 c 0,32,33
 1287 708 1287 708 1322.95019531 434.061523438 c 0,34,35
 1334 350 1334 350 1302 258 c 1,36,37
 1362.67877275 179.416015625 1362.67877275 179.416015625 1518.66992188 179.416015625 c 2,38,-1
 1564.55957031 179.416015625 l 1,39,-1
 1564.55957031 0.4033203125 l 1,40,-1
 1521.4296875 0.4033203125 l 2,41,42
 1298 0 1298 0 1225 152 c 1,13,14
EndSplineSet
EndChar

StartChar: uniFEC3
Encoding: 65219 65219 203
Width: 1305
VWidth: 2291
GlyphClass: 2
Flags: W
AnchorPoint: "Anchor-10" 211.85 1586.07 basechar 0
AnchorPoint: "Anchor-7" 482.85 -296.406 basechar 0
LayerCount: 2
Fore
SplineSet
404.833007812 179.6953125 m 5,0,-1
 594.334960938 179.6953125 l 6,1,2
 746.583007812 180.015625 746.583007812 180.015625 819.43359375 191.743164062 c 4,3,4
 1113 239 1113 239 1094.63964844 399.487304688 c 4,5,6
 1075 563 1075 563 902.639648438 546.487304688 c 4,7,8
 789 535 789 535 624 402 c 4,9,10
 506 306 506 306 404.833007812 179.6953125 c 5,0,-1
381.052734375 0.5966796875 m 6,11,-1
 -20.6797 -0.126953 l 5,12,-1
 -20.6797 178.991 l 5,13,-1
 178.422 178.992 l 5,14,-1
 114.337 1110.67 l 6,15,16
 96.3999 1371.44 96.3999 1371.44 254.795 1458.1 c 6,17,-1
 274.755 1469.02 l 5,18,-1
 274.048828125 225.438476562 l 5,19,20
 398 376 398 376 550 512 c 4,21,22
 762 703 762 703 937.0234375 705.024414062 c 4,23,24
 1176 708 1176 708 1213.95019531 434.061523438 c 4,25,26
 1244 218 1244 218 1022.83984375 84.244140625 c 4,27,28
 882 -1 882 -1 655.584960938 -0.1142578125 c 6,29,-1
 381.052734375 0.5966796875 l 6,11,-1
1102.64 399.486 m 1028,30,31
EndSplineSet
EndChar

StartChar: uniFEC4
Encoding: 65220 65220 204
Width: 1443
VWidth: 2291
GlyphClass: 2
Flags: W
AnchorPoint: "Anchor-10" 199.939 1571.75 basechar 0
AnchorPoint: "Anchor-7" 537.047 -266.727 basechar 0
LayerCount: 2
Fore
SplineSet
404.833007812 179.6953125 m 1,0,-1
 594.334960938 179.6953125 l 2,1,2
 746.583007812 180.015625 746.583007812 180.015625 819.43359375 191.743164062 c 0,3,4
 1113 239 1113 239 1094.63964844 399.487304688 c 0,5,6
 1075 563 1075 563 902.639648438 546.487304688 c 0,7,8
 789 535 789 535 624 402 c 0,9,10
 506 306 506 306 404.833007812 179.6953125 c 1,0,-1
1102.64 399.486 m 1024,11,12
1115 152 m 5,13,14
 1081 119 1081 119 1022.83984375 84.244140625 c 0,15,16
 882.492576668 -0.701865085709 882.492576668 -0.701865085709 655.584960938 -0.1142578125 c 2,17,-1
 381.052734375 0.5966796875 l 2,18,-1
 -20.6797 -0.126953 l 1,19,-1
 -20.6797 178.991 l 1,20,-1
 178.422 178.992 l 1,21,-1
 114.337 1110.67 l 2,22,23
 95.9847953576 1371.21585999 95.9847953576 1371.21585999 254.795 1458.1 c 2,24,-1
 274.755 1469.02 l 1,25,-1
 274.048828125 225.438476562 l 1,26,27
 398 376 398 376 550 512 c 0,28,29
 762 703 762 703 937.0234375 705.024414062 c 0,30,31
 1180 708 1180 708 1213.95019531 434.061523438 c 0,32,33
 1223 360 1223 360 1200 264 c 1,34,35
 1265.6769761 179.416015625 1265.6769761 179.416015625 1407.66992188 179.416015625 c 2,36,-1
 1453.55957031 179.416015625 l 1,37,-1
 1453.55957031 0.4033203125 l 1,38,-1
 1410.4296875 0.4033203125 l 2,39,40
 1196 0 1196 0 1115 152 c 5,13,14
EndSplineSet
EndChar

StartChar: uniFECA
Encoding: 65226 65226 210
Width: 1259
VWidth: 2289
GlyphClass: 2
Flags: W
AnchorPoint: "Anchor-10" 429.886 1115.6 basechar 0
AnchorPoint: "Anchor-7" 373.457 -813.007 basechar 0
LayerCount: 2
Fore
SplineSet
721.3828125 743.50390625 m 0,0,1
 667 744 667 744 622.875976562 736.1015625 c 0,2,3
 489 713 489 713 506.884765625 671.905273438 c 0,4,5
 517 648 517 648 592 587 c 0,6,7
 629 557 629 557 662.3828125 535.259765625 c 1,8,9
 734 553 734 553 836 607 c 0,10,11
 914 649 914 649 914.478515625 672.413085938 c 0,12,13
 914 723 914 723 819.603515625 736.149414062 c 0,14,15
 767 744 767 744 721.3828125 743.50390625 c 0,0,1
542.6171875 454.08984375 m 1,16,17
 526 470 526 470 422.845703125 559.450195312 c 0,18,19
 349 623 349 623 354.307617188 699.416992188 c 0,20,21
 360 777 360 777 470.8828125 831.169921875 c 0,22,23
 561 875 561 875 708.227539062 878.036132812 c 0,24,25
 781 880 781 880 847.22265625 872.526367188 c 0,26,27
 996 856 996 856 1040.6015625 768.1328125 c 0,28,29
 1097 656 1097 656 980 568 c 0,30,31
 907 513 907 513 756 440 c 1,32,33
 977.902815198 179.114257808 977.902815198 179.114257808 1235.6796875 179.114257812 c 2,34,-1
 1269.69042969 179.114257812 l 5,35,-1
 1269.69042969 -0.8984375 l 5,36,-1
 1244.62011719 -0.8984375 l 2,37,38
 927 -1 927 -1 634 377.641601562 c 1,39,40
 594 359 594 359 556.974753565 337.180641722 c 0,41,42
 446 272 446 272 359 172 c 0,43,44
 253 49 253 49 233.734185307 -96.3004499455 c 0,45,46
 219 -212 219 -212 249 -285 c 0,47,48
 344 -517 344 -517 803.839393049 -517.074959719 c 0,49,50
 1011 -517 1011 -517 1157 -476 c 1,51,52
 1115 -588 1115 -588 995.87109375 -644.123046875 c 0,53,54
 901 -689 901 -689 719.553328591 -689.06414084 c 0,55,56
 353 -689 353 -689 195.377705777 -504.936188163 c 0,57,58
 92 -384 92 -384 91.755411555 -196.313699288 c 0,59,60
 92 39 92 39 266 242 c 0,61,62
 357 348 357 348 542.6171875 454.08984375 c 1,16,17
EndSplineSet
EndChar

StartChar: uniFECB
Encoding: 65227 65227 211
Width: 991
VWidth: 2287
GlyphClass: 2
Flags: W
AnchorPoint: "Anchor-10" 327.569 1265.15 basechar 0
AnchorPoint: "Anchor-7" 479.424 -284.284 basechar 0
LayerCount: 2
Fore
SplineSet
254.916015625 179.149414062 m 1,0,1
 63 360 63 360 112.239257812 541.24609375 c 0,2,3
 167 744 167 744 388 788 c 0,4,5
 488 808 488 808 571 784 c 0,6,7
 739 736 739 736 729.795898438 562.869140625 c 1,8,9
 579 666 579 666 422 640 c 0,10,11
 275 615 275 615 250.0390625 471.286132812 c 0,12,13
 225 326 225 326 393.24609375 224.465820312 c 0,14,15
 444.822664148 193.107818297 444.822664148 193.107818297 621.590820312 231.375976562 c 2,16,-1
 745.379882812 258.174804688 l 2,17,18
 839.474229731 278.884281812 839.474229731 278.884281812 894.391601562 125.806640625 c 2,19,-1
 899.715820312 110.965820312 l 1,20,21
 815 103 815 103 651 67 c 0,22,23
 353.529683369 -0.106098364649 353.529683369 -0.106098364649 104.986328125 -0.0703125 c 2,24,-1
 -10.31640625 -0.0537109375 l 5,25,-1
 -10.31640625 179.064453125 l 5,26,-1
 254.916015625 179.149414062 l 1,0,1
EndSplineSet
EndChar

StartChar: uniFECC
Encoding: 65228 65228 212
Width: 1042
VWidth: 2289
GlyphClass: 2
Flags: W
AnchorPoint: "Anchor-10" 454.73 1110.16 basechar 0
AnchorPoint: "Anchor-7" 492.89 -234.98 basechar 0
LayerCount: 2
Fore
SplineSet
521.833 573.604 m 0,0,1
 467.225 573.604 467.225 573.604 423.326 566.202 c 0,2,3
 289.968 544.013 289.968 544.013 307.335 502.005 c 0,4,5
 318.657 475.667 318.657 475.667 376.423 438.675 c 0,6,7
 449.135 392.11 449.135 392.11 521.833 358.36 c 1,8,9
 584 384.986 584 384.986 662.95 440.465 c 0,10,11
 714.929 477.521 714.929 477.521 714.929 502.512 c 0,12,13
 714.929 552.953 714.929 552.953 620.055 566.248 c 0,14,15
 567.553 573.604 567.553 573.604 521.833 573.604 c 0,0,1
615.45 263.101 m 1,16,17
 742.804167104 176.13372984 742.804167104 176.13372984 988.209 177.668 c 2,18,-1
 1052.08984375 178.067382812 l 5,19,-1
 1052.08984375 -0.9208984375 l 5,20,-1
 963.233 -0.920898 l 2,21,22
 697.765970835 -1.0000697959 697.765970835 -1.0000697959 519.337 169.232 c 2,23,-1
 515.68 172.721 l 1,24,-1
 512.021 169.232 l 2,25,26
 332.526538997 -1.45021653062 332.526538997 -1.45021653062 64.9473 -1.4502 c 2,27,-1
 -10.9287109375 -1.4501953125 l 1,28,-1
 -10.9287109375 177.66796875 l 1,29,-1
 39.9951 177.668 l 2,30,31
 325 178 325 178 422.068 265.19 c 1,32,33
 308 317 308 317 223.296 389.55 c 0,34,35
 149 453 149 453 154.758 529.517 c 0,36,37
 160 607 160 607 271.333 661.27 c 0,38,39
 361 705 361 705 508.678 708.135 c 0,40,41
 582 710 582 710 647.673 702.626 c 0,42,43
 798 686 798 686 841.052 598.232 c 0,44,45
 865 550 865 550 851.955 495.658 c 0,46,47
 826 385 826 385 615.45 263.101 c 1,16,17
EndSplineSet
EndChar

StartChar: uniFEDA
Encoding: 65242 65242 226
Width: 1939
VWidth: 2267
GlyphClass: 2
Flags: W
AnchorPoint: "Anchor-10" 560.702 1448.42 basechar 0
AnchorPoint: "Anchor-7" 593.562 -286.337 basechar 0
LayerCount: 2
Fore
SplineSet
965.262695312 178.171875 m 17,0,1
 1085 177 1085 177 1188.37 185.92 c 0,2,3
 1592 221 1592 221 1607.69 413.472 c 0,4,-1
 1611.84 461.896 l 2,5,-1
 1566.04 1157.53 l 2,6,7
 1550.93401465 1386.96748937 1550.93401465 1386.96748937 1705.68 1463.21 c 2,8,-1
 1721.72 1471.09 l 1,9,-1
 1721.72 430.096 l 6,10,11
 1721.72 339.677891304 1721.72 339.677891304 1694.91 262.57 c 1,12,-1
 1696.58 260.321 l 2,13,14
 1757.7060408 178.002158226 1757.7060408 178.002158226 1893.09 178.416 c 2,15,-1
 1949.20019531 178.416015625 l 1,16,-1
 1949.20019531 -0.5966796875 l 1,17,-1
 1913.71 -0.59668 l 2,18,19
 1706.65155298 -0.596681823201 1706.65155298 -0.596681823201 1597.68 125.535 c 1,20,21
 1483 56 1483 56 1327.4 29.0654 c 0,22,23
 1153 -1 1153 -1 931.564453125 -0.6484375 c 24,24,25
 693 -1 693 -1 621 3.748046875 c 0,26,27
 382 20 382 20 272 90 c 0,28,29
 93 205 93 205 95 452 c 0,30,31
 96 570 96 570 131 652 c 0,32,33
 151 698 151 698 176.5 695 c 0,34,35
 207 691 207 691 194.004882812 628 c 0,36,37
 190 607 190 607 186.762695312 575 c 0,38,39
 180 511 180 511 183.478515625 473.573242188 c 0,40,41
 206 231 206 231 551.649414062 193.732421875 c 0,42,43
 677 180 677 180 965.262695312 178.171875 c 17,0,1
1097.88 1250.8 m 1,44,-1
 1097.88 1195.74 l 1,45,46
 1024.01 1190.3 1024.01 1190.3 983.232 1175.27 c 0,47,48
 880.111 1136.61 880.111 1136.61 880.111 1085.96 c 0,49,50
 880.111 1047.65 880.111 1047.65 899.906 1022.2 c 0,51,52
 918.13 997.901 918.13 997.901 1003.03 985.414 c 0,53,54
 1055.39 977.715 1055.39 977.715 1081.82 953.577 c 0,55,56
 1107.71 929.925 1107.71 929.925 1107.71 887.469 c 0,57,58
 1107.71 785.604 1107.71 785.604 1013.15 732.129 c 0,59,60
 940.15 690.846 940.15 690.846 840.212 689.918 c 0,61,62
 776.678 689.918 776.678 689.918 720.919 699.231 c 1,63,-1
 720.919 761.19 l 1,64,65
 785.323 752.701 785.323 752.701 830.004 752.701 c 0,66,67
 909.301 752.701 909.301 752.701 960.426 772.828 c 0,68,69
 1049.84 807.168 1049.84 807.168 1049.84 864.785 c 0,70,71
 1049.84 928.954 1049.84 928.954 946.027 945.87 c 0,72,73
 885.822 955.044 885.822 955.044 853.226 988.381 c 128,-1,74
 820.548 1021.8 820.548 1021.8 821.857 1082.09 c 0,75,76
 823.848 1162.55 823.848 1162.55 898.73 1200.5 c 0,77,78
 983.854 1243.57 983.854 1243.57 1097.88 1250.8 c 1,44,-1
EndSplineSet
EndChar

StartChar: uniFEDB
Encoding: 65243 65243 227
Width: 878
VWidth: 2268
GlyphClass: 2
Flags: W
AnchorPoint: "Anchor-10" 235.529 1371.73 basechar 0
AnchorPoint: "Anchor-7" 300.925 -287.362 basechar 0
LayerCount: 2
Fore
SplineSet
-10 180.622070312 m 1,0,1
 252 181 252 181 363 235 c 0,2,3
 430 268 430 268 422.360351562 315.759765625 c 0,4,5
 416 353 416 353 376 409 c 0,6,7
 52 855 52 855 35.287109375 919.771484375 c 0,8,9
 -3 1072 -3 1072 157.084960938 1143.34960938 c 2,10,-1
 837.170898438 1447.69042969 l 1,11,-1
 837.170898438 1425.33007812 l 2,12,13
 836.999935241 1276.94379287 836.999935241 1276.94379287 617 1184 c 2,14,-1
 172 996 l 1,15,16
 252 837 252 837 527 418 c 1,17,18
 568 356 568 356 557.211914062 272.787109375 c 0,19,20
 550 214 550 214 509.713867188 164.829101562 c 24,21,22
 375 2 375 2 -10 -0.6875 c 1,23,-1
 -10 180.622070312 l 1,0,1
EndSplineSet
EndChar

StartChar: uniFEDC
Encoding: 65244 65244 228
Width: 894
VWidth: 2268
GlyphClass: 2
Flags: W
AnchorPoint: "Anchor-10" 230.208 1326.69 basechar 0
AnchorPoint: "Anchor-7" 305.338 -277.308 basechar 0
LayerCount: 2
Fore
SplineSet
518 202 m 5,0,1
 408 0 408 0 -10 -0.6875 c 5,2,-1
 -10 180.622070312 l 5,3,4
 255 181 255 181 363 235 c 4,5,6
 429 268 429 268 422.360351562 315.759765625 c 4,7,8
 417.375460919 351.321497783 417.375460919 351.321497783 382 401 c 4,9,10
 68 841 68 841 38 928 c 4,11,12
 -12.9801473256 1068.23929769 -12.9801473256 1068.23929769 157.372070312 1145.12109375 c 6,13,-1
 836.484375 1450.34082031 l 5,14,-1
 836.484375 1427.98046875 l 6,15,16
 835.997929359 1277.35885289 835.997929359 1277.35885289 612 1183 c 6,17,-1
 172.287109375 997.771484375 l 5,18,19
 428 543 428 543 644.7109375 274.689453125 c 4,20,21
 722.377802608 178.532253028 722.377802608 178.532253028 868.559570312 178.918945312 c 6,22,-1
 904 179.012695312 l 5,23,-1
 904 0 l 5,24,-1
 836.4296875 0 l 6,25,26
 670 0 670 0 518 202 c 5,0,1
EndSplineSet
EndChar

StartChar: uniFEDE
Encoding: 65246 65246 230
Width: 1455
VWidth: 2279
GlyphClass: 2
Flags: W
AnchorPoint: "Anchor-7" 225.713 -553.707 basechar 0
LayerCount: 2
Fore
SplineSet
1169.83789062 424 m 2,0,1
 1170 298 1170 298 1236.16015625 236.017578125 c 0,2,3
 1297 179 1297 179 1406.45996094 178.931640625 c 2,4,-1
 1465.38964844 178.931640625 l 1,5,-1
 1465.38964844 -0.0810546875 l 1,6,-1
 1421.45996094 -0.0810546875 l 2,7,8
 1291.11586075 -0.0810546875 1291.11586075 -0.0810546875 1169.90039062 84.7197265625 c 13,9,10
 1149 -454 1149 -454 613.325195312 -482 c 4,11,12
 281.793573222 -499.558781573 281.793573222 -499.558781573 142.396484375 -300.689453125 c 0,13,14
 35 -148 35 -148 92 108 c 0,15,16
 117 220 117 220 148 294 c 0,17,18
 186 387 186 387 223 379.87109375 c 0,19,20
 253 374 253 374 231.385742188 314 c 0,21,22
 133 41 133 41 215.874023438 -121.424804688 c 0,23,24
 309 -305 309 -305 562.120117188 -310.170898438 c 0,25,26
 1056 -320 1056 -320 1076.09960938 5.1904296875 c 24,27,28
 1080 69 1080 69 1080.33007812 80.7958984375 c 1,29,30
 1083 105 1083 105 1077.83984375 177.489257812 c 2,31,-1
 1014.6796875 1071.03027344 l 2,32,33
 993.186685693 1375.09663115 993.186685693 1375.09663115 1142.61035156 1452.44042969 c 2,34,-1
 1169.83007812 1466.62011719 l 1,35,-1
 1169.83007812 471.48828125 l 2,36,37
 1169.83007812 424.022143584 1169.83007812 424.022143584 1169.83789062 424 c 2,0,1
EndSplineSet
EndChar

StartChar: uniFEDF
Encoding: 65247 65247 231
Width: 487
VWidth: 2267
GlyphClass: 2
Flags: W
AnchorPoint: "Anchor-10" 255.411 1548.09 basechar 0
AnchorPoint: "Anchor-7" 184.391 -250.301 basechar 0
LayerCount: 2
Fore
SplineSet
356.577148438 462.760742188 m 2,0,1
 356.577148438 257.392710769 356.577148438 257.392710769 276.884765625 142.940429688 c 0,2,3
 177.909471649 -0.130861020448 177.909471649 -0.130861020448 24.21875 -0.130859375 c 2,4,-1
 -10.8076 -0.130859 l 1,5,-1
 -10.8076 178.988 l 1,6,-1
 2.4375 178.988 l 2,7,8
 138 179 138 179 205.3828125 263.765625 c 0,9,10
 255.198210325 327.252608151 255.198210325 327.252608151 244.603515625 476.37109375 c 2,11,-1
 199.39453125 1112.6796875 l 2,12,13
 180.020470734 1380.71679059 180.020470734 1380.71679059 340.905273438 1461.30957031 c 2,14,-1
 356.577148438 1469.16015625 l 1,15,-1
 356.577148438 462.760742188 l 2,0,1
EndSplineSet
EndChar

StartChar: uniFEE0
Encoding: 65248 65248 232
Width: 633
VWidth: 2267
GlyphClass: 2
Flags: W
AnchorPoint: "Anchor-10" 275.93 1543.88 basechar 0
AnchorPoint: "Anchor-7" 239.89 -303.269 basechar 0
LayerCount: 2
Fore
SplineSet
286.196 116.414 m 2,0,1
 185.569 4.04963 185.569 4.04963 37.0781 0.901367 c 2,2,-1
 -10.0879 -0.0986328 l 1,3,-1
 -10.0879 179.021 l 1,4,-1
 4.69727 179.021 l 2,5,6
 136.902 179.017 136.902 179.017 199.609 235.226 c 0,7,8
 269.71 298.152 269.71 298.152 260.624 424.229 c 2,9,-1
 211.187 1110.18 l 2,10,11
 191.955 1377.03 191.955 1377.03 345.89 1456.35 c 2,12,-1
 368.616 1468.06 l 1,13,-1
 368.616 424.229 l 2,14,15
 368.616 277.453 368.616 277.453 431.899 234.938 c 0,16,17
 515.133 179.02 515.133 179.02 611.822 179.021 c 2,18,-1
 643.548 179.021 l 5,19,-1
 643.548 -0.0986328 l 5,20,-1
 605.441 0.901367 l 2,21,22
 416.197 5.8675 416.197 5.8675 314.462 116.595 c 2,23,-1
 300.23 132.085 l 1,24,-1
 286.196 116.414 l 2,0,1
EndSplineSet
EndChar

StartChar: uniFEE2
Encoding: 65250 65250 234
Width: 1145
VWidth: 2313
GlyphClass: 2
Flags: W
AnchorPoint: "Anchor-10" 472.183 1061.24 basechar 0
AnchorPoint: "Anchor-7" 187.132 -769.15 basechar 0
LayerCount: 2
Fore
SplineSet
465.451171875 419.724609375 m 1,0,1
 470 202 470 202 542.451171875 118.724609375 c 0,2,3
 590 65 590 65 686.450195312 66 c 0,4,5
 814 68 814 68 802 196 c 0,6,7
 788 337 788 337 604.951171875 389.893554688 c 0,8,9
 520 414 520 414 465.451171875 419.724609375 c 1,0,1
1124.65 178.612 m 2,10,-1
 1155.46 178.5 l 1,11,-1
 1155.46 0.529297 l 1,12,-1
 1141.75976562 0.529296875 l 2,13,14
 1009 1 1009 1 933 101 c 1,15,16
 912 21 912 21 833.716796875 -40.98046875 c 0,17,18
 779.43079468 -84.8439086701 779.43079468 -84.8439086701 690.450195312 -85.7744140625 c 0,19,20
 374 -89 374 -89 354.951171875 340.893554688 c 1,21,22
 274 337 274 337 246 293 c 0,23,24
 203.554272475 231.40831397 203.554272475 231.40831397 220.091796875 9.0166015625 c 2,25,-1
 243.536132812 -306.255859375 l 2,26,27
 258.005024069 -505.069034396 258.005024069 -505.069034396 119.572265625 -574.362304688 c 2,28,-1
 91.44140625 -588.443359375 l 1,29,-1
 94.44140625 71.998046875 l 2,30,31
 96 447 96 447 380.951171875 496.893554688 c 1,32,33
 379 565 379 565 406.951171875 631.893554688 c 1,34,35
 492 573 492 573 626 529 c 0,36,37
 871 447 871 447 954 267 c 0,38,39
 995 179 995 179 1124.65 178.612 c 2,10,-1
EndSplineSet
EndChar

StartChar: uniFEE3
Encoding: 65251 65251 235
Width: 901
VWidth: 2294
GlyphClass: 2
Flags: W
AnchorPoint: "Anchor-10" 379.953 1011.87 basechar 0
AnchorPoint: "Anchor-7" 341.794 -238.935 basechar 0
LayerCount: 2
Fore
SplineSet
733.86328125 47.2265625 m 0,0,1
 629 -56 629 -56 499 -27 c 0,2,3
 337 9 337 9 227 127 c 1,4,5
 143 -0 143 -0 3.421875 -0.0654296875 c 2,6,-1
 -10.2021 -0.0654297 l 1,7,-1
 -10.2021 179.053 l 1,8,-1
 11.439453125 179.052734375 l 2,9,10
 117 179 117 179 219.537109375 337.311523438 c 0,11,12
 318 489 318 489 369 547 c 0,13,14
 457 647 457 647 583.8828125 616.061523438 c 0,15,16
 728 582 728 582 780 379 c 0,17,18
 839 150 839 150 733.86328125 47.2265625 c 0,0,1
450 162 m 0,19,20
 561 96 561 96 623.633789062 144.435546875 c 0,21,22
 694 199 694 199 662 307 c 0,23,24
 620 448 620 448 568 478 c 0,25,26
 508 512 508 512 430 430 c 0,27,28
 363 359 363 359 314.999023438 269.147460938 c 1,29,30
 372 209 372 209 450 162 c 0,19,20
EndSplineSet
EndChar

StartChar: uniFEE4
Encoding: 65252 65252 236
Width: 1003
VWidth: 2294
GlyphClass: 2
Flags: W
AnchorPoint: "Anchor-10" 428.224 975.825 basechar 0
AnchorPoint: "Anchor-7" 390.064 -248.475 basechar 0
LayerCount: 2
Fore
SplineSet
450 111 m 0,0,1
 561 45 561 45 623.633789062 93.435546875 c 0,2,3
 694 148 694 148 662 256 c 0,4,5
 620 397 620 397 568 427 c 0,6,7
 508 461 508 461 430 379 c 0,8,9
 363 308 363 308 314.999023438 218.147460938 c 1,10,11
 372 158 372 158 450 111 c 0,0,1
791.276367188 272 m 8,12,13
 821.879028249 178.370117188 821.879028249 178.370117188 971.639648438 178.370117188 c 2,14,-1
 1013.94042969 178.370117188 l 1,15,-1
 1013.94042969 -0.642578125 l 1,16,-1
 993 -0.642578125 l 2,17,18
 834 -1 834 -1 772 95 c 1,19,20
 753 46 753 46 732 13 c 0,21,22
 653 -107 653 -107 511 -79 c 4,23,24
 358 -49 358 -49 228 89 c 1,25,26
 152 -0 152 -0 3.421875 -0.0654296875 c 2,27,-1
 -10.2021 -0.0654297 l 1,28,-1
 -10.2021 179.053 l 1,29,-1
 11.439453125 179.052734375 l 2,30,31
 152 179 152 179 219.537109375 286.311523438 c 0,32,33
 298 411 298 411 369 496 c 0,34,35
 453 597 453 597 583.8828125 565.061523438 c 0,36,37
 726 531 726 531 780 328 c 0,38,-1
 791.276367188 272 l 8,12,13
EndSplineSet
EndChar

StartChar: uniFEEA
Encoding: 65258 65258 242
Width: 996
VWidth: 2283
GlyphClass: 2
Flags: W
AnchorPoint: "Anchor-10" 533.234 1208.15 basechar 0
AnchorPoint: "Anchor-7" 335.38 -225.691 basechar 0
LayerCount: 2
Fore
SplineSet
641.193359375 362.17578125 m 1,0,1
 580.8125 600.82421875 l 1,2,3
 209 521 209 521 232 408 c 0,4,5
 240 369 240 369 288 355 c 0,6,7
 396 325 396 325 641.193359375 362.17578125 c 1,0,1
675 212 m 1,8,9
 348 181 348 181 211 228 c 0,10,11
 101 266 101 266 91 366 c 0,12,13
 66 637 66 637 551.063476562 721.623046875 c 1,14,15
 541 773 541 773 538.873046875 784.958007812 c 0,16,17
 524.961914062 880.260742188 524.961914062 880.260742188 623.192382812 915.055664062 c 2,18,-1
 640.668945312 921.24609375 l 1,19,-1
 750.779296875 407.434570312 l 2,20,21
 800.071289062 178.670898438 800.071289062 178.670898438 958.75 178.609375 c 2,22,-1
 1006.25976562 178.590820312 l 1,23,-1
 1006.25976562 -0.53125 l 1,24,-1
 982.530273438 -0.53125 l 2,25,26
 773 -1 773 -1 675 212 c 1,8,9
EndSplineSet
EndChar

StartChar: uniFEEB
Encoding: 65259 65259 243
Width: 1096
VWidth: 2287
GlyphClass: 2
Flags: W
AnchorPoint: "Anchor-10" 560.85 1261.35 basechar 0
AnchorPoint: "Anchor-7" 374.015 -269.475 basechar 0
LayerCount: 2
Fore
SplineSet
654.48046875 539.168945312 m 1,0,1
 686 313 686 313 497.916992188 188.876953125 c 1,2,3
 885 71 885 71 870.529296875 291.463867188 c 0,4,5
 863 410 863 410 654.48046875 539.168945312 c 1,0,1
377.994140625 711.234375 m 1,6,7
 362 719 362 719 349.193359375 724.530273438 c 0,8,9
 296.913514764 749.040546731 296.913514764 749.040546731 333.497070312 853.905273438 c 2,10,-1
 339.061523438 869.85546875 l 1,11,-1
 655.6875 678.29296875 l 0,12,13
 1006 467 1006 467 1005.90332031 288.587890625 c 0,14,15
 1007 12 1007 12 709.53515625 -4.0615234375 c 0,16,17
 568.37915654 -11.9787337267 568.37915654 -11.9787337267 339.548828125 72.5703125 c 2,18,-1
 337.46875 73.3388671875 l 1,19,-1
 335.52734375 72.2724609375 l 2,20,21
 203.593477196 -0.671875 203.593477196 -0.671875 16.66796875 -0.671875 c 2,22,-1
 -10.923828125 -0.671875 l 1,23,-1
 -10.923828125 178.447265625 l 1,24,-1
 21.6152 178.447 l 2,25,26
 120 178 120 178 132 183 c 1,27,28
 100 234 100 234 98.029296875 333.875976562 c 0,29,30
 95 460 95 460 152 561 c 0,31,32
 204 654 204 654 296.509765625 689.602539062 c 0,33,34
 354 712 354 712 377.994140625 711.234375 c 1,6,7
524 393 m 0,35,36
 595.977446812 525.331427021 595.977446812 525.331427021 498.719726562 590.296875 c 0,37,38
 382 668 382 668 278 541 c 0,39,40
 228 480 228 480 221.123046875 394.013671875 c 0,41,42
 207 234 207 234 296 215 c 1,43,44
 430 221 430 221 524 393 c 0,35,36
EndSplineSet
EndChar

StartChar: uniFEEC
Encoding: 65260 65260 244
Width: 979
VWidth: 2305
GlyphClass: 2
Flags: W
AnchorPoint: "Anchor-7" 261.672 -740.967 basechar 0
AnchorPoint: "Anchor-10" 409.944 1141.58 basechar 0
LayerCount: 2
Fore
SplineSet
296.073 178.906 m 5,0,-1
 338.492 181.132 l 2,1,2
 432 186 432 186 475.763 256.477 c 0,3,4
 535 352 535 352 534.948242188 445.985351562 c 0,5,6
 535 525 535 525 517.631835938 551.032226562 c 0,7,8
 490 593 490 593 443.431640625 593.431640625 c 0,9,10
 343.825068717 592.981116641 343.825068717 592.981116641 311.25 429.647460938 c 0,11,12
 287 306 287 306 296.073 178.906 c 5,0,-1
233.114 603.996 m 0,13,14
 309 779 309 779 444.493 778.007 c 0,15,16
 532 777 532 777 586.534 711.229 c 0,17,18
 654 630 654 630 653.843 460.617 c 0,19,20
 654 209 654 209 507.386 75.5312 c 0,21,22
 424 -0 424 -0 310.932 -0.12793 c 1,23,24
 301 -216 301 -216 412.693 -373.446 c 1,25,26
 456 -69 456 -69 671.332 93.2119 c 0,27,28
 782 176 782 176 924.673 179.157 c 1,29,-1
 989.540039062 178.451171875 l 1,30,-1
 989.540039062 -0.63671875 l 1,31,-1
 880.152 -1.12793 l 2,32,33
 592 -2 592 -2 514.854 -511.323 c 1,34,35
 436.854 -556.323 l 1,36,37
 216 -453 216 -453 187.413 -0.12793 c 1,38,-1
 -10.8330078125 -0.1279296875 l 1,39,-1
 -10.8330078125 178.991210938 l 1,40,-1
 185.466 179.053 l 1,41,42
 177 473 177 473 233.114 603.996 c 0,13,14
EndSplineSet
EndChar

StartChar: uniFEEE
Encoding: 65262 65262 246
Width: 857
VWidth: 2307
GlyphClass: 2
Flags: W
AnchorPoint: "Anchor-10" 371.964 1118.46 basechar 0
AnchorPoint: "Anchor-7" 560.13 -655.167 basechar 0
LayerCount: 2
Fore
SplineSet
484.393554688 482.654296875 m 4,0,1
 371.792689032 480.98207032 371.792689032 480.98207032 329 311 c 4,2,3
 293 168 293 168 489.659 162.74 c 4,4,5
 516 162 516 162 649.685 165.845 c 5,6,7
 646 304 646 304 610 389 c 4,8,9
 570 484 570 484 484.393554688 482.654296875 c 4,0,1
753.316 -0.0449219 m 4,10,11
 662 -421 662 -421 288 -435 c 4,12,13
 133 -441 133 -441 5.31445 -321.4 c 5,14,15
 571 -262 571 -262 645.941 2.06445 c 5,16,17
 565 2 565 2 483.299 0.84082 c 4,18,19
 322 -2 322 -2 252 113 c 4,20,21
 205 190 205 190 227 306 c 4,22,23
 266 517 266 517 363 594 c 4,24,25
 435 652 435 652 520.138671875 646.000976562 c 4,26,27
 598 641 598 641 658 577 c 4,28,29
 730 501 730 501 750.234 306.081 c 4,30,31
 755 260 755 260 757.062 178.564 c 5,32,-1
 867.643554688 178.940429688 l 5,33,-1
 867.643554688 -0.044921875 l 5,34,-1
 753.316 -0.0449219 l 4,10,11
EndSplineSet
PairPos2: "'kern' Horizontal Kerning lookup 15-1" uniFB90 dx=-150 dy=0 dh=-150 dv=0 dx=0 dy=0 dh=0 dv=0
PairPos2: "'kern' Horizontal Kerning lookup 15-1" uniFB8E dx=-150 dy=0 dh=-150 dv=0 dx=0 dy=0 dh=0 dv=0
PairPos2: "'kern' Horizontal Kerning lookup 15-1" uni06A9 dx=-150 dy=0 dh=-150 dv=0 dx=0 dy=0 dh=0 dv=0
PairPos2: "'kern' Horizontal Kerning lookup 15-1" uni064A dx=-50 dy=0 dh=-50 dv=0 dx=0 dy=0 dh=0 dv=0
PairPos2: "'kern' Horizontal Kerning lookup 15-1" afii57414 dx=-50 dy=0 dh=-50 dv=0 dx=0 dy=0 dh=0 dv=0
PairPos2: "'kern' Horizontal Kerning lookup 15-1" uni0649 dx=-50 dy=0 dh=-50 dv=0 dx=0 dy=0 dh=0 dv=0
PairPos2: "'kern' Horizontal Kerning lookup 15-1" uni0648 dx=-50 dy=0 dh=-50 dv=0 dx=0 dy=0 dh=0 dv=0
PairPos2: "'kern' Horizontal Kerning lookup 15-1" afii57412 dx=-50 dy=0 dh=-50 dv=0 dx=0 dy=0 dh=0 dv=0
PairPos2: "'kern' Horizontal Kerning lookup 15-1" uniFEEB dx=-50 dy=0 dh=-50 dv=0 dx=0 dy=0 dh=0 dv=0
PairPos2: "'kern' Horizontal Kerning lookup 15-1" uni0647 dx=-50 dy=0 dh=-50 dv=0 dx=0 dy=0 dh=0 dv=0
PairPos2: "'kern' Horizontal Kerning lookup 15-1" uniFEE7 dx=-50 dy=0 dh=-50 dv=0 dx=0 dy=0 dh=0 dv=0
PairPos2: "'kern' Horizontal Kerning lookup 15-1" uni0646 dx=-50 dy=0 dh=-50 dv=0 dx=0 dy=0 dh=0 dv=0
PairPos2: "'kern' Horizontal Kerning lookup 15-1" uniFEE3 dx=-50 dy=0 dh=-50 dv=0 dx=0 dy=0 dh=0 dv=0
PairPos2: "'kern' Horizontal Kerning lookup 15-1" uni0645 dx=-50 dy=0 dh=-50 dv=0 dx=0 dy=0 dh=0 dv=0
PairPos2: "'kern' Horizontal Kerning lookup 15-1" uniFEFB dx=-50 dy=0 dh=-50 dv=0 dx=0 dy=0 dh=0 dv=0
PairPos2: "'kern' Horizontal Kerning lookup 15-1" uniFEDF dx=-50 dy=0 dh=-50 dv=0 dx=0 dy=0 dh=0 dv=0
PairPos2: "'kern' Horizontal Kerning lookup 15-1" uni0644 dx=-50 dy=0 dh=-50 dv=0 dx=0 dy=0 dh=0 dv=0
PairPos2: "'kern' Horizontal Kerning lookup 15-1" uniFEDB dx=-150 dy=0 dh=-150 dv=0 dx=0 dy=0 dh=0 dv=0
PairPos2: "'kern' Horizontal Kerning lookup 15-1" uni0643 dx=-50 dy=0 dh=-50 dv=0 dx=0 dy=0 dh=0 dv=0
PairPos2: "'kern' Horizontal Kerning lookup 15-1" uniFED7 dx=-50 dy=0 dh=-50 dv=0 dx=0 dy=0 dh=0 dv=0
PairPos2: "'kern' Horizontal Kerning lookup 15-1" uni0642 dx=-50 dy=0 dh=-50 dv=0 dx=0 dy=0 dh=0 dv=0
PairPos2: "'kern' Horizontal Kerning lookup 15-1" uniFED3 dx=-50 dy=0 dh=-50 dv=0 dx=0 dy=0 dh=0 dv=0
PairPos2: "'kern' Horizontal Kerning lookup 15-1" uni0641 dx=-50 dy=0 dh=-50 dv=0 dx=0 dy=0 dh=0 dv=0
PairPos2: "'kern' Horizontal Kerning lookup 15-1" uniFECF dx=-50 dy=0 dh=-50 dv=0 dx=0 dy=0 dh=0 dv=0
PairPos2: "'kern' Horizontal Kerning lookup 15-1" uniFECB dx=-50 dy=0 dh=-50 dv=0 dx=0 dy=0 dh=0 dv=0
PairPos2: "'kern' Horizontal Kerning lookup 15-1" uniFEC7 dx=-50 dy=0 dh=-50 dv=0 dx=0 dy=0 dh=0 dv=0
PairPos2: "'kern' Horizontal Kerning lookup 15-1" uni0638 dx=-50 dy=0 dh=-50 dv=0 dx=0 dy=0 dh=0 dv=0
PairPos2: "'kern' Horizontal Kerning lookup 15-1" uniFEC3 dx=-50 dy=0 dh=-50 dv=0 dx=0 dy=0 dh=0 dv=0
PairPos2: "'kern' Horizontal Kerning lookup 15-1" uni0637 dx=-50 dy=0 dh=-50 dv=0 dx=0 dy=0 dh=0 dv=0
PairPos2: "'kern' Horizontal Kerning lookup 15-1" uniFEBF dx=-50 dy=0 dh=-50 dv=0 dx=0 dy=0 dh=0 dv=0
PairPos2: "'kern' Horizontal Kerning lookup 15-1" uni0636 dx=-50 dy=0 dh=-50 dv=0 dx=0 dy=0 dh=0 dv=0
PairPos2: "'kern' Horizontal Kerning lookup 15-1" uniFEBB dx=-50 dy=0 dh=-50 dv=0 dx=0 dy=0 dh=0 dv=0
PairPos2: "'kern' Horizontal Kerning lookup 15-1" uni0635 dx=-50 dy=0 dh=-50 dv=0 dx=0 dy=0 dh=0 dv=0
PairPos2: "'kern' Horizontal Kerning lookup 15-1" uniFEB7 dx=-50 dy=0 dh=-50 dv=0 dx=0 dy=0 dh=0 dv=0
PairPos2: "'kern' Horizontal Kerning lookup 15-1" uni0634 dx=-50 dy=0 dh=-50 dv=0 dx=0 dy=0 dh=0 dv=0
PairPos2: "'kern' Horizontal Kerning lookup 15-1" uniFEB3 dx=-50 dy=0 dh=-50 dv=0 dx=0 dy=0 dh=0 dv=0
PairPos2: "'kern' Horizontal Kerning lookup 15-1" uni0633 dx=-50 dy=0 dh=-50 dv=0 dx=0 dy=0 dh=0 dv=0
PairPos2: "'kern' Horizontal Kerning lookup 15-1" uni0632 dx=-50 dy=0 dh=-50 dv=0 dx=0 dy=0 dh=0 dv=0
PairPos2: "'kern' Horizontal Kerning lookup 15-1" uni0631 dx=-50 dy=0 dh=-50 dv=0 dx=0 dy=0 dh=0 dv=0
PairPos2: "'kern' Horizontal Kerning lookup 15-1" uni0630 dx=-50 dy=0 dh=-50 dv=0 dx=0 dy=0 dh=0 dv=0
PairPos2: "'kern' Horizontal Kerning lookup 15-1" uni062F dx=-50 dy=0 dh=-50 dv=0 dx=0 dy=0 dh=0 dv=0
PairPos2: "'kern' Horizontal Kerning lookup 15-1" uniFEA7 dx=-50 dy=0 dh=-50 dv=0 dx=0 dy=0 dh=0 dv=0
PairPos2: "'kern' Horizontal Kerning lookup 15-1" uniFEA3 dx=-50 dy=0 dh=-50 dv=0 dx=0 dy=0 dh=0 dv=0
PairPos2: "'kern' Horizontal Kerning lookup 15-1" uniFE9F dx=-50 dy=0 dh=-50 dv=0 dx=0 dy=0 dh=0 dv=0
PairPos2: "'kern' Horizontal Kerning lookup 15-1" uniFE9B dx=-50 dy=0 dh=-50 dv=0 dx=0 dy=0 dh=0 dv=0
PairPos2: "'kern' Horizontal Kerning lookup 15-1" uni062B dx=-50 dy=0 dh=-50 dv=0 dx=0 dy=0 dh=0 dv=0
PairPos2: "'kern' Horizontal Kerning lookup 15-1" uniFE97 dx=-50 dy=0 dh=-50 dv=0 dx=0 dy=0 dh=0 dv=0
PairPos2: "'kern' Horizontal Kerning lookup 15-1" uni062A dx=-50 dy=0 dh=-50 dv=0 dx=0 dy=0 dh=0 dv=0
PairPos2: "'kern' Horizontal Kerning lookup 15-1" uni0629 dx=-50 dy=0 dh=-50 dv=0 dx=0 dy=0 dh=0 dv=0
PairPos2: "'kern' Horizontal Kerning lookup 15-1" uniFE91 dx=-50 dy=0 dh=-50 dv=0 dx=0 dy=0 dh=0 dv=0
PairPos2: "'kern' Horizontal Kerning lookup 15-1" uni0628 dx=-50 dy=0 dh=-50 dv=0 dx=0 dy=0 dh=0 dv=0
PairPos2: "'kern' Horizontal Kerning lookup 15-1" uni0627 dx=-50 dy=0 dh=-50 dv=0 dx=0 dy=0 dh=0 dv=0
PairPos2: "'kern' Horizontal Kerning lookup 15-1" uni0623 dx=-50 dy=0 dh=-50 dv=0 dx=0 dy=0 dh=0 dv=0
PairPos2: "'kern' Horizontal Kerning lookup 15-1" uni0622 dx=-100 dy=0 dh=-100 dv=0 dx=0 dy=0 dh=0 dv=0
PairPos2: "'kern' Horizontal Kerning lookup 15-1" uni0621 dx=-50 dy=0 dh=-50 dv=0 dx=0 dy=0 dh=0 dv=0
PairPos2: "'kern' Horizontal Kerning lookup 15-1" uniFB94 dx=-150 dy=0 dh=-150 dv=0 dx=0 dy=0 dh=0 dv=0
PairPos2: "'kern' Horizontal Kerning lookup 15-1" uniFB92 dx=-150 dy=0 dh=-150 dv=0 dx=0 dy=0 dh=0 dv=0
PairPos2: "'kern' Horizontal Kerning lookup 15-1" afii57509 dx=-150 dy=0 dh=-150 dv=0 dx=0 dy=0 dh=0 dv=0
PairPos2: "'kern' Horizontal Kerning lookup 15-1" afii57508 dx=-50 dy=0 dh=-50 dv=0 dx=0 dy=0 dh=0 dv=0
PairPos2: "'kern' Horizontal Kerning lookup 15-1" uniFB7C dx=-50 dy=0 dh=-50 dv=0 dx=0 dy=0 dh=0 dv=0
PairPos2: "'kern' Horizontal Kerning lookup 15-1" afii57506 dx=-50 dy=0 dh=-50 dv=0 dx=0 dy=0 dh=0 dv=0
PairPos2: "'kern' Horizontal Kerning lookup 15-1" uniFE8B dx=-50 dy=0 dh=-50 dv=0 dx=0 dy=0 dh=0 dv=0
EndChar

StartChar: uniFEF0
Encoding: 65264 65264 248
Width: 1396
VWidth: 2321
GlyphClass: 2
Flags: W
AnchorPoint: "Anchor-10" 619.673 500.833 basechar 0
AnchorPoint: "Anchor-7" 211.215 -772.634 basechar 0
LayerCount: 2
Fore
SplineSet
1033.18 154.958 m 0,0,1
 1097.10501252 180.041205321 1097.10501252 180.041205321 1288.41 180.032 c 2,2,-1
 1392.32 180.027 l 1,3,4
 1405 180 1405 180 1406.91015625 179.861328125 c 1,5,-1
 1406.91015625 0.8525390625 l 1,6,-1
 1338.76 0.321289 l 1,7,-1
 1135.22 0.321289 l 2,8,9
 1059 0 1059 0 1058.9 -29.7344 c 0,10,11
 1060 -81 1060 -81 1192.46 -91.2148 c 0,12,13
 1325 -101 1325 -101 1344.04 -191.914 c 0,14,15
 1355 -245 1355 -245 1320.26 -314.041 c 0,16,17
 1253 -445 1253 -445 1087.25976562 -522.353515625 c 0,18,19
 894 -612 894 -612 620.676757812 -609.125 c 0,20,21
 164 -604 164 -604 98 -280 c 4,22,23
 75 -168 75 -168 95 -37 c 0,24,25
 112 72 112 72 167 179 c 0,26,27
 235 311 235 311 276.259765625 302.267578125 c 0,28,29
 308 295 308 295 287.71875 249.09765625 c 0,30,31
 256 178 256 178 239.1015625 124.049804688 c 0,32,33
 216 47 216 47 206.79296875 -39.951171875 c 0,34,35
 192 -188 192 -188 278.508789062 -298.08203125 c 0,36,37
 386 -433 386 -433 665.62890625 -439.641601562 c 0,38,39
 880 -445 880 -445 1040.25976562 -383.353515625 c 0,40,41
 1173 -332 1173 -332 1208.25976562 -289.181640625 c 0,42,43
 1247 -243 1247 -243 1202 -219.474 c 0,44,45
 1181 -209 1181 -209 1087.52 -196.154 c 0,46,47
 901 -172 901 -172 893.285 -52.7646 c 0,48,49
 884 96 884 96 1033.18 154.958 c 0,0,1
EndSplineSet
EndChar

StartChar: uniFEFB
Encoding: 65275 65275 259
Width: 1049
VWidth: 2267
GlyphClass: 3
Flags: W
AnchorPoint: "Anchor-9" 857.258 1573.49 baselig 0
AnchorPoint: "Anchor-6" 821.378 -214.319 baselig 0
AnchorPoint: "Anchor-6" 214.937 -242.691 baselig 1
AnchorPoint: "Anchor-9" 179.146 1465.52 baselig 1
LayerCount: 2
Fore
SplineSet
590.64453125 199.875 m 1,0,1
 691 215 691 215 752.138671875 292.940429688 c 0,2,3
 816.282453128 374.358519464 816.282453128 374.358519464 806.603515625 513.37109375 c 2,4,-1
 761.39453125 1162.6796875 l 2,5,6
 744.980321979 1393.27644877 744.980321979 1393.27644877 902.905273438 1462.30957031 c 2,7,-1
 918.577148438 1469.16015625 l 1,8,-1
 918.577148438 499.760742188 l 2,9,10
 919 304 919 304 821.138671875 175.940429688 c 0,11,12
 686.900231557 -0.130859375 686.900231557 -0.130859375 453.21875 -0.130859375 c 2,13,14
 287.48046875 -0.130859375 l 6,15,16
 98.3771306919 -0.000260454743056 98.3771306919 -0.000260454743056 99.3212890625 142 c 6,17,-1
 99.48046875 165.940429688 l 5,18,19
 417 144 417 144 505.48046875 172 c 1,20,21
 425 533 425 533 148.53515625 941.762695312 c 0,22,23
 -17.9686713437 1188.95348963 -17.9686713437 1188.95348963 120.704101562 1297.0625 c 2,24,-1
 138.290039062 1310.77246094 l 1,25,26
 511 705 511 705 590.64453125 199.875 c 1,0,1
EndSplineSet
LCarets2: 1 0
Ligature2: "'rlig' Required Ligatures in Arabic lookup 16 subtable" uniFEDF uniFE8E
EndChar

StartChar: uniFEFC
Encoding: 65276 65276 260
Width: 1269
VWidth: 2267
GlyphClass: 3
Flags: W
AnchorPoint: "Anchor-9" 894.932 1529.02 baselig 0
AnchorPoint: "Anchor-6" 880.991 -233.368 baselig 0
AnchorPoint: "Anchor-6" 237.16 -260.078 baselig 1
AnchorPoint: "Anchor-9" 45.53 1399.55 baselig 1
LayerCount: 2
Fore
SplineSet
760.001 167.41 m 0,0,1
 606 -2 606 -2 313.31 -0.587891 c 0,2,3
 94.6817206238 1.00231502431 94.6817206238 1.00231502431 97.3555 146.633 c 2,4,5
 97.7227 166.633 l 1,6,7
 408.051628415 147.996899573 408.051628415 147.996899573 515.945 193.237 c 5,8,9
 435 554 435 554 159 963 c 4,10,11
 -7.91321295452 1209.87163832 -7.91321295452 1209.87163832 131.168945312 1318.29980469 c 6,12,-1
 148.754882812 1332.00976562 l 5,13,14
 520 730 520 730 599.109 234.112 c 5,15,16
 763 313 763 313 821.801 516.15 c 1,17,18
 865.094224475 686.370472166 865.094224475 686.370472166 842.08 911.35 c 2,19,-1
 816.849 1158 l 2,20,21
 793.006733207 1387.93506488 793.006733207 1387.93506488 947.169 1456.72 c 2,22,-1
 970.657 1467.2 l 1,23,-1
 970.657 669.332 l 2,24,25
 971.00767026 459.408309567 971.00767026 459.408309567 1013.72 319.633 c 0,26,27
 1056.87012914 178.425 1056.87012914 178.425 1224.49 178.425 c 2,28,-1
 1291.64 178.425 l 1,29,-1
 1291.64 -0.587891 l 1,30,-1
 1196.72 0 l 2,31,32
 951 2 951 2 878.723 367.633 c 1,33,34
 846 263 846 263 760.001 167.41 c 0,0,1
EndSplineSet
LCarets2: 1 0
Ligature2: "'rlig' Required Ligatures in Arabic lookup 16 subtable" uniFEE0 uniFE8E
EndChar

StartChar: arabic_dot
Encoding: 65536 -1 261
Width: 150
GlyphClass: 2
Flags: W
LayerCount: 2
Fore
SplineSet
90.9665 173.16 m 2,0,-1
 169.643 94.4834 l 2,1,2
 177.053 87.0736 177.053 87.0736 177.104 82.4778 c 128,-1,3
 177.154 77.9602 177.154 77.9602 170.143 71.0166 c 2,4,-1
 87.6944 -11.4324 l 2,5,6
 79.5956 -19.2181 79.5956 -19.2181 74.4843 -19.2695 c 0,7,8
 69.1284 -19.3232 69.1284 -19.3232 61.3566 -11.4834 c 2,9,-1
 -20.6942 70.5674 l 2,10,11
 -27.5687 77.0586 -27.5687 77.0586 -27.2361 82.4307 c 0,12,13
 -26.8756 88.2512 -26.8756 88.2512 -17.6434 97.4835 c 2,14,-1
 58.8725 173.999 l 2,15,16
 67.7957 183.003 67.7957 183.003 74.5331 182.864 c 128,-1,17
 81.4055 182.722 81.4055 182.722 90.9665 173.16 c 2,0,-1
EndSplineSet
EndChar

StartChar: arabic_2dots
Encoding: 65537 -1 262
Width: 452
GlyphClass: 2
Flags: W
LayerCount: 2
Fore
SplineSet
360.143 172.984 m 2,0,-1
 438.644 94.483 l 2,1,2
 446.053 87.0737 446.053 87.0737 446.104 82.4774 c 128,-1,3
 446.155 77.9603 446.155 77.9603 439.143 71.0169 c 2,4,-1
 357.143 -10.9832 l 2,5,6
 348.912 -19.2149 348.912 -19.2149 343.484 -19.2689 c 128,-1,7
 338.128 -19.3228 338.128 -19.3228 330.357 -11.4831 c 2,8,-1
 248.306 70.5674 l 2,9,10
 241.431 77.0592 241.431 77.0592 241.763 82.4299 c 0,11,12
 242.124 88.2506 242.124 88.2506 251.357 97.4835 c 2,13,-1
 327.873 174 l 2,14,15
 336.795 183.003 336.795 183.003 343.534 182.863 c 128,-1,16
 350.406 182.721 350.406 182.721 360.143 172.984 c 2,0,-1
123.143 172.983 m 2,17,-1
 201.643 94.4832 l 2,18,19
 209.053 87.0729 209.053 87.0729 209.104 82.4775 c 128,-1,20
 209.154 78.0274 209.154 78.0274 202.143 71.0169 c 2,21,-1
 120.144 -10.983 l 2,22,23
 111.911 -19.2149 111.911 -19.2149 106.484 -19.2689 c 128,-1,24
 101.196 -19.322 101.196 -19.322 93.3568 -11.4831 c 2,25,-1
 10.9532 70.9205 l 2,26,27
 4.47233 77.7291 4.47233 77.7291 4.76387 82.431 c 0,28,29
 5.10553 87.9457 5.10553 87.9457 13.9056 97.0322 c 2,30,-1
 90.8568 173.983 l 2,31,32
 99.8754 183.002 99.8754 183.002 106.534 182.863 c 0,33,34
 113.405 182.721 113.405 182.721 123.143 172.983 c 2,17,-1
EndSplineSet
EndChar

StartChar: arabic_3dots
Encoding: 65538 -1 263
Width: 455
GlyphClass: 2
Flags: W
LayerCount: 2
Fore
SplineSet
242.38 354.073 m 2,0,-1
 321.559 274.893 l 2,1,2
 328.969 267.484 328.969 267.484 329.02 262.888 c 128,-1,3
 329.07 258.37 329.07 258.37 322.059 251.427 c 2,4,-1
 240.059 169.427 l 2,5,6
 231.828 161.195 231.828 161.195 226.401 161.141 c 128,-1,7
 221.044 161.087 221.044 161.087 213.273 168.927 c 2,8,-1
 131.222 250.977 l 2,9,10
 124.347 257.469 124.347 257.469 124.68 262.841 c 0,11,12
 125.041 268.662 125.041 268.662 134.273 277.893 c 2,13,-1
 210.773 354.393 l 2,14,15
 219.955 363.576 219.955 363.576 226.24 363.624 c 128,-1,16
 232.518 363.673 232.518 363.673 242.38 354.073 c 2,0,-1
364.143 160.983 m 2,17,-1
 442.643 82.4832 l 2,18,19
 450.053 75.0732 450.053 75.0732 450.104 70.4783 c 128,-1,20
 450.153 66.0269 450.153 66.0269 443.143 59.0169 c 2,21,-1
 361.143 -22.983 l 2,22,23
 352.911 -31.2149 352.911 -31.2149 347.484 -31.2689 c 128,-1,24
 342.196 -31.322 342.196 -31.322 334.357 -23.4831 c 2,25,-1
 252.357 58.5169 l 2,26,27
 245.453 65.4206 245.453 65.4206 245.763 70.4307 c 0,28,29
 246.124 76.2504 246.124 76.2504 255.357 85.4831 c 2,30,-1
 331.856 161.983 l 2,31,32
 340.875 171.001 340.875 171.001 347.533 170.864 c 0,33,34
 354.405 170.722 354.405 170.722 364.143 160.983 c 2,17,-1
123.143 160.983 m 2,35,-1
 201.643 82.4832 l 2,36,37
 209.053 75.0729 209.053 75.0729 209.104 70.4783 c 128,-1,38
 209.153 66.0267 209.153 66.0267 202.143 59.0169 c 2,39,-1
 120.144 -22.983 l 2,40,41
 111.911 -31.2149 111.911 -31.2149 106.484 -31.2689 c 128,-1,42
 101.196 -31.322 101.196 -31.322 93.3568 -23.4831 c 2,43,-1
 10.9532 58.9205 l 2,44,45
 4.47233 65.7291 4.47233 65.7291 4.76387 70.431 c 0,46,47
 5.12442 76.2506 5.12442 76.2506 14.3568 85.4831 c 2,48,-1
 90.8568 161.983 l 2,49,50
 99.8749 171.001 99.8749 171.001 106.533 170.864 c 0,51,52
 113.405 170.722 113.405 170.722 123.143 160.983 c 2,35,-1
EndSplineSet
EndChar

StartChar: arabic_3dots_a
Encoding: 65539 -1 264
Width: 454
GlyphClass: 2
Flags: W
LayerCount: 2
Fore
SplineSet
237.093 -8.85352 m 6,0,-1
 315.894 -87.6543 l 6,1,2
 323.303 -95.0645 323.303 -95.0645 323.354 -99.6602 c 132,-1,3
 323.404 -104.178 323.404 -104.178 316.394 -111.121 c 6,4,-1
 234.394 -193.121 l 6,5,6
 226.162 -201.353 226.162 -201.353 220.734 -201.407 c 132,-1,7
 215.378 -201.461 215.378 -201.461 207.606 -193.621 c 6,8,-1
 125.556 -111.571 l 6,9,10
 118.682 -105.079 118.682 -105.079 119.015 -99.707 c 4,11,12
 119.375 -93.8867 119.375 -93.8867 128.606 -84.6543 c 6,13,-1
 205.37 -7.8916 l 6,14,15
 214.685 0.956055 214.685 0.956055 221.005 0.720703 c 132,-1,16
 227.507 0.479492 227.507 0.479492 237.093 -8.85352 c 6,0,-1
363.004 181.123 m 2,17,-1
 441.644 102.483 l 2,18,19
 449.053 95.0742 449.053 95.0742 449.104 90.4775 c 128,-1,20
 449.153 86.0264 449.153 86.0264 442.144 79.0166 c 2,21,-1
 360.144 -2.9834 l 2,22,23
 351.912 -11.2148 351.912 -11.2148 346.484 -11.2695 c 128,-1,24
 341.195 -11.3223 341.195 -11.3223 333.356 -3.4834 c 2,25,-1
 251.306 78.5684 l 2,26,27
 244.453 85.421 244.453 85.421 244.764 90.4307 c 0,28,29
 245.124 96.251 245.124 96.251 254.356 105.483 c 2,30,-1
 330.872 181.999 l 2,31,32
 339.874 191.001 339.874 191.001 346.533 190.864 c 0,33,34
 353.405 190.722 353.405 190.722 363.004 181.123 c 2,17,-1
123.144 180.983 m 2,35,-1
 201.644 102.483 l 2,36,37
 209.053 95.0742 209.053 95.0742 209.104 90.4775 c 128,-1,38
 209.153 86.0264 209.153 86.0264 202.144 79.0166 c 2,39,-1
 120.144 -2.9834 l 2,40,41
 111.912 -11.2148 111.912 -11.2148 106.484 -11.2695 c 128,-1,42
 101.195 -11.3223 101.195 -11.3223 93.3564 -3.4834 c 2,43,-1
 11.3057 78.5674 l 2,44,45
 4.4541 85.4189 4.4541 85.4189 4.76367 90.4307 c 0,46,47
 5.12402 96.251 5.12402 96.251 14.3564 105.483 c 2,48,-1
 90.8721 181.999 l 2,49,50
 99.874 191.001 99.874 191.001 106.533 190.864 c 0,51,52
 113.405 190.722 113.405 190.722 123.144 180.983 c 2,35,-1
EndSplineSet
EndChar

StartChar: uni066E.fina
Encoding: 65540 -1 265
Width: 1894
VWidth: 2288
GlyphClass: 2
Flags: W
AnchorPoint: "Anchor-10" 699.344 1103.48 basechar 0
AnchorPoint: "Anchor-7" 699.344 -210.389 basechar 0
LayerCount: 2
Fore
SplineSet
550.649414062 193.732421875 m 0,0,1
 676 180 676 180 902.040014114 178.413609021 c 152,-1,2
 1128 177 1128 177 1244.76 195.676 c 0,3,4
 1535 242 1535 242 1552.97021484 385.263671875 c 128,-1,5
 1570.94071186 528.52734546 1570.94071186 528.52734546 1672.12988281 524.4140625 c 6,6,-1
 1696.73046875 523.4140625 l 5,7,8
 1672 425 1672 425 1669.79980469 376.711914062 c 24,9,10
 1657.99373341 178.895 1657.99373341 178.895 1871.17 178.895 c 2,11,-1
 1904.24 178.895 l 1,12,-1
 1904.24 -0.118164 l 1,13,-1
 1884.94042969 -0.1181640625 l 2,14,15
 1587 -0 1587 -0 1592 231 c 1,16,17
 1468 13 1468 13 930.564453125 -0.6484375 c 24,18,19
 760 -5 760 -5 620 3.748046875 c 0,20,21
 383 18 383 18 271 90 c 0,22,23
 92 203 92 203 94 452 c 0,24,25
 95 570 95 570 130 652 c 0,26,27
 150 698 150 698 178 694.5 c 128,-1,28
 206 691 206 691 191.25177454 616.236810461 c 0,29,30
 117 242 117 242 550.649414062 193.732421875 c 0,0,1
EndSplineSet
EndChar

StartChar: uni06A1.fina
Encoding: 65543 -1 268
Width: 1926
VWidth: 2288
GlyphClass: 2
Flags: W
AnchorPoint: "Anchor-10" 509.221 1212.58 basechar 0
AnchorPoint: "Anchor-7" 622.641 -261.885 basechar 0
LayerCount: 2
Fore
SplineSet
1267.87695312 469.362304688 m 128,-1,1
 1267.87695312 395.516601562 1267.87695312 395.516601562 1318.51660156 343.202148438 c 128,-1,2
 1369.31933594 290.719726562 1369.31933594 290.719726562 1441.20507812 290.719726562 c 128,-1,3
 1513.08984375 290.719726562 1513.08984375 290.719726562 1563.89160156 343.202148438 c 128,-1,4
 1614.52929688 395.514648438 1614.52929688 395.514648438 1614.52929688 469.362304688 c 128,-1,5
 1614.52929688 543.19921875 1614.52929688 543.19921875 1563.89160156 595.515625 c 128,-1,6
 1513.08789062 647.998046875 1513.08789062 647.998046875 1441.20507812 647.998046875 c 128,-1,7
 1369.32128906 647.998046875 1369.32128906 647.998046875 1318.51660156 595.515625 c 128,-1,0
 1267.87695312 543.205078125 1267.87695312 543.205078125 1267.87695312 469.362304688 c 128,-1,1
929.564453125 -0.6484375 m 1,8,9
 703 1 703 1 619 3.7483017129 c 0,10,11
 395 10 395 10 270 90 c 0,12,13
 91 205 91 205 93 452 c 0,14,15
 94 570 94 570 129 652 c 0,16,17
 149 698 149 698 177 694.5 c 128,-1,18
 205 691 205 691 190.3203125 625.429199219 c 0,19,20
 177 565 177 565 179 484 c 4,21,22
 185 246 185 246 549.649414062 193.732421875 c 0,23,24
 645 180 645 180 963.262695312 178.171875 c 17,25,-1
 1005.76 178.6 l 2,26,27
 1294 182 1294 182 1335.13964844 194.504882812 c 1,28,29
 1192 252 1192 252 1154.13964844 399.504882812 c 0,30,31
 1133 483 1133 483 1155.00488281 575.2578125 c 0,32,33
 1189 721 1189 721 1318.02441406 778.706054688 c 0,34,35
 1377 805 1377 805 1451.5 805 c 128,-1,36
 1526 805 1526 805 1587.29003906 771.249023438 c 0,37,38
 1687 717 1687 717 1718 610 c 128,-1,39
 1749 503 1749 503 1719 389.5 c 128,-1,40
 1689 276 1689 276 1543.13964844 193.504882812 c 1,41,42
 1603.94397991 175.723953212 1603.94397991 175.723953212 1895.69 178.6 c 2,43,-1
 1936.86035156 179.005859375 l 1,44,-1
 1936.86035156 0 l 1,45,-1
 1821.0703125 -0.51953125 l 2,46,47
 1570 -2 1570 -2 1433.84960938 94.60546875 c 1,48,49
 1299.86821122 6.91374335525 1299.86821122 6.91374335525 1082.78027344 2.48046875 c 2,50,-1
 929.564453125 -0.6484375 l 1,8,9
EndSplineSet
EndChar

StartChar: uni06A1.init
Encoding: 65544 -1 269
Width: 698
VWidth: 2307
GlyphClass: 2
Flags: W
AnchorPoint: "Anchor-10" 435.699 1270 basechar 0
AnchorPoint: "Anchor-7" 340.299 -208.172 basechar 0
LayerCount: 2
Fore
SplineSet
310.567382812 836.7578125 m 4,0,1
 196.515925718 826.958407899 196.515925718 826.958407899 165.319335938 651.094726562 c 4,2,3
 141 514 141 514 359 514 c 4,4,5
 403.564809433 515.015219254 403.564809433 515.015219254 504.20703125 530.579101562 c 5,6,7
 489 688 489 688 449.987304688 763.012695312 c 4,8,9
 407 845 407 845 310.567382812 836.7578125 c 4,0,1
606.256835938 373.126953125 m 28,10,11
 591 155 591 155 417.912 56.7979 c 4,12,13
 316.049935168 -0.97168 316.049935168 -0.97168 178.861 -0.97168 c 6,14,-1
 -10.1064 -0.97168 l 5,15,-1
 -10.1064 178.147 l 5,16,-1
 185.77734375 178.147460938 l 6,17,18
 475 178 475 178 502.036132812 366.994140625 c 5,19,20
 461 355 461 355 382 347 c 4,21,22
 178 326 178 326 90.796875 446.084960938 c 4,23,24
 41 516 41 516 55.068359375 636.599609375 c 4,25,26
 79 839 79 839 181.528320312 935.485351562 c 4,27,28
 248 998 248 998 334.215820312 999.385742188 c 4,29,30
 427 1001 427 1001 481.642578125 945.533203125 c 4,31,32
 528 899 528 899 559.83984375 819.954101562 c 4,33,34
 626 653 626 653 606.256835938 373.126953125 c 28,10,11
EndSplineSet
EndChar

StartChar: uni06A1.medi
Encoding: 65545 -1 270
Width: 970
VWidth: 2288
GlyphClass: 2
Flags: W
AnchorPoint: "Anchor-10" 511.04 1008.65 basechar 0
AnchorPoint: "Anchor-7" 511.04 -203.966 basechar 0
LayerCount: 2
Fore
SplineSet
306.997070312 468.115234375 m 132,-1,1
 306.997070312 394.26953125 306.997070312 394.26953125 357.63671875 341.955078125 c 132,-1,2
 408.439453125 289.47265625 408.439453125 289.47265625 480.325195312 289.47265625 c 132,-1,3
 552.209960938 289.47265625 552.209960938 289.47265625 603.01171875 341.955078125 c 132,-1,4
 653.649414062 394.267578125 653.649414062 394.267578125 653.649414062 468.115234375 c 132,-1,5
 653.649414062 541.952148438 653.649414062 541.952148438 603.01171875 594.268554688 c 132,-1,6
 552.208007812 646.750976562 552.208007812 646.750976562 480.325195312 646.750976562 c 132,-1,7
 408.44140625 646.750976562 408.44140625 646.750976562 357.63671875 594.268554688 c 132,-1,0
 306.997070312 541.958007812 306.997070312 541.958007812 306.997070312 468.115234375 c 132,-1,1
626.41015625 770.001953125 m 4,8,9
 726 714 726 714 759.259765625 600.2578125 c 4,10,11
 788 502 788 502 759.259765625 394.2578125 c 4,12,13
 728 275 728 275 582.259765625 192.2578125 c 5,14,15
 634.088408512 175.651260154 634.088408512 175.651260154 934.813 178.353 c 2,16,-1
 979.98046875 178.758789062 l 1,17,-1
 979.98046875 -0.2470703125 l 1,18,-1
 788.188 -0.766602 l 2,19,20
 587.234505217 -1.00089248582 587.234505217 -1.00089248582 475.90234375 76.3203125 c 6,21,-1
 472.967773438 78.3583984375 l 5,22,-1
 469.9765625 76.400390625 l 6,23,24
 352.355753057 -0.766602577663 352.355753057 -0.766602577663 145.901 -0.766602 c 2,25,-1
 -10.4599609375 -0.7666015625 l 1,26,-1
 -10.4599609375 178.352539062 l 1,27,-1
 44.8838 178.353 l 2,28,29
 358 178 358 178 374.259765625 193.2578125 c 5,30,31
 231 251 231 251 193.259765625 398.2578125 c 4,32,33
 172 482 172 482 194.125 574.010742188 c 4,34,35
 228 718 228 718 357.14453125 777.458984375 c 4,36,37
 413 803 413 803 484.435546875 803.96875 c 4,38,39
 565 804 565 804 626.41015625 770.001953125 c 4,8,9
EndSplineSet
EndChar

StartChar: uni066F.fina
Encoding: 65546 -1 271
Width: 1403
VWidth: 2307
GlyphClass: 2
Flags: W
AnchorPoint: "Anchor-10" 348.271 953.913 basechar 0
AnchorPoint: "Anchor-7" 436.935 -762.036 basechar 0
LayerCount: 2
Fore
SplineSet
1285.75 -0.0869140625 m 1,0,1
 1281 -72 1281 -72 1265.68847656 -134.741210938 c 0,2,3
 1171 -520 1171 -520 670.942382812 -529.103515625 c 0,4,5
 350 -535 350 -535 196.129882812 -335.682617188 c 0,6,7
 75 -178 75 -178 128.858398438 82.2587890625 c 0,8,9
 141 141 141 141 167.791015625 212.609375 c 0,10,11
 181 248 181 248 199.309570312 288.291015625 c 0,12,13
 226 345 226 345 258.858398438 335.609375 c 0,14,15
 293 326 293 326 268.993164062 261.258789062 c 0,16,17
 190 43 190 43 241.036132812 -125.045898438 c 0,18,19
 313 -361 313 -361 666.709960938 -359.544921875 c 0,20,21
 1117 -358 1117 -358 1175.68847656 -37.7099609375 c 0,22,23
 1178.8936503 -20.1166718799 1178.8936503 -20.1166718799 1181 2 c 5,24,25
 1101 2 1101 2 1018.97851562 0.7998046875 c 0,26,27
 841 -2 841 -2 770.678710938 112.958984375 c 0,28,29
 723 191 723 191 745.678710938 305.958984375 c 0,30,31
 785 502 785 502 898.678710938 593.958984375 c 0,32,33
 971 652 971 652 1055.81738281 645.959960938 c 0,34,35
 1134 641 1134 641 1193.67871094 576.958984375 c 0,36,37
 1264 503 1264 503 1285.91308594 306.040039062 c 0,38,39
 1291 260 1291 260 1292.74121094 178.5234375 c 1,40,-1
 1412.98046875 178.8984375 l 1,41,-1
 1412.98046875 -0.0869140625 l 1,42,-1
 1285.75 -0.0869140625 l 1,0,1
1020.07226562 489.61328125 m 0,43,44
 913.678710938 487.958984375 913.678710938 487.958984375 869.678710938 310.958984375 c 0,45,46
 833.5859375 171.005859375 833.5859375 171.005859375 1025.33789062 162.69921875 c 0,47,48
 1052.05273438 161.705078125 1052.05273438 161.705078125 1185.36425781 165.803710938 c 1,49,50
 1181.32714844 310.568359375 1181.32714844 310.568359375 1145.67871094 395.958984375 c 0,51,52
 1105.68945312 491.749023438 1105.68945312 491.749023438 1020.07226562 489.61328125 c 0,43,44
EndSplineSet
EndChar

StartChar: arabic_ring
Encoding: 65549 -1 274
Width: 438
GlyphClass: 2
Flags: W
LayerCount: 2
Fore
SplineSet
316 220 m 4,0,1
 316 260 316 260 288 288 c 4,2,3
 260 317 260 317 219 317 c 132,-1,4
 178 317 178 317 150 289 c 132,-1,5
 122 261 122 261 122 220 c 4,6,7
 122 178 122 178 150 150 c 4,8,9
 178 123 178 123 219 123 c 132,-1,10
 260 123 260 123 288 151 c 132,-1,11
 316 179 316 179 316 220 c 4,0,1
438 220 m 132,-1,13
 438 128 438 128 375 64 c 4,14,15
 311 0 311 0 219 0 c 132,-1,16
 127 0 127 0 64 64 c 4,17,18
 0 128 0 128 0 220 c 132,-1,19
 0 312 0 312 64 376 c 4,20,21
 127 439 127 439 219 439 c 132,-1,22
 311 439 311 439 375 376 c 5,23,12
 438 312 438 312 438 220 c 132,-1,13
EndSplineSet
EndChar

StartChar: arabic_gaf_bar
Encoding: 65550 -1 275
Width: 674
GlyphClass: 2
Flags: W
LayerCount: 2
Fore
SplineSet
506 1550 m 6,0,-1
 0 1321 l 1,1,-1
 0 1338 l 2,2,3
 0 1439.6566725 0 1439.6566725 105 1485.5 c 2,4,-1
 632 1715.58984375 l 5,5,-1
 632 1699.58984375 l 6,6,7
 632 1607 632 1607 506 1550 c 6,0,-1
EndSplineSet
EndChar

StartChar: uni066E.init.math
Encoding: 65560 -1 285
Width: 909
VWidth: 2293
GlyphClass: 2
Flags: W
LayerCount: 2
Fore
SplineSet
588.064 80.9707 m 0,0,1
 511.546 -9.67969 511.546 -9.67969 343.01 -9.67969 c 2,2,-1
 -23.5381 -9.67969 l 1,3,-1
 -23.5381 160.853 l 1,4,-1
 280.629 160.853 l 2,5,6
 400.819 160.853 400.819 160.853 456.311 216.346 c 0,7,8
 517.476 277.51 517.476 277.51 517.476 405.639 c 2,9,-1
 517.476 632.68 l 1,10,-1
 688.008 632.68 l 1,11,-1
 688.008 405.639 l 2,12,13
 688.008 201.073 688.008 201.073 588.064 80.9707 c 0,0,1
EndSplineSet
EndChar

StartChar: guillemotleft
Encoding: 171 171 286
Width: 1171
VWidth: 2419
Flags: W
LayerCount: 2
Fore
SplineSet
557.258630437 1102.49316406 m 1,0,-1
 527.97720274 1051.0065414 l 2,1,2
 457.97279006 927.916998671 457.97279006 927.916998671 423.07956426 808.081802827 c 0,3,4
 405.115054501 746.380726742 405.115054501 746.380726742 396.13125772 683.853525163 c 128,-1,5
 387.147460938 621.326323584 387.147460938 621.326323584 387.147460938 557.98828125 c 0,6,7
 387.147460938 431.283857805 387.147460938 431.283857805 423.093692555 306.99952684 c 0,8,9
 457.985245859 186.356416826 457.985245859 186.356416826 527.928026701 63.8912719527 c 2,10,-1
 557.357639693 12.353515625 l 1,11,-1
 401.395861353 12.353515625 l 1,12,-1
 391.243645966 28.3422891225 l 2,13,14
 305.595848496 163.250552392 305.595848496 163.250552392 262.780161632 293.700930952 c 0,15,16
 255.512311501 315.850708512 255.512311501 315.850708512 249.455683315 337.960280401 c 128,-1,17
 243.39905513 360.069852291 243.39905513 360.069852291 238.554293069 382.135508796 c 128,-1,18
 233.709531009 404.201165301 233.709531009 404.201165301 230.075206366 426.227689807 c 0,19,20
 224.623711898 459.264573371 224.623711898 459.264573371 221.89828173 492.203967701 c 128,-1,21
 219.172851562 525.143362032 219.172851562 525.143362032 219.172851562 557.98828125 c 128,-1,22
 219.172851562 590.707999647 219.172851562 590.707999647 221.89984969 623.521069713 c 128,-1,23
 224.626924799 656.335479007 224.626924799 656.335479007 230.078744805 689.232977027 c 128,-1,24
 235.532709444 722.130941429 235.532709444 722.130941429 243.709688632 755.116921983 c 128,-1,25
 251.887851881 788.102083097 251.887851881 788.102083097 262.791501263 821.177759986 c 0,26,27
 273.498333914 853.649700616 273.498333914 853.649700616 286.879506649 886.46885499 c 128,-1,28
 300.261962698 919.289080121 300.261962698 919.289080121 316.315431155 952.447619506 c 128,-1,29
 332.369158943 985.607139768 332.369158943 985.607139768 351.092290554 1019.1045863 c 128,-1,30
 369.818323907 1052.60504678 369.818323907 1052.60504678 391.216128323 1086.4491693 c 2,31,-1
 401.363220599 1102.49316406 l 1,32,-1
 557.258630437 1102.49316406 l 1,0,-1
1000.69808356 1102.49316406 m 1,33,-1
 971.416655864 1051.0065414 l 2,34,35
 901.412267119 927.917040753 901.412267119 927.917040753 866.520005754 808.08184338 c 0,36,37
 857.536277869 777.227864581 857.536277869 777.227864581 850.798496428 746.170038234 c 128,-1,38
 844.060714987 715.112211887 844.060714987 715.112211887 839.569555663 683.852429984 c 128,-1,39
 835.078288578 652.592877917 835.078288578 652.592877917 832.83260132 621.126309203 c 128,-1,40
 830.586914062 589.659740488 830.586914062 589.659740488 830.586914062 557.98828125 c 0,41,42
 830.586914062 494.636225634 830.586914062 494.636225634 839.57408029 431.885279514 c 128,-1,43
 848.561246519 369.134333394 848.561246519 369.134333394 866.532157235 306.999567925 c 0,44,45
 883.970318516 246.701123371 883.970318516 246.701123371 910.183690705 185.914618661 c 128,-1,46
 936.387822949 125.147270253 936.387822949 125.147270253 971.368378172 63.8914089348 c 2,47,-1
 1000.79447601 12.353515625 l 1,48,-1
 844.834416124 12.353515625 l 1,49,-1
 834.683029728 28.3423983751 l 2,50,51
 749.058684152 163.200864441 749.058684152 163.200864441 706.220594121 293.700922415 c 0,52,53
 684.412079894 360.166055052 684.412079894 360.166055052 673.51170401 426.233368476 c 128,-1,54
 662.611328125 492.300681899 662.611328125 492.300681899 662.611328125 557.98828125 c 0,55,56
 662.611328125 590.70626555 662.611328125 590.70626555 665.336454499 623.51033818 c 128,-1,57
 668.061580873 656.31441081 668.061580873 656.31441081 673.512992275 689.21222429 c 128,-1,58
 678.964403677 722.110037769 678.964403677 722.110037769 687.143908157 755.101649693 c 128,-1,59
 695.323412636 788.093261616 695.323412636 788.093261616 706.230982496 821.177845234 c 0,60,61
 749.034151622 951.005392029 749.034151622 951.005392029 834.657726978 1086.44947355 c 2,62,-1
 844.801931763 1102.49316406 l 1,63,-1
 1000.69808356 1102.49316406 l 1,33,-1
EndSplineSet
EndChar

StartChar: guillemotright
Encoding: 187 187 287
Width: 1171
VWidth: 2419
Flags: W
LayerCount: 2
Fore
SplineSet
616.204338409 1102.49316406 m 1,0,-1
 772.100490193 1102.49316406 l 1,1,-1
 782.245528415 1086.44957623 l 2,2,3
 803.65367819 1052.58822099 803.65367819 1052.58822099 822.385184691 1019.07623454 c 128,-1,4
 841.116691192 985.564248096 841.116691192 985.564248096 857.171873039 952.402698652 c 0,5,6
 889.278372003 886.085570205 889.278372003 886.085570205 910.671358903 821.177852366 c 0,7,8
 954.290039062 688.875641458 954.290039062 688.875641458 954.290039062 557.98828125 c 0,9,10
 954.290039062 514.193152786 954.290039062 514.193152786 949.443846292 470.225215123 c 128,-1,11
 944.596435551 426.254081802 944.596435551 426.254081802 934.907710089 382.126859414 c 0,12,13
 930.062421075 360.062473105 930.062421075 360.062473105 924.006198532 337.955600604 c 128,-1,14
 917.94997599 315.848728104 917.94997599 315.848728104 910.682855151 293.700338785 c 0,15,16
 867.95863247 163.551618228 867.95863247 163.551618228 782.441914828 28.6938735469 c 2,17,-1
 772.067884311 12.353515625 l 1,18,-1
 616.106149272 12.353515625 l 1,19,-1
 645.534906015 63.8913456662 l 2,20,21
 715.515021356 186.450046226 715.515021356 186.450046226 750.369188231 306.999492818 c 0,22,23
 768.340617672 369.135827672 768.340617672 369.135827672 777.32802368 431.886732844 c 128,-1,24
 786.315429688 494.637638015 786.315429688 494.637638015 786.315429688 557.98828125 c 128,-1,25
 786.315429688 621.326306214 786.315429688 621.326306214 777.331877353 683.8535127 c 128,-1,26
 768.348325017 746.380719187 768.348325017 746.380719187 750.384314431 808.081763316 c 0,27,28
 715.495484976 927.917393158 715.495484976 927.917393158 645.486654308 1051.00655923 c 2,29,-1
 616.204338409 1102.49316406 l 1,0,-1
172.764885284 1102.49316406 m 1,30,-1
 328.660958861 1102.49316406 l 1,31,-1
 338.805133021 1086.44952199 l 2,32,33
 381.617582793 1018.7361076 381.617582793 1018.7361076 413.723165386 952.41663751 c 128,-1,34
 445.828747979 886.09716742 445.828747979 886.09716742 467.232882409 821.176875598 c 0,35,36
 510.852539062 688.871735096 510.852539062 688.871735096 510.852539062 557.98828125 c 0,37,38
 510.852539062 547.03989807 510.852539062 547.03989807 510.549612767 536.080899308 c 128,-1,39
 510.246686473 525.121900545 510.246686473 525.121900545 509.640810088 514.151811008 c 128,-1,40
 509.034933703 503.181721471 509.034933703 503.181721471 508.126072177 492.200539924 c 128,-1,41
 507.217210652 481.219358377 507.217210652 481.219358377 506.005362544 470.227103056 c 128,-1,42
 504.793729533 459.234105868 504.793729533 459.234105868 503.279415617 448.231861221 c 128,-1,43
 501.7651017 437.229616574 501.7651017 437.229616574 499.948004839 426.217496508 c 128,-1,44
 498.130907977 415.205376442 498.130907977 415.205376442 496.010960399 404.183378917 c 128,-1,45
 493.89101282 393.161381391 493.89101282 393.161381391 491.46826753 382.129837213 c 0,46,47
 481.776133496 337.997437784 481.776133496 337.997437784 467.242424784 293.700336713 c 0,48,49
 424.419797486 163.251530921 424.419797486 163.251530921 338.779841113 28.3423672141 c 2,50,-1
 328.628474501 12.353515625 l 1,51,-1
 172.668492829 12.353515625 l 1,52,-1
 202.095456734 63.8913523994 l 2,53,54
 272.074577446 186.449046618 272.074577446 186.449046618 306.931701161 306.999537524 c 0,55,56
 342.875 431.280951854 342.875 431.280951854 342.875 557.98828125 c 0,57,58
 342.875 589.65742961 342.875 589.65742961 340.628938649 621.125103798 c 128,-1,59
 338.382877297 652.592777986 338.382877297 652.592777986 333.89121924 683.855171891 c 128,-1,60
 329.399561183 715.117565795 329.399561183 715.117565795 322.662636597 746.174709254 c 128,-1,61
 315.925712012 777.231852712 315.925712012 777.231852712 306.943891063 808.081741608 c 0,62,63
 272.056037275 927.917385184 272.056037275 927.917385184 202.047201183 1051.00655923 c 2,64,-1
 172.764885284 1102.49316406 l 1,30,-1
EndSplineSet
EndChar

StartChar: exclam
Encoding: 33 33 296
Width: 648
VWidth: 4
Flags: W
LayerCount: 2
Fore
SplineSet
308.207949661 1533.69531249 m 2,0,-1
 331.985499597 1533.69533597 l 2,1,2
 405.869545567 1533.98759362 405.869545567 1533.98759362 403.493868036 1424.34526075 c 2,3,-1
 382.500821861 455.473632812 l 1,4,-1
 257.680762771 455.473632812 l 1,5,-1
 236.6925195 1423.271178 l 2,6,7
 234.072130142 1533.98785396 234.072130142 1533.98785396 308.207949661 1533.69531249 c 2,0,-1
196.395507812 132.622070312 m 0,8,9
 196.395507812 185.448546688 196.395507812 185.448546688 232.672789514 222.825197744 c 0,10,11
 271.174278599 260.2265625 271.174278599 260.2265625 324 260.2265625 c 0,12,13
 350.462651773 260.2265625 350.462651773 260.2265625 372.958989434 250.89882387 c 128,-1,14
 395.455327095 241.571085239 395.455327095 241.571085239 414.201921844 222.824968718 c 0,15,16
 451.604492188 185.422398375 451.604492188 185.422398375 451.604492188 132.622070312 c 128,-1,17
 451.604492188 79.7953946227 451.604492188 79.7953946227 414.202178329 41.2939107235 c 0,18,19
 376.825522758 5.017578125 376.825522758 5.017578125 324 5.017578125 c 0,20,21
 310.755225361 5.017578125 310.755225361 5.017578125 298.444864299 7.28069507417 c 128,-1,22
 286.134503236 9.54381202335 286.134503236 9.54381202335 274.719833044 14.0820968196 c 128,-1,23
 263.305162851 18.6203816158 263.305162851 18.6203816158 252.786367028 25.4341215837 c 128,-1,24
 242.267571205 32.2478615516 242.267571205 32.2478615516 232.608814947 41.3546478471 c 0,25,26
 214.524596223 60.5420191952 214.524596223 60.5420191952 205.460052018 83.3405211431 c 128,-1,27
 196.395507812 106.139023091 196.395507812 106.139023091 196.395507812 132.622070312 c 0,8,9
EndSplineSet
EndChar

StartChar: colon
Encoding: 58 58 297
Width: 741
VWidth: 2425
Flags: W
LayerCount: 2
Fore
SplineSet
255.3828125 132.622070312 m 128,-1,1
 255.3828125 185.448569632 255.3828125 185.448569632 291.659131776 222.825211476 c 0,2,3
 330.160606724 260.2265625 330.160606724 260.2265625 382.986328125 260.2265625 c 0,4,5
 409.449979042 260.2265625 409.449979042 260.2265625 431.946538968 250.898829429 c 128,-1,6
 454.443098893 241.571096357 454.443098893 241.571096357 473.189226531 222.824968718 c 0,7,8
 510.591796875 185.422398375 510.591796875 185.422398375 510.591796875 132.622070312 c 0,9,10
 510.591796875 114.984114614 510.591796875 114.984114614 506.441008573 98.9753288535 c 128,-1,11
 502.29022027 82.9665430933 502.29022027 82.9665430933 493.981880945 68.555695439 c 128,-1,12
 485.67354162 54.1448477848 485.67354162 54.1448477848 473.189469687 41.2938970031 c 0,13,14
 454.486755181 23.1413044341 454.486755181 23.1413044341 431.966493868 14.0794412795 c 128,-1,15
 409.446232555 5.017578125 409.446232555 5.017578125 382.986328125 5.017578125 c 0,16,17
 330.134633095 5.017578125 330.134633095 5.017578125 291.595143072 41.3546478471 c 0,18,0
 255.3828125 79.7693987203 255.3828125 79.7693987203 255.3828125 132.622070312 c 128,-1,1
255.3828125 755.782226562 m 128,-1,20
 255.3828125 808.608725882 255.3828125 808.608725882 291.659131776 845.985367726 c 0,21,22
 330.160606724 883.38671875 330.160606724 883.38671875 382.986328125 883.38671875 c 0,23,24
 400.633377668 883.38671875 400.633377668 883.38671875 416.503657325 879.242878717 c 128,-1,25
 432.373936982 875.099038684 432.373936982 875.099038684 446.531159513 866.79250407 c 128,-1,26
 460.688382044 858.485969456 460.688382044 858.485969456 473.189226531 845.985124968 c 0,27,28
 510.591796875 808.582554625 510.591796875 808.582554625 510.591796875 755.782226562 c 128,-1,29
 510.591796875 702.955550873 510.591796875 702.955550873 473.189469687 664.454053253 c 0,30,31
 435.813781739 628.177734375 435.813781739 628.177734375 382.986328125 628.177734375 c 128,-1,32
 330.178644205 628.177734375 330.178644205 628.177734375 291.659339594 664.454312257 c 0,33,19
 255.382811761 702.973601966 255.382811761 702.973601966 255.3828125 755.782226562 c 128,-1,20
291.659339594 664.454312257 m 128,-1,35
 291.62723674 664.484545971 291.62723674 664.484545971 291.595143072 664.514804097 c 2,36,-1
 291.719882222 664.390064947 l 2,37,34
 291.689598658 664.422184023 291.689598658 664.422184023 291.659339594 664.454312257 c 128,-1,35
EndSplineSet
EndChar

StartChar: period
Encoding: 46 46 298
Width: 741
VWidth: 2425
Flags: W
LayerCount: 2
Fore
SplineSet
255.3828125 132.622070312 m 128,-1,1
 255.3828125 185.448569632 255.3828125 185.448569632 291.659131776 222.825211476 c 0,2,3
 330.160606724 260.2265625 330.160606724 260.2265625 382.986328125 260.2265625 c 0,4,5
 409.449979042 260.2265625 409.449979042 260.2265625 431.946538968 250.898829429 c 128,-1,6
 454.443098893 241.571096357 454.443098893 241.571096357 473.189226531 222.824968718 c 0,7,8
 510.591796875 185.422398375 510.591796875 185.422398375 510.591796875 132.622070312 c 0,9,10
 510.591796875 114.984114614 510.591796875 114.984114614 506.441008573 98.9753288535 c 128,-1,11
 502.29022027 82.9665430933 502.29022027 82.9665430933 493.981880945 68.555695439 c 128,-1,12
 485.67354162 54.1448477848 485.67354162 54.1448477848 473.189469687 41.2938970031 c 0,13,14
 454.486755181 23.1413044341 454.486755181 23.1413044341 431.966493868 14.0794412795 c 128,-1,15
 409.446232555 5.017578125 409.446232555 5.017578125 382.986328125 5.017578125 c 0,16,17
 330.134633095 5.017578125 330.134633095 5.017578125 291.595143072 41.3546478471 c 0,18,0
 255.3828125 79.7693987203 255.3828125 79.7693987203 255.3828125 132.622070312 c 128,-1,1
EndSplineSet
EndChar
